{"glyphs":{"0":{"ha":833,"x_min":129,"x_max":704,"o":"m 418 -14 q 206 66 283 -14 q 129 285 129 146 l 129 729 q 206 948 129 868 q 418 1028 283 1028 q 628 949 551 1028 q 704 729 704 869 l 704 285 q 628 66 704 146 q 418 -14 551 -14 m 418 56 q 572 117 517 56 q 628 285 628 178 l 628 729 q 572 897 628 836 q 418 958 517 958 q 263 897 319 958 q 206 729 206 836 l 206 285 q 263 117 206 179 q 418 56 319 56 m 417 442 q 367 461 386 442 q 347 511 347 481 q 367 562 347 543 q 417 581 386 581 q 467 562 449 581 q 486 511 486 543 q 467 461 486 481 q 417 442 449 442 z "},"1":{"ha":833,"x_min":139,"x_max":736,"o":"m 139 0 l 139 63 l 426 63 l 426 951 l 150 749 l 150 826 l 404 1014 l 496 1014 l 496 63 l 736 63 l 736 0 l 139 0 z "},"2":{"ha":833,"x_min":117,"x_max":736,"o":"m 133 0 l 133 69 l 456 401 q 594 581 550 499 q 639 744 639 663 q 578 907 639 847 q 413 967 517 967 q 247 906 308 967 q 186 743 186 846 l 117 743 q 197 951 117 874 q 413 1028 278 1028 q 628 952 549 1028 q 708 749 708 876 q 656 560 708 656 q 500 358 604 465 l 210 63 l 736 63 l 736 0 l 133 0 z "},"3":{"ha":833,"x_min":125,"x_max":681,"o":"m 403 -14 q 201 62 276 -14 q 125 264 125 138 l 194 264 q 250 106 194 163 q 403 49 306 49 q 556 106 500 49 q 611 264 611 164 l 611 363 q 556 516 611 461 q 403 571 501 571 l 332 571 l 332 631 l 590 951 l 160 951 l 160 1014 l 665 1014 l 665 947 l 410 633 q 608 558 535 631 q 681 363 681 485 l 681 264 q 606 62 681 138 q 403 -14 531 -14 z "},"4":{"ha":833,"x_min":118,"x_max":653,"o":"m 583 0 l 583 236 l 118 236 l 118 375 l 515 1013 l 589 1013 l 188 357 l 188 299 l 583 299 l 583 583 l 653 583 l 653 0 l 583 0 z "},"5":{"ha":833,"x_min":139,"x_max":694,"o":"m 417 -14 q 221 51 294 -14 q 139 231 147 117 l 208 231 q 268 97 214 146 q 417 49 322 49 q 570 110 515 49 q 625 283 625 172 l 625 375 q 571 544 625 483 q 417 604 517 604 q 296 565 344 604 q 229 453 247 525 l 160 453 l 167 1014 l 667 1014 l 667 951 l 233 951 l 229 528 q 302 629 244 592 q 444 667 360 667 q 630 591 565 667 q 694 375 694 515 l 694 283 q 619 67 694 147 q 417 -14 544 -14 z "},"6":{"ha":833,"x_min":110,"x_max":724,"o":"m 417 -14 q 256 26 325 -14 q 149 138 188 67 q 110 306 110 210 q 134 435 110 371 q 194 564 158 500 l 453 1014 l 531 1014 l 246 538 l 251 533 q 324 583 272 558 q 444 607 375 607 q 591 568 528 607 q 689 460 654 529 q 724 299 724 392 q 685 135 724 206 q 578 26 647 65 q 417 -14 508 -12 m 417 49 q 589 116 524 49 q 654 299 654 183 q 624 428 654 372 q 541 517 594 485 q 417 549 488 549 q 293 517 346 549 q 210 428 240 485 q 179 299 181 372 q 242 116 176 183 q 417 49 307 49 z "},"7":{"ha":833,"x_min":125,"x_max":743,"o":"m 286 0 l 672 943 l 201 943 l 201 736 l 125 736 l 125 1014 l 743 1014 l 743 938 l 365 0 l 286 0 z "},"8":{"ha":833,"x_min":118,"x_max":715,"o":"m 417 -14 q 200 56 282 -14 q 118 244 118 125 q 172 399 118 333 q 343 519 226 464 l 357 526 l 342 533 q 194 644 246 581 q 143 786 143 707 q 179 910 143 856 q 278 997 215 965 q 417 1028 340 1028 q 561 996 496 1028 q 665 909 626 964 q 704 786 704 854 q 649 645 704 710 q 493 532 594 581 l 479 525 l 490 519 q 662 397 608 460 q 715 244 715 333 q 633 56 715 125 q 417 -14 551 -14 m 367 582 l 418 556 l 469 581 q 595 672 556 622 q 635 782 635 721 q 573 915 635 864 q 417 965 511 965 q 269 916 326 965 q 213 782 213 867 q 251 669 213 718 q 367 582 290 621 m 417 49 q 583 100 519 49 q 646 240 646 151 q 599 371 646 313 q 465 472 551 429 l 418 496 l 368 472 q 235 373 282 431 q 188 242 188 315 q 251 101 188 153 q 417 49 315 49 z "},"9":{"ha":833,"x_min":118,"x_max":715,"o":"m 297 0 l 588 476 l 582 481 q 510 429 561 456 q 389 403 458 403 q 247 441 308 403 q 152 548 186 479 q 118 708 118 617 q 156 876 118 804 q 260 988 193 947 q 417 1028 328 1028 q 574 988 507 1028 q 678 876 640 947 q 715 708 715 804 q 640 450 715 579 l 375 0 l 297 0 m 417 464 q 583 531 519 464 q 647 710 646 599 q 587 895 650 825 q 417 965 524 965 q 251 895 314 965 q 188 708 188 825 q 251 531 188 599 q 417 464 314 464 z "},"A":{"ha":833,"x_min":94,"x_max":739,"o":"m 94 0 l 374 1014 l 460 1014 l 739 0 l 667 0 l 589 292 l 242 292 l 164 0 l 94 0 m 258 354 l 572 354 l 463 764 q 431 890 443 839 q 417 956 419 940 q 401 890 414 940 q 369 764 389 839 l 258 354 z "},"Á":{"ha":833,"x_min":94,"x_max":739,"o":"m 94 0 l 374 1014 l 460 1014 l 739 0 l 667 0 l 589 292 l 242 292 l 164 0 l 94 0 m 258 354 l 572 354 l 463 764 q 431 890 443 839 q 417 956 419 940 q 401 890 414 940 q 369 764 389 839 l 258 354 m 367 1125 l 514 1319 l 596 1319 l 440 1125 l 367 1125 z "},"Ă":{"ha":833,"x_min":94,"x_max":739,"o":"m 94 0 l 374 1014 l 460 1014 l 739 0 l 667 0 l 589 292 l 242 292 l 164 0 l 94 0 m 258 354 l 572 354 l 463 764 q 431 890 443 839 q 417 956 419 940 q 401 890 414 940 q 369 764 389 839 l 258 354 m 417 1122 q 269 1176 324 1122 q 215 1319 215 1229 l 278 1319 q 315 1216 278 1254 q 415 1178 351 1178 q 518 1216 481 1178 q 556 1319 556 1254 l 618 1319 q 564 1176 618 1229 q 417 1122 510 1122 z "},"Ắ":{"ha":833,"x_min":94,"x_max":739,"o":"m 358 1243 l 497 1417 l 581 1417 l 428 1243 l 358 1243 m 389 1083 q 258 1131 308 1083 q 208 1257 208 1179 l 271 1257 q 303 1172 271 1204 q 389 1139 336 1139 l 444 1139 q 530 1172 497 1139 q 563 1257 563 1204 l 625 1257 q 576 1131 625 1179 q 444 1083 526 1083 l 389 1083 m 94 0 l 374 1014 l 460 1014 l 739 0 l 667 0 l 589 292 l 242 292 l 164 0 l 94 0 m 258 354 l 572 354 l 463 764 q 431 890 443 839 q 417 956 419 940 q 401 890 414 940 q 369 764 389 839 l 258 354 z "},"Ặ":{"ha":833,"x_min":94,"x_max":739,"o":"m 417 1122 q 269 1176 324 1122 q 215 1319 215 1229 l 278 1319 q 315 1216 278 1254 q 415 1178 351 1178 q 518 1216 481 1178 q 556 1319 556 1254 l 618 1319 q 564 1176 618 1229 q 417 1122 510 1122 m 94 0 l 374 1014 l 460 1014 l 739 0 l 667 0 l 589 292 l 242 292 l 164 0 l 94 0 m 258 354 l 572 354 l 463 764 q 431 890 443 839 q 417 956 419 940 q 401 890 414 940 q 369 764 389 839 l 258 354 m 417 -285 q 358 -264 381 -285 q 336 -208 336 -243 q 358 -153 336 -174 q 417 -132 381 -132 q 475 -153 453 -132 q 497 -208 497 -174 q 475 -264 497 -243 q 417 -285 453 -285 z "},"Ằ":{"ha":833,"x_min":94,"x_max":739,"o":"m 94 0 l 374 1014 l 460 1014 l 739 0 l 667 0 l 589 292 l 242 292 l 164 0 l 94 0 m 258 354 l 572 354 l 463 764 q 431 890 443 839 q 417 956 419 940 q 401 890 414 940 q 369 764 389 839 l 258 354 m 413 1243 l 269 1417 l 350 1417 l 479 1243 l 413 1243 m 389 1083 q 258 1131 308 1083 q 208 1257 208 1179 l 271 1257 q 303 1172 271 1204 q 389 1139 336 1139 l 444 1139 q 530 1172 497 1139 q 563 1257 563 1204 l 625 1257 q 576 1131 625 1179 q 444 1083 526 1083 l 389 1083 z "},"Ẳ":{"ha":833,"x_min":94,"x_max":739,"o":"m 94 0 l 374 1014 l 460 1014 l 739 0 l 667 0 l 589 292 l 242 292 l 164 0 l 94 0 m 258 354 l 572 354 l 463 764 q 431 890 443 839 q 417 956 419 940 q 401 890 414 940 q 369 764 389 839 l 258 354 m 374 1222 l 438 1296 q 463 1342 463 1325 q 426 1368 463 1368 l 324 1368 l 324 1417 l 422 1417 q 492 1399 467 1417 q 517 1349 517 1381 q 506 1309 517 1329 q 481 1271 496 1289 l 438 1222 l 374 1222 m 389 1083 q 258 1131 308 1083 q 208 1257 208 1179 l 271 1257 q 303 1172 271 1204 q 389 1139 336 1139 l 444 1139 q 530 1172 497 1139 q 563 1257 563 1204 l 625 1257 q 576 1131 625 1179 q 444 1083 526 1083 l 389 1083 z "},"Ẵ":{"ha":833,"x_min":94,"x_max":739,"o":"m 94 0 l 374 1014 l 460 1014 l 739 0 l 667 0 l 589 292 l 242 292 l 164 0 l 94 0 m 258 354 l 572 354 l 463 764 q 431 890 443 839 q 417 956 419 940 q 401 890 414 940 q 369 764 389 839 l 258 354 m 521 1278 q 455 1291 482 1278 q 407 1321 428 1304 q 366 1351 386 1338 q 319 1364 346 1364 q 264 1313 264 1364 l 264 1292 l 208 1292 l 208 1313 q 238 1389 208 1361 q 319 1417 268 1417 q 385 1403 358 1417 q 433 1374 413 1390 q 474 1344 454 1357 q 521 1331 494 1331 q 556 1344 543 1331 q 569 1382 569 1358 l 569 1403 l 625 1403 l 625 1382 q 597 1306 625 1335 q 521 1278 569 1278 m 389 1083 q 258 1129 308 1083 q 208 1250 208 1175 l 271 1250 q 303 1169 271 1200 q 389 1139 336 1139 l 444 1139 q 530 1169 497 1139 q 563 1250 563 1200 l 625 1250 q 576 1129 625 1175 q 444 1083 526 1083 l 389 1083 z "},"Ǎ":{"ha":833,"x_min":94,"x_max":739,"o":"m 94 0 l 374 1014 l 460 1014 l 739 0 l 667 0 l 589 292 l 242 292 l 164 0 l 94 0 m 258 354 l 572 354 l 463 764 q 431 890 443 839 q 417 956 419 940 q 401 890 414 940 q 369 764 389 839 l 258 354 m 375 1125 l 208 1319 l 279 1319 l 419 1168 l 558 1319 l 625 1319 l 458 1125 l 375 1125 z "},"Â":{"ha":833,"x_min":94,"x_max":739,"o":"m 94 0 l 374 1014 l 460 1014 l 739 0 l 667 0 l 589 292 l 242 292 l 164 0 l 94 0 m 258 354 l 572 354 l 463 764 q 431 890 443 839 q 417 956 419 940 q 401 890 414 940 q 369 764 389 839 l 258 354 m 208 1125 l 375 1319 l 458 1319 l 625 1125 l 557 1125 l 417 1276 l 279 1125 l 208 1125 z "},"Ấ":{"ha":833,"x_min":94,"x_max":792,"o":"m 94 0 l 374 1014 l 460 1014 l 739 0 l 667 0 l 589 292 l 242 292 l 164 0 l 94 0 m 258 354 l 572 354 l 463 764 q 431 890 443 839 q 417 956 419 940 q 401 890 414 940 q 369 764 389 839 l 258 354 m 563 1243 l 708 1417 l 792 1417 l 632 1243 l 563 1243 m 208 1083 l 375 1278 l 458 1278 l 625 1083 l 557 1083 l 417 1235 l 279 1083 l 208 1083 z "},"Ậ":{"ha":833,"x_min":94,"x_max":739,"o":"m 208 1125 l 375 1319 l 458 1319 l 625 1125 l 557 1125 l 417 1276 l 279 1125 l 208 1125 m 94 0 l 374 1014 l 460 1014 l 739 0 l 667 0 l 589 292 l 242 292 l 164 0 l 94 0 m 258 354 l 572 354 l 463 764 q 431 890 443 839 q 417 956 419 940 q 401 890 414 940 q 369 764 389 839 l 258 354 m 417 -285 q 358 -264 381 -285 q 336 -208 336 -243 q 358 -153 336 -174 q 417 -132 381 -132 q 475 -153 453 -132 q 497 -208 497 -174 q 475 -264 497 -243 q 417 -285 453 -285 z "},"Ầ":{"ha":833,"x_min":94,"x_max":739,"o":"m 94 0 l 374 1014 l 460 1014 l 739 0 l 667 0 l 589 292 l 242 292 l 164 0 l 94 0 m 258 354 l 572 354 l 463 764 q 431 890 443 839 q 417 956 419 940 q 401 890 414 940 q 369 764 389 839 l 258 354 m 618 1243 l 453 1417 l 536 1417 l 688 1243 l 618 1243 m 208 1083 l 375 1278 l 458 1278 l 625 1083 l 557 1083 l 417 1235 l 279 1083 l 208 1083 z "},"Ẩ":{"ha":833,"x_min":94,"x_max":747,"o":"m 94 0 l 374 1014 l 460 1014 l 739 0 l 667 0 l 589 292 l 242 292 l 164 0 l 94 0 m 258 354 l 572 354 l 463 764 q 431 890 443 839 q 417 956 419 940 q 401 890 414 940 q 369 764 389 839 l 258 354 m 604 1222 l 668 1296 q 693 1342 693 1325 q 657 1368 693 1368 l 554 1368 l 554 1417 l 653 1417 q 722 1399 697 1417 q 747 1349 747 1381 q 737 1309 747 1329 q 711 1271 726 1289 l 668 1222 l 604 1222 m 208 1083 l 375 1278 l 458 1278 l 625 1083 l 557 1083 l 417 1235 l 279 1083 l 208 1083 z "},"Ẫ":{"ha":833,"x_min":94,"x_max":739,"o":"m 94 0 l 374 1014 l 460 1014 l 739 0 l 667 0 l 589 292 l 242 292 l 164 0 l 94 0 m 258 354 l 572 354 l 463 764 q 431 890 443 839 q 417 956 419 940 q 401 890 414 940 q 369 764 389 839 l 258 354 m 521 1278 q 455 1291 482 1278 q 407 1321 428 1304 q 366 1351 386 1338 q 319 1364 346 1364 q 264 1313 264 1364 l 264 1292 l 208 1292 l 208 1313 q 238 1389 208 1361 q 319 1417 268 1417 q 385 1403 358 1417 q 433 1374 413 1390 q 474 1344 454 1357 q 521 1331 494 1331 q 556 1344 543 1331 q 569 1382 569 1358 l 569 1403 l 625 1403 l 625 1382 q 597 1306 625 1335 q 521 1278 569 1278 m 208 1083 l 375 1251 l 458 1251 l 625 1083 l 557 1083 l 417 1211 l 279 1083 l 208 1083 z "},"Ä":{"ha":833,"x_min":94,"x_max":739,"o":"m 94 0 l 374 1014 l 460 1014 l 739 0 l 667 0 l 589 292 l 242 292 l 164 0 l 94 0 m 258 354 l 572 354 l 463 764 q 431 890 443 839 q 417 956 419 940 q 401 890 414 940 q 369 764 389 839 l 258 354 m 569 1146 q 516 1167 536 1146 q 496 1222 496 1188 q 516 1278 496 1257 q 569 1299 536 1299 q 621 1278 601 1299 q 640 1222 640 1257 q 621 1167 640 1188 q 569 1146 601 1146 m 271 1146 q 219 1167 239 1146 q 199 1222 199 1188 q 219 1278 199 1257 q 271 1299 239 1299 q 323 1278 303 1299 q 343 1222 343 1257 q 323 1167 343 1188 q 271 1146 303 1146 z "},"Ạ":{"ha":833,"x_min":94,"x_max":739,"o":"m 94 0 l 374 1014 l 460 1014 l 739 0 l 667 0 l 589 292 l 242 292 l 164 0 l 94 0 m 258 354 l 572 354 l 463 764 q 431 890 443 839 q 417 956 419 940 q 401 890 414 940 q 369 764 389 839 l 258 354 m 417 -285 q 358 -264 381 -285 q 336 -208 336 -243 q 358 -153 336 -174 q 417 -132 381 -132 q 475 -153 453 -132 q 497 -208 497 -174 q 475 -264 497 -243 q 417 -285 453 -285 z "},"À":{"ha":833,"x_min":94,"x_max":739,"o":"m 94 0 l 374 1014 l 460 1014 l 739 0 l 667 0 l 589 292 l 242 292 l 164 0 l 94 0 m 258 354 l 572 354 l 463 764 q 431 890 443 839 q 417 956 419 940 q 401 890 414 940 q 369 764 389 839 l 258 354 m 393 1125 l 238 1319 l 322 1319 l 469 1125 l 393 1125 z "},"Ả":{"ha":833,"x_min":94,"x_max":739,"o":"m 94 0 l 374 1014 l 460 1014 l 739 0 l 667 0 l 589 292 l 242 292 l 164 0 l 94 0 m 258 354 l 572 354 l 463 764 q 431 890 443 839 q 417 956 419 940 q 401 890 414 940 q 369 764 389 839 l 258 354 m 381 1111 l 458 1217 q 482 1267 482 1250 q 431 1306 482 1306 l 308 1306 l 308 1354 l 431 1354 q 508 1332 479 1354 q 538 1272 538 1310 q 511 1199 538 1236 l 449 1111 l 381 1111 z "},"Ā":{"ha":833,"x_min":94,"x_max":739,"o":"m 94 0 l 374 1014 l 460 1014 l 739 0 l 667 0 l 589 292 l 242 292 l 164 0 l 94 0 m 258 354 l 572 354 l 463 764 q 431 890 443 839 q 417 956 419 940 q 401 890 414 940 q 369 764 389 839 l 258 354 m 222 1186 l 222 1246 l 611 1246 l 611 1186 l 222 1186 z "},"Ą":{"ha":833,"x_min":94,"x_max":794,"o":"m 94 0 l 374 1014 l 460 1014 l 739 0 l 719 0 q 658 -76 681 -37 q 635 -143 635 -114 q 653 -194 635 -175 q 706 -212 672 -212 l 794 -212 l 794 -271 l 693 -271 q 603 -241 636 -271 q 569 -160 569 -211 q 595 -78 569 -121 q 667 1 621 -36 l 589 292 l 242 292 l 164 0 l 94 0 m 258 354 l 572 354 l 463 764 q 431 890 443 839 q 417 956 419 940 q 401 890 414 940 q 369 764 389 839 l 258 354 z "},"Å":{"ha":833,"x_min":94,"x_max":739,"o":"m 94 0 l 374 1014 l 460 1014 l 739 0 l 667 0 l 589 292 l 242 292 l 164 0 l 94 0 m 258 354 l 572 354 l 463 764 q 431 890 443 839 q 417 956 419 940 q 401 890 414 940 q 369 764 389 839 l 258 354 m 418 1083 q 312 1122 353 1083 q 271 1222 271 1160 q 312 1323 271 1285 q 418 1361 353 1361 q 523 1323 483 1361 q 563 1222 563 1285 q 523 1122 563 1160 q 418 1083 483 1083 m 417 1132 q 482 1157 457 1132 q 507 1222 507 1182 q 482 1288 507 1263 q 417 1313 457 1313 q 351 1288 376 1313 q 326 1222 326 1263 q 351 1157 326 1182 q 417 1132 376 1132 z "},"Ã":{"ha":833,"x_min":94,"x_max":739,"o":"m 94 0 l 374 1014 l 460 1014 l 739 0 l 667 0 l 589 292 l 242 292 l 164 0 l 94 0 m 258 354 l 572 354 l 463 764 q 431 890 443 839 q 417 956 419 940 q 401 890 414 940 q 369 764 389 839 l 258 354 m 521 1132 q 455 1151 482 1132 q 407 1195 428 1169 q 365 1240 386 1221 q 319 1258 344 1258 q 269 1239 288 1258 q 250 1188 250 1219 l 250 1139 l 194 1139 l 194 1188 q 228 1279 194 1246 q 319 1313 261 1313 q 385 1294 358 1313 q 433 1249 413 1275 q 475 1205 454 1224 q 521 1186 496 1186 q 567 1206 550 1186 q 583 1257 583 1225 l 583 1306 l 639 1306 l 639 1257 q 608 1165 639 1199 q 521 1132 576 1132 z "},"Æ":{"ha":833,"x_min":47,"x_max":790,"o":"m 47 0 l 308 1014 l 790 1014 l 790 951 l 500 951 l 500 558 l 740 558 l 740 496 l 500 496 l 500 63 l 790 63 l 790 0 l 431 0 l 431 299 l 194 299 l 117 0 l 47 0 m 213 361 l 431 361 l 431 951 l 360 951 l 213 361 z "},"Ǽ":{"ha":833,"x_min":47,"x_max":790,"o":"m 47 0 l 308 1014 l 790 1014 l 790 951 l 500 951 l 500 558 l 740 558 l 740 496 l 500 496 l 500 63 l 790 63 l 790 0 l 431 0 l 431 299 l 194 299 l 117 0 l 47 0 m 213 361 l 431 361 l 431 951 l 360 951 l 213 361 m 367 1125 l 514 1319 l 596 1319 l 440 1125 l 367 1125 z "},"B":{"ha":833,"x_min":153,"x_max":717,"o":"m 153 0 l 153 1014 l 414 1014 q 616 943 540 1014 q 692 753 692 872 q 650 602 692 664 q 535 522 608 540 q 668 440 619 504 q 717 278 717 375 q 636 76 717 151 q 418 0 556 0 l 153 0 m 222 553 l 414 553 q 567 606 513 553 q 622 751 622 658 q 567 897 622 844 q 414 950 511 950 l 222 950 l 222 553 m 222 64 l 418 64 q 586 121 525 64 q 647 276 647 178 q 586 433 647 375 q 418 490 525 490 l 222 490 l 222 64 z "},"C":{"ha":833,"x_min":146,"x_max":708,"o":"m 425 -14 q 222 62 299 -14 q 146 264 146 138 l 146 750 q 222 953 146 878 q 425 1028 299 1028 q 631 949 554 1028 q 708 736 708 869 l 639 736 q 581 904 639 843 q 425 965 524 965 q 272 908 328 965 q 215 750 215 850 l 215 264 q 272 106 215 164 q 425 49 328 49 q 582 110 525 49 q 639 278 639 172 l 708 278 q 631 65 708 144 q 425 -14 554 -14 z "},"Ć":{"ha":833,"x_min":146,"x_max":708,"o":"m 425 -14 q 222 62 299 -14 q 146 264 146 138 l 146 750 q 222 953 146 878 q 425 1028 299 1028 q 631 949 554 1028 q 708 736 708 869 l 639 736 q 581 904 639 843 q 425 965 524 965 q 272 908 328 965 q 215 750 215 850 l 215 264 q 272 106 215 164 q 425 49 328 49 q 582 110 525 49 q 639 278 639 172 l 708 278 q 631 65 708 144 q 425 -14 554 -14 m 374 1125 l 521 1319 l 603 1319 l 447 1125 l 374 1125 z "},"Č":{"ha":833,"x_min":146,"x_max":708,"o":"m 425 -14 q 222 62 299 -14 q 146 264 146 138 l 146 750 q 222 953 146 878 q 425 1028 299 1028 q 631 949 554 1028 q 708 736 708 869 l 639 736 q 581 904 639 843 q 425 965 524 965 q 272 908 328 965 q 215 750 215 850 l 215 264 q 272 106 215 164 q 425 49 328 49 q 582 110 525 49 q 639 278 639 172 l 708 278 q 631 65 708 144 q 425 -14 554 -14 m 382 1125 l 215 1319 l 286 1319 l 426 1168 l 565 1319 l 632 1319 l 465 1125 l 382 1125 z "},"Ç":{"ha":833,"x_min":146,"x_max":708,"o":"m 333 -271 l 333 -222 l 444 -222 q 499 -204 478 -222 q 519 -164 519 -186 q 474 -110 519 -131 q 356 -89 429 -89 l 386 -11 q 210 74 275 0 q 146 264 146 149 l 146 750 q 222 953 146 878 q 425 1028 299 1028 q 631 949 554 1028 q 708 736 708 869 l 639 736 q 581 904 639 843 q 425 965 524 965 q 272 908 328 965 q 215 750 215 850 l 215 264 q 272 106 215 164 q 425 49 328 49 q 582 110 525 49 q 639 278 639 172 l 708 278 q 637 71 708 149 q 443 -14 565 -7 l 431 -47 q 499 -61 464 -49 q 559 -99 535 -74 q 583 -164 583 -124 q 545 -240 583 -208 q 444 -271 507 -271 l 333 -271 z "},"Ĉ":{"ha":833,"x_min":146,"x_max":708,"o":"m 425 -14 q 222 62 299 -14 q 146 264 146 138 l 146 750 q 222 953 146 878 q 425 1028 299 1028 q 631 949 554 1028 q 708 736 708 869 l 639 736 q 581 904 639 843 q 425 965 524 965 q 272 908 328 965 q 215 750 215 850 l 215 264 q 272 106 215 164 q 425 49 328 49 q 582 110 525 49 q 639 278 639 172 l 708 278 q 631 65 708 144 q 425 -14 554 -14 m 215 1125 l 382 1319 l 465 1319 l 632 1125 l 564 1125 l 424 1276 l 286 1125 l 215 1125 z "},"Ċ":{"ha":833,"x_min":146,"x_max":708,"o":"m 425 -14 q 222 62 299 -14 q 146 264 146 138 l 146 750 q 222 953 146 878 q 425 1028 299 1028 q 631 949 554 1028 q 708 736 708 869 l 639 736 q 581 904 639 843 q 425 965 524 965 q 272 908 328 965 q 215 750 215 850 l 215 264 q 272 106 215 164 q 425 49 328 49 q 582 110 525 49 q 639 278 639 172 l 708 278 q 631 65 708 144 q 425 -14 554 -14 m 424 1146 q 365 1167 388 1146 q 343 1222 343 1188 q 365 1278 343 1257 q 424 1299 388 1299 q 482 1278 460 1299 q 504 1222 504 1257 q 482 1167 504 1188 q 424 1146 460 1146 z "},"D":{"ha":833,"x_min":153,"x_max":688,"o":"m 153 0 l 153 1014 l 375 1014 q 540 976 469 1014 q 649 869 610 938 q 688 708 688 800 l 688 306 q 649 145 688 214 q 540 38 610 76 q 375 0 469 0 l 153 0 m 222 64 l 375 64 q 551 130 485 64 q 618 306 618 196 l 618 708 q 551 883 618 817 q 375 950 483 950 l 222 950 l 222 64 z "},"Ð":{"ha":833,"x_min":14,"x_max":688,"o":"m 153 0 l 153 488 l 14 488 l 14 549 l 153 549 l 153 1014 l 375 1014 q 540 976 469 1014 q 649 869 610 938 q 688 708 688 800 l 688 306 q 649 145 688 214 q 540 38 610 76 q 375 0 469 0 l 153 0 m 222 64 l 375 64 q 551 130 485 64 q 618 306 618 196 l 618 708 q 551 883 618 817 q 375 950 483 950 l 222 950 l 222 549 l 403 549 l 403 488 l 222 488 l 222 64 z "},"Ď":{"ha":833,"x_min":153,"x_max":688,"o":"m 153 0 l 153 1014 l 375 1014 q 540 976 469 1014 q 649 869 610 938 q 688 708 688 800 l 688 306 q 649 145 688 214 q 540 38 610 76 q 375 0 469 0 l 153 0 m 222 64 l 375 64 q 551 130 485 64 q 618 306 618 196 l 618 708 q 551 883 618 817 q 375 950 483 950 l 222 950 l 222 64 m 375 1125 l 208 1319 l 279 1319 l 419 1168 l 558 1319 l 625 1319 l 458 1125 l 375 1125 z "},"Đ":{"ha":833,"x_min":14,"x_max":688,"o":"m 153 0 l 153 488 l 14 488 l 14 549 l 153 549 l 153 1014 l 375 1014 q 540 976 469 1014 q 649 869 610 938 q 688 708 688 800 l 688 306 q 649 145 688 214 q 540 38 610 76 q 375 0 469 0 l 153 0 m 222 64 l 375 64 q 551 130 485 64 q 618 306 618 196 l 618 708 q 551 883 618 817 q 375 950 483 950 l 222 950 l 222 549 l 403 549 l 403 488 l 222 488 l 222 64 z "},"E":{"ha":833,"x_min":167,"x_max":708,"o":"m 167 0 l 167 1014 l 708 1014 l 708 950 l 236 950 l 236 560 l 660 560 l 660 497 l 236 497 l 236 64 l 708 64 l 708 0 l 167 0 z "},"É":{"ha":833,"x_min":167,"x_max":708,"o":"m 167 0 l 167 1014 l 708 1014 l 708 950 l 236 950 l 236 560 l 660 560 l 660 497 l 236 497 l 236 64 l 708 64 l 708 0 l 167 0 m 394 1125 l 542 1319 l 624 1319 l 468 1125 l 394 1125 z "},"Ĕ":{"ha":833,"x_min":167,"x_max":708,"o":"m 167 0 l 167 1014 l 708 1014 l 708 950 l 236 950 l 236 560 l 660 560 l 660 497 l 236 497 l 236 64 l 708 64 l 708 0 l 167 0 m 444 1122 q 297 1176 351 1122 q 243 1319 243 1229 l 306 1319 q 342 1216 306 1254 q 443 1178 379 1178 q 546 1216 508 1178 q 583 1319 583 1254 l 646 1319 q 592 1176 646 1229 q 444 1122 538 1122 z "},"Ě":{"ha":833,"x_min":167,"x_max":708,"o":"m 167 0 l 167 1014 l 708 1014 l 708 950 l 236 950 l 236 560 l 660 560 l 660 497 l 236 497 l 236 64 l 708 64 l 708 0 l 167 0 m 403 1125 l 236 1319 l 307 1319 l 447 1168 l 586 1319 l 653 1319 l 486 1125 l 403 1125 z "},"Ê":{"ha":833,"x_min":167,"x_max":708,"o":"m 167 0 l 167 1014 l 708 1014 l 708 950 l 236 950 l 236 560 l 660 560 l 660 497 l 236 497 l 236 64 l 708 64 l 708 0 l 167 0 m 236 1125 l 403 1319 l 486 1319 l 653 1125 l 585 1125 l 444 1276 l 307 1125 l 236 1125 z "},"Ế":{"ha":833,"x_min":167,"x_max":819,"o":"m 167 0 l 167 1014 l 708 1014 l 708 950 l 236 950 l 236 560 l 660 560 l 660 497 l 236 497 l 236 64 l 708 64 l 708 0 l 167 0 m 590 1243 l 736 1417 l 819 1417 l 660 1243 l 590 1243 m 236 1083 l 403 1278 l 486 1278 l 653 1083 l 585 1083 l 444 1235 l 307 1083 l 236 1083 z "},"Ệ":{"ha":833,"x_min":167,"x_max":708,"o":"m 167 0 l 167 1014 l 708 1014 l 708 950 l 236 950 l 236 560 l 660 560 l 660 497 l 236 497 l 236 64 l 708 64 l 708 0 l 167 0 m 444 -285 q 386 -264 408 -285 q 364 -208 364 -243 q 386 -153 364 -174 q 444 -132 408 -132 q 503 -153 481 -132 q 525 -208 525 -174 q 503 -264 525 -243 q 444 -285 481 -285 m 236 1125 l 403 1319 l 486 1319 l 653 1125 l 585 1125 l 444 1276 l 307 1125 l 236 1125 z "},"Ề":{"ha":833,"x_min":167,"x_max":715,"o":"m 167 0 l 167 1014 l 708 1014 l 708 950 l 236 950 l 236 560 l 660 560 l 660 497 l 236 497 l 236 64 l 708 64 l 708 0 l 167 0 m 646 1243 l 481 1417 l 564 1417 l 715 1243 l 646 1243 m 236 1083 l 403 1278 l 486 1278 l 653 1083 l 585 1083 l 444 1235 l 307 1083 l 236 1083 z "},"Ể":{"ha":833,"x_min":167,"x_max":775,"o":"m 167 0 l 167 1014 l 708 1014 l 708 950 l 236 950 l 236 560 l 660 560 l 660 497 l 236 497 l 236 64 l 708 64 l 708 0 l 167 0 m 632 1222 l 696 1296 q 721 1342 721 1325 q 685 1368 721 1368 l 582 1368 l 582 1417 l 681 1417 q 750 1399 725 1417 q 775 1349 775 1381 q 765 1309 775 1329 q 739 1271 754 1289 l 696 1222 l 632 1222 m 236 1083 l 403 1278 l 486 1278 l 653 1083 l 585 1083 l 444 1235 l 307 1083 l 236 1083 z "},"Ễ":{"ha":833,"x_min":167,"x_max":708,"o":"m 167 0 l 167 1014 l 708 1014 l 708 950 l 236 950 l 236 560 l 660 560 l 660 497 l 236 497 l 236 64 l 708 64 l 708 0 l 167 0 m 549 1278 q 483 1291 510 1278 q 435 1321 456 1304 q 394 1351 414 1338 q 347 1364 374 1364 q 292 1313 292 1364 l 292 1292 l 236 1292 l 236 1313 q 266 1389 236 1361 q 347 1417 296 1417 q 413 1403 386 1417 q 461 1374 440 1390 q 502 1344 482 1357 q 549 1331 522 1331 q 584 1344 571 1331 q 597 1382 597 1358 l 597 1403 l 653 1403 l 653 1382 q 625 1306 653 1335 q 549 1278 597 1278 m 236 1083 l 403 1251 l 486 1251 l 653 1083 l 585 1083 l 444 1211 l 307 1083 l 236 1083 z "},"Ë":{"ha":833,"x_min":167,"x_max":708,"o":"m 167 0 l 167 1014 l 708 1014 l 708 950 l 236 950 l 236 560 l 660 560 l 660 497 l 236 497 l 236 64 l 708 64 l 708 0 l 167 0 m 597 1146 q 544 1167 564 1146 q 524 1222 524 1188 q 544 1278 524 1257 q 597 1299 564 1299 q 649 1278 629 1299 q 668 1222 668 1257 q 649 1167 668 1188 q 597 1146 629 1146 m 299 1146 q 247 1167 267 1146 q 226 1222 226 1188 q 247 1278 226 1257 q 299 1299 267 1299 q 351 1278 331 1299 q 371 1222 371 1257 q 351 1167 371 1188 q 299 1146 331 1146 z "},"Ė":{"ha":833,"x_min":167,"x_max":708,"o":"m 167 0 l 167 1014 l 708 1014 l 708 950 l 236 950 l 236 560 l 660 560 l 660 497 l 236 497 l 236 64 l 708 64 l 708 0 l 167 0 m 444 1146 q 386 1167 408 1146 q 364 1222 364 1188 q 386 1278 364 1257 q 444 1299 408 1299 q 503 1278 481 1299 q 525 1222 525 1257 q 503 1167 525 1188 q 444 1146 481 1146 z "},"Ẹ":{"ha":833,"x_min":167,"x_max":708,"o":"m 167 0 l 167 1014 l 708 1014 l 708 950 l 236 950 l 236 560 l 660 560 l 660 497 l 236 497 l 236 64 l 708 64 l 708 0 l 167 0 m 444 -285 q 386 -264 408 -285 q 364 -208 364 -243 q 386 -153 364 -174 q 444 -132 408 -132 q 503 -153 481 -132 q 525 -208 525 -174 q 503 -264 525 -243 q 444 -285 481 -285 z "},"È":{"ha":833,"x_min":167,"x_max":708,"o":"m 167 0 l 167 1014 l 708 1014 l 708 950 l 236 950 l 236 560 l 660 560 l 660 497 l 236 497 l 236 64 l 708 64 l 708 0 l 167 0 m 421 1125 l 265 1319 l 350 1319 l 497 1125 l 421 1125 z "},"Ẻ":{"ha":833,"x_min":167,"x_max":708,"o":"m 167 0 l 167 1014 l 708 1014 l 708 950 l 236 950 l 236 560 l 660 560 l 660 497 l 236 497 l 236 64 l 708 64 l 708 0 l 167 0 m 408 1111 l 486 1217 q 510 1267 510 1250 q 458 1306 510 1306 l 336 1306 l 336 1354 l 458 1354 q 536 1332 507 1354 q 565 1272 565 1310 q 539 1199 565 1236 l 476 1111 l 408 1111 z "},"Ē":{"ha":833,"x_min":167,"x_max":708,"o":"m 167 0 l 167 1014 l 708 1014 l 708 950 l 236 950 l 236 560 l 660 560 l 660 497 l 236 497 l 236 64 l 708 64 l 708 0 l 167 0 m 250 1186 l 250 1246 l 639 1246 l 639 1186 l 250 1186 z "},"Ę":{"ha":833,"x_min":167,"x_max":715,"o":"m 167 0 l 167 1014 l 708 1014 l 708 950 l 236 950 l 236 560 l 660 560 l 660 497 l 236 497 l 236 64 l 708 64 l 708 0 l 640 0 q 578 -76 601 -37 q 556 -143 556 -114 q 574 -194 556 -175 q 626 -212 593 -212 l 715 -212 l 715 -271 l 614 -271 q 524 -241 557 -271 q 490 -160 490 -211 q 516 -78 490 -121 q 586 0 542 -36 l 167 0 z "},"Ɛ":{"ha":833,"x_min":117,"x_max":744,"o":"m 431 -14 q 594 22 524 -14 q 705 122 665 58 q 744 268 744 185 l 675 268 q 607 110 675 171 q 431 49 539 49 q 254 110 322 49 q 186 268 186 171 q 254 428 186 367 q 431 490 322 490 l 535 490 l 535 553 l 438 553 q 274 610 336 553 q 211 760 211 668 q 274 909 211 851 q 438 967 336 967 q 601 909 539 967 q 664 760 664 851 l 733 760 q 696 899 733 839 q 592 994 658 960 q 438 1028 525 1028 q 283 994 350 1028 q 179 899 217 960 q 142 760 142 839 q 188 604 142 668 q 313 521 235 540 q 170 436 224 503 q 117 272 117 369 q 156 123 117 188 q 267 22 196 58 q 431 -14 338 -14 z "},"Ẽ":{"ha":833,"x_min":167,"x_max":708,"o":"m 167 0 l 167 1014 l 708 1014 l 708 950 l 236 950 l 236 560 l 660 560 l 660 497 l 236 497 l 236 64 l 708 64 l 708 0 l 167 0 m 549 1132 q 483 1151 510 1132 q 435 1195 456 1169 q 393 1240 414 1221 q 347 1258 372 1258 q 297 1239 315 1258 q 278 1188 278 1219 l 278 1139 l 222 1139 l 222 1188 q 256 1279 222 1246 q 347 1313 289 1313 q 413 1294 386 1313 q 461 1249 440 1275 q 503 1205 482 1224 q 549 1186 524 1186 q 594 1206 578 1186 q 611 1257 611 1225 l 611 1306 l 667 1306 l 667 1257 q 635 1165 667 1199 q 549 1132 604 1132 z "},"F":{"ha":833,"x_min":160,"x_max":729,"o":"m 160 0 l 160 1014 l 729 1014 l 729 950 l 229 950 l 229 544 l 681 544 l 681 481 l 229 481 l 229 0 l 160 0 z "},"G":{"ha":833,"x_min":146,"x_max":708,"o":"m 425 -14 q 222 62 299 -14 q 146 264 146 138 l 146 750 q 222 953 146 878 q 425 1028 299 1028 q 631 949 554 1028 q 708 736 708 869 l 639 736 q 581 904 639 843 q 425 965 524 965 q 272 908 328 965 q 215 750 215 850 l 215 264 q 272 106 215 164 q 425 49 328 49 q 582 110 525 49 q 639 278 639 172 l 639 431 l 399 431 l 399 494 l 708 494 l 708 278 q 631 65 708 144 q 425 -14 554 -14 z "},"Ǵ":{"ha":833,"x_min":146,"x_max":708,"o":"m 425 -14 q 222 62 299 -14 q 146 264 146 138 l 146 750 q 222 953 146 878 q 425 1028 299 1028 q 631 949 554 1028 q 708 736 708 869 l 639 736 q 581 904 639 843 q 425 965 524 965 q 272 908 328 965 q 215 750 215 850 l 215 264 q 272 106 215 164 q 425 49 328 49 q 582 110 525 49 q 639 278 639 172 l 639 431 l 399 431 l 399 494 l 708 494 l 708 278 q 631 65 708 144 q 425 -14 554 -14 m 375 1125 l 522 1319 l 604 1319 l 449 1125 l 375 1125 z "},"Ğ":{"ha":833,"x_min":146,"x_max":708,"o":"m 425 -14 q 222 62 299 -14 q 146 264 146 138 l 146 750 q 222 953 146 878 q 425 1028 299 1028 q 631 949 554 1028 q 708 736 708 869 l 639 736 q 581 904 639 843 q 425 965 524 965 q 272 908 328 965 q 215 750 215 850 l 215 264 q 272 106 215 164 q 425 49 328 49 q 582 110 525 49 q 639 278 639 172 l 639 431 l 399 431 l 399 494 l 708 494 l 708 278 q 631 65 708 144 q 425 -14 554 -14 m 425 1122 q 278 1176 332 1122 q 224 1319 224 1229 l 286 1319 q 323 1216 286 1254 q 424 1178 360 1178 q 526 1216 489 1178 q 564 1319 564 1254 l 626 1319 q 572 1176 626 1229 q 425 1122 518 1122 z "},"Ǧ":{"ha":833,"x_min":146,"x_max":708,"o":"m 425 -14 q 222 62 299 -14 q 146 264 146 138 l 146 750 q 222 953 146 878 q 425 1028 299 1028 q 631 949 554 1028 q 708 736 708 869 l 639 736 q 581 904 639 843 q 425 965 524 965 q 272 908 328 965 q 215 750 215 850 l 215 264 q 272 106 215 164 q 425 49 328 49 q 582 110 525 49 q 639 278 639 172 l 639 431 l 399 431 l 399 494 l 708 494 l 708 278 q 631 65 708 144 q 425 -14 554 -14 m 383 1125 l 217 1319 l 288 1319 l 428 1168 l 567 1319 l 633 1319 l 467 1125 l 383 1125 z "},"Ĝ":{"ha":833,"x_min":146,"x_max":708,"o":"m 425 -14 q 222 62 299 -14 q 146 264 146 138 l 146 750 q 222 953 146 878 q 425 1028 299 1028 q 631 949 554 1028 q 708 736 708 869 l 639 736 q 581 904 639 843 q 425 965 524 965 q 272 908 328 965 q 215 750 215 850 l 215 264 q 272 106 215 164 q 425 49 328 49 q 582 110 525 49 q 639 278 639 172 l 639 431 l 399 431 l 399 494 l 708 494 l 708 278 q 631 65 708 144 q 425 -14 554 -14 m 217 1125 l 383 1319 l 467 1319 l 633 1125 l 565 1125 l 425 1276 l 288 1125 l 217 1125 z "},"Ģ":{"ha":833,"x_min":146,"x_max":708,"o":"m 425 -14 q 222 62 299 -14 q 146 264 146 138 l 146 750 q 222 953 146 878 q 425 1028 299 1028 q 631 949 554 1028 q 708 736 708 869 l 639 736 q 581 904 639 843 q 425 965 524 965 q 272 908 328 965 q 215 750 215 850 l 215 264 q 272 106 215 164 q 425 49 328 49 q 582 110 525 49 q 639 278 639 172 l 639 431 l 399 431 l 399 494 l 708 494 l 708 278 q 631 65 708 144 q 425 -14 554 -14 m 307 -333 l 432 -132 l 522 -132 l 376 -333 l 307 -333 z "},"Ġ":{"ha":833,"x_min":146,"x_max":708,"o":"m 425 -14 q 222 62 299 -14 q 146 264 146 138 l 146 750 q 222 953 146 878 q 425 1028 299 1028 q 631 949 554 1028 q 708 736 708 869 l 639 736 q 581 904 639 843 q 425 965 524 965 q 272 908 328 965 q 215 750 215 850 l 215 264 q 272 106 215 164 q 425 49 328 49 q 582 110 525 49 q 639 278 639 172 l 639 431 l 399 431 l 399 494 l 708 494 l 708 278 q 631 65 708 144 q 425 -14 554 -14 m 425 1146 q 367 1167 389 1146 q 344 1222 344 1188 q 367 1278 344 1257 q 425 1299 389 1299 q 483 1278 461 1299 q 506 1222 506 1257 q 483 1167 506 1188 q 425 1146 461 1146 z "},"H":{"ha":833,"x_min":153,"x_max":681,"o":"m 153 0 l 153 1014 l 222 1014 l 222 558 l 611 558 l 611 1014 l 681 1014 l 681 0 l 611 0 l 611 494 l 222 494 l 222 0 l 153 0 z "},"Ħ":{"ha":833,"x_min":14,"x_max":819,"o":"m 153 0 l 153 750 l 14 750 l 14 811 l 153 811 l 153 1014 l 222 1014 l 222 811 l 611 811 l 611 1014 l 681 1014 l 681 811 l 819 811 l 819 750 l 681 750 l 681 0 l 611 0 l 611 494 l 222 494 l 222 0 l 153 0 m 222 558 l 611 558 l 611 750 l 222 750 l 222 558 z "},"Ĥ":{"ha":833,"x_min":153,"x_max":681,"o":"m 153 0 l 153 1014 l 222 1014 l 222 558 l 611 558 l 611 1014 l 681 1014 l 681 0 l 611 0 l 611 494 l 222 494 l 222 0 l 153 0 m 208 1125 l 375 1319 l 458 1319 l 625 1125 l 557 1125 l 417 1276 l 279 1125 l 208 1125 z "},"I":{"ha":833,"x_min":167,"x_max":667,"o":"m 167 0 l 167 64 l 383 64 l 383 950 l 167 950 l 167 1014 l 667 1014 l 667 950 l 453 950 l 453 64 l 667 64 l 667 0 l 167 0 z "},"Í":{"ha":833,"x_min":167,"x_max":667,"o":"m 167 0 l 167 64 l 383 64 l 383 950 l 167 950 l 167 1014 l 667 1014 l 667 950 l 453 950 l 453 64 l 667 64 l 667 0 l 167 0 m 367 1125 l 514 1319 l 596 1319 l 440 1125 l 367 1125 z "},"Ĭ":{"ha":833,"x_min":167,"x_max":667,"o":"m 167 0 l 167 64 l 383 64 l 383 950 l 167 950 l 167 1014 l 667 1014 l 667 950 l 453 950 l 453 64 l 667 64 l 667 0 l 167 0 m 417 1122 q 269 1176 324 1122 q 215 1319 215 1229 l 278 1319 q 315 1216 278 1254 q 415 1178 351 1178 q 518 1216 481 1178 q 556 1319 556 1254 l 618 1319 q 564 1176 618 1229 q 417 1122 510 1122 z "},"Î":{"ha":833,"x_min":167,"x_max":667,"o":"m 167 0 l 167 64 l 383 64 l 383 950 l 167 950 l 167 1014 l 667 1014 l 667 950 l 453 950 l 453 64 l 667 64 l 667 0 l 167 0 m 208 1125 l 375 1319 l 458 1319 l 625 1125 l 557 1125 l 417 1276 l 279 1125 l 208 1125 z "},"Ï":{"ha":833,"x_min":167,"x_max":667,"o":"m 167 0 l 167 64 l 383 64 l 383 950 l 167 950 l 167 1014 l 667 1014 l 667 950 l 453 950 l 453 64 l 667 64 l 667 0 l 167 0 m 569 1146 q 516 1167 536 1146 q 496 1222 496 1188 q 516 1278 496 1257 q 569 1299 536 1299 q 621 1278 601 1299 q 640 1222 640 1257 q 621 1167 640 1188 q 569 1146 601 1146 m 271 1146 q 219 1167 239 1146 q 199 1222 199 1188 q 219 1278 199 1257 q 271 1299 239 1299 q 323 1278 303 1299 q 343 1222 343 1257 q 323 1167 343 1188 q 271 1146 303 1146 z "},"İ":{"ha":833,"x_min":167,"x_max":667,"o":"m 167 0 l 167 64 l 383 64 l 383 950 l 167 950 l 167 1014 l 667 1014 l 667 950 l 453 950 l 453 64 l 667 64 l 667 0 l 167 0 m 417 1146 q 358 1167 381 1146 q 336 1222 336 1188 q 358 1278 336 1257 q 417 1299 381 1299 q 475 1278 453 1299 q 497 1222 497 1257 q 475 1167 497 1188 q 417 1146 453 1146 z "},"Ị":{"ha":833,"x_min":167,"x_max":667,"o":"m 167 0 l 167 64 l 383 64 l 383 950 l 167 950 l 167 1014 l 667 1014 l 667 950 l 453 950 l 453 64 l 667 64 l 667 0 l 167 0 m 417 -285 q 358 -264 381 -285 q 336 -208 336 -243 q 358 -153 336 -174 q 417 -132 381 -132 q 475 -153 453 -132 q 497 -208 497 -174 q 475 -264 497 -243 q 417 -285 453 -285 z "},"Ì":{"ha":833,"x_min":167,"x_max":667,"o":"m 167 0 l 167 64 l 383 64 l 383 950 l 167 950 l 167 1014 l 667 1014 l 667 950 l 453 950 l 453 64 l 667 64 l 667 0 l 167 0 m 393 1125 l 238 1319 l 322 1319 l 469 1125 l 393 1125 z "},"Ỉ":{"ha":833,"x_min":167,"x_max":667,"o":"m 167 0 l 167 64 l 383 64 l 383 950 l 167 950 l 167 1014 l 667 1014 l 667 950 l 453 950 l 453 64 l 667 64 l 667 0 l 167 0 m 381 1111 l 458 1217 q 482 1267 482 1250 q 431 1306 482 1306 l 308 1306 l 308 1354 l 431 1354 q 508 1332 479 1354 q 538 1272 538 1310 q 511 1199 538 1236 l 449 1111 l 381 1111 z "},"Ī":{"ha":833,"x_min":167,"x_max":667,"o":"m 167 0 l 167 64 l 383 64 l 383 950 l 167 950 l 167 1014 l 667 1014 l 667 950 l 453 950 l 453 64 l 667 64 l 667 0 l 167 0 m 222 1186 l 222 1246 l 611 1246 l 611 1186 l 222 1186 z "},"Į":{"ha":833,"x_min":167,"x_max":667,"o":"m 167 0 l 167 64 l 383 64 l 383 950 l 167 950 l 167 1014 l 667 1014 l 667 950 l 453 950 l 453 64 l 667 64 l 667 0 l 446 0 q 384 -76 407 -37 q 361 -143 361 -114 q 380 -194 361 -175 q 432 -212 399 -212 l 521 -212 l 521 -271 l 419 -271 q 329 -241 363 -271 q 296 -160 296 -211 q 322 -78 296 -121 q 392 0 347 -36 l 167 0 z "},"Ĩ":{"ha":833,"x_min":167,"x_max":667,"o":"m 167 0 l 167 64 l 383 64 l 383 950 l 167 950 l 167 1014 l 667 1014 l 667 950 l 453 950 l 453 64 l 667 64 l 667 0 l 167 0 m 521 1132 q 455 1151 482 1132 q 407 1195 428 1169 q 365 1240 386 1221 q 319 1258 344 1258 q 269 1239 288 1258 q 250 1188 250 1219 l 250 1139 l 194 1139 l 194 1188 q 228 1279 194 1246 q 319 1313 261 1313 q 385 1294 358 1313 q 433 1249 413 1275 q 475 1205 454 1224 q 521 1186 496 1186 q 567 1206 550 1186 q 583 1257 583 1225 l 583 1306 l 639 1306 l 639 1257 q 608 1165 639 1199 q 521 1132 576 1132 z "},"J":{"ha":833,"x_min":97,"x_max":667,"o":"m 382 -14 q 173 64 249 -14 q 97 278 97 142 l 167 278 q 224 110 167 171 q 382 49 282 49 q 540 110 482 49 q 597 276 597 171 l 597 949 l 282 949 l 282 1014 l 667 1014 l 667 276 q 590 64 667 142 q 382 -14 514 -14 z "},"Ĵ":{"ha":833,"x_min":97,"x_max":708,"o":"m 382 -14 q 173 64 249 -14 q 97 278 97 142 l 167 278 q 224 110 167 171 q 382 49 282 49 q 540 110 482 49 q 597 276 597 171 l 597 949 l 282 949 l 282 1014 l 667 1014 l 667 276 q 590 64 667 142 q 382 -14 514 -14 m 292 1125 l 458 1319 l 542 1319 l 708 1125 l 640 1125 l 500 1276 l 363 1125 l 292 1125 z "},"K":{"ha":833,"x_min":153,"x_max":750,"o":"m 153 0 l 153 1014 l 222 1014 l 222 557 l 435 557 l 660 1014 l 736 1014 l 497 529 l 750 0 l 668 0 l 433 494 l 222 494 l 222 0 l 153 0 z "},"Ķ":{"ha":833,"x_min":153,"x_max":750,"o":"m 153 0 l 153 1014 l 222 1014 l 222 557 l 435 557 l 660 1014 l 736 1014 l 497 529 l 750 0 l 668 0 l 433 494 l 222 494 l 222 0 l 153 0 m 299 -333 l 424 -132 l 514 -132 l 368 -333 l 299 -333 z "},"L":{"ha":833,"x_min":194,"x_max":757,"o":"m 194 0 l 194 1014 l 264 1014 l 264 64 l 757 64 l 757 0 l 194 0 z "},"Ĺ":{"ha":833,"x_min":181,"x_max":757,"o":"m 194 0 l 194 1014 l 264 1014 l 264 64 l 757 64 l 757 0 l 194 0 m 181 1125 l 328 1319 l 410 1319 l 254 1125 l 181 1125 z "},"Ľ":{"ha":833,"x_min":194,"x_max":917,"o":"m 194 0 l 194 1014 l 264 1014 l 264 64 l 757 64 l 757 0 l 194 0 m 833 1014 l 847 1264 l 917 1264 l 889 1014 l 833 1014 z "},"Ļ":{"ha":833,"x_min":194,"x_max":757,"o":"m 194 0 l 194 1014 l 264 1014 l 264 64 l 757 64 l 757 0 l 194 0 m 354 -333 l 479 -132 l 569 -132 l 424 -333 l 354 -333 z "},"Ŀ":{"ha":833,"x_min":194,"x_max":757,"o":"m 194 0 l 194 1014 l 264 1014 l 264 64 l 757 64 l 757 0 l 194 0 m 611 368 q 537 397 564 368 q 510 472 510 425 q 537 547 510 519 q 611 574 564 574 q 685 547 658 574 q 713 472 713 519 q 685 397 713 425 q 611 368 658 368 z "},"Ł":{"ha":833,"x_min":28,"x_max":771,"o":"m 208 0 l 208 458 l 28 333 l 28 410 l 208 535 l 208 1014 l 278 1014 l 278 582 l 542 764 l 542 688 l 278 506 l 278 64 l 771 64 l 771 0 l 208 0 z "},"M":{"ha":833,"x_min":128,"x_max":706,"o":"m 128 0 l 128 1014 l 232 1014 l 374 625 q 398 558 385 594 q 418 499 411 522 q 438 558 425 522 q 463 625 451 594 l 603 1014 l 706 1014 l 706 0 l 638 0 l 638 611 q 639 752 638 682 q 642 882 640 822 q 644 979 643 942 l 456 451 l 379 451 l 188 979 q 192 882 190 942 q 194 752 193 822 q 196 611 196 682 l 196 0 l 128 0 z "},"N":{"ha":833,"x_min":153,"x_max":681,"o":"m 153 0 l 153 1014 l 247 1014 l 619 76 q 617 138 618 104 q 615 199 615 171 q 614 236 614 226 l 614 1014 l 681 1014 l 681 0 l 585 0 l 217 938 q 219 874 218 918 q 219 778 219 831 l 219 0 l 153 0 z "},"Ń":{"ha":833,"x_min":153,"x_max":681,"o":"m 153 0 l 153 1014 l 247 1014 l 619 76 q 617 138 618 104 q 615 199 615 171 q 614 236 614 226 l 614 1014 l 681 1014 l 681 0 l 585 0 l 217 938 q 219 874 218 918 q 219 778 219 831 l 219 0 l 153 0 m 367 1125 l 514 1319 l 596 1319 l 440 1125 l 367 1125 z "},"Ň":{"ha":833,"x_min":153,"x_max":681,"o":"m 153 0 l 153 1014 l 247 1014 l 619 76 q 617 138 618 104 q 615 199 615 171 q 614 236 614 226 l 614 1014 l 681 1014 l 681 0 l 585 0 l 217 938 q 219 874 218 918 q 219 778 219 831 l 219 0 l 153 0 m 375 1125 l 208 1319 l 279 1319 l 419 1168 l 558 1319 l 625 1319 l 458 1125 l 375 1125 z "},"Ņ":{"ha":833,"x_min":153,"x_max":681,"o":"m 153 0 l 153 1014 l 247 1014 l 619 76 q 617 138 618 104 q 615 199 615 171 q 614 236 614 226 l 614 1014 l 681 1014 l 681 0 l 585 0 l 217 938 q 219 874 218 918 q 219 778 219 831 l 219 0 l 153 0 m 299 -333 l 424 -132 l 514 -132 l 368 -333 l 299 -333 z "},"Ŋ":{"ha":833,"x_min":151,"x_max":682,"o":"m 315 -250 l 315 -187 l 426 -187 q 613 0 613 -187 l 215 938 q 217 874 217 918 q 218 778 218 831 l 218 0 l 151 0 l 151 1014 l 247 1014 l 621 131 q 617 203 619 156 q 615 304 615 251 l 615 1014 l 682 1014 l 682 0 q 616 -185 682 -119 q 426 -250 550 -250 l 315 -250 z "},"Ñ":{"ha":833,"x_min":153,"x_max":681,"o":"m 153 0 l 153 1014 l 247 1014 l 619 76 q 617 138 618 104 q 615 199 615 171 q 614 236 614 226 l 614 1014 l 681 1014 l 681 0 l 585 0 l 217 938 q 219 874 218 918 q 219 778 219 831 l 219 0 l 153 0 m 521 1132 q 455 1151 482 1132 q 407 1195 428 1169 q 365 1240 386 1221 q 319 1258 344 1258 q 269 1239 288 1258 q 250 1188 250 1219 l 250 1139 l 194 1139 l 194 1188 q 228 1279 194 1246 q 319 1313 261 1313 q 385 1294 358 1313 q 433 1249 413 1275 q 475 1205 454 1224 q 521 1186 496 1186 q 567 1206 550 1186 q 583 1257 583 1225 l 583 1306 l 639 1306 l 639 1257 q 608 1165 639 1199 q 521 1132 576 1132 z "},"O":{"ha":833,"x_min":146,"x_max":688,"o":"m 417 -14 q 220 62 294 -14 q 146 264 146 138 l 146 750 q 220 952 146 876 q 417 1028 294 1028 q 614 952 540 1028 q 688 750 688 876 l 688 264 q 614 62 688 138 q 417 -14 540 -14 m 417 47 q 565 104 513 47 q 618 264 618 161 l 618 750 q 565 910 618 853 q 417 967 511 967 q 269 910 322 967 q 215 750 215 853 l 215 264 q 268 104 215 161 q 417 47 321 47 z "},"Ó":{"ha":833,"x_min":146,"x_max":688,"o":"m 417 -14 q 220 62 294 -14 q 146 264 146 138 l 146 750 q 220 952 146 876 q 417 1028 294 1028 q 614 952 540 1028 q 688 750 688 876 l 688 264 q 614 62 688 138 q 417 -14 540 -14 m 417 47 q 565 104 513 47 q 618 264 618 161 l 618 750 q 565 910 618 853 q 417 967 511 967 q 269 910 322 967 q 215 750 215 853 l 215 264 q 268 104 215 161 q 417 47 321 47 m 367 1125 l 514 1319 l 596 1319 l 440 1125 l 367 1125 z "},"Ŏ":{"ha":833,"x_min":146,"x_max":688,"o":"m 417 -14 q 220 62 294 -14 q 146 264 146 138 l 146 750 q 220 952 146 876 q 417 1028 294 1028 q 614 952 540 1028 q 688 750 688 876 l 688 264 q 614 62 688 138 q 417 -14 540 -14 m 417 47 q 565 104 513 47 q 618 264 618 161 l 618 750 q 565 910 618 853 q 417 967 511 967 q 269 910 322 967 q 215 750 215 853 l 215 264 q 268 104 215 161 q 417 47 321 47 m 417 1122 q 269 1176 324 1122 q 215 1319 215 1229 l 278 1319 q 315 1216 278 1254 q 415 1178 351 1178 q 518 1216 481 1178 q 556 1319 556 1254 l 618 1319 q 564 1176 618 1229 q 417 1122 510 1122 z "},"Ô":{"ha":833,"x_min":146,"x_max":688,"o":"m 417 -14 q 220 62 294 -14 q 146 264 146 138 l 146 750 q 220 952 146 876 q 417 1028 294 1028 q 614 952 540 1028 q 688 750 688 876 l 688 264 q 614 62 688 138 q 417 -14 540 -14 m 417 47 q 565 104 513 47 q 618 264 618 161 l 618 750 q 565 910 618 853 q 417 967 511 967 q 269 910 322 967 q 215 750 215 853 l 215 264 q 268 104 215 161 q 417 47 321 47 m 208 1125 l 375 1319 l 458 1319 l 625 1125 l 557 1125 l 417 1276 l 279 1125 l 208 1125 z "},"Ố":{"ha":833,"x_min":146,"x_max":792,"o":"m 417 -14 q 220 62 294 -14 q 146 264 146 138 l 146 750 q 220 952 146 876 q 417 1028 294 1028 q 614 952 540 1028 q 688 750 688 876 l 688 264 q 614 62 688 138 q 417 -14 540 -14 m 417 47 q 565 104 513 47 q 618 264 618 161 l 618 750 q 565 910 618 853 q 417 967 511 967 q 269 910 322 967 q 215 750 215 853 l 215 264 q 268 104 215 161 q 417 47 321 47 m 563 1243 l 708 1417 l 792 1417 l 632 1243 l 563 1243 m 208 1083 l 375 1278 l 458 1278 l 625 1083 l 557 1083 l 417 1235 l 279 1083 l 208 1083 z "},"Ộ":{"ha":833,"x_min":146,"x_max":688,"o":"m 417 -14 q 220 62 294 -14 q 146 264 146 138 l 146 750 q 220 952 146 876 q 417 1028 294 1028 q 614 952 540 1028 q 688 750 688 876 l 688 264 q 614 62 688 138 q 417 -14 540 -14 m 417 47 q 565 104 513 47 q 618 264 618 161 l 618 750 q 565 910 618 853 q 417 967 511 967 q 269 910 322 967 q 215 750 215 853 l 215 264 q 268 104 215 161 q 417 47 321 47 m 417 -285 q 358 -264 381 -285 q 336 -208 336 -243 q 358 -153 336 -174 q 417 -132 381 -132 q 475 -153 453 -132 q 497 -208 497 -174 q 475 -264 497 -243 q 417 -285 453 -285 m 208 1125 l 375 1319 l 458 1319 l 625 1125 l 557 1125 l 417 1276 l 279 1125 l 208 1125 z "},"Ồ":{"ha":833,"x_min":146,"x_max":688,"o":"m 417 -14 q 220 62 294 -14 q 146 264 146 138 l 146 750 q 220 952 146 876 q 417 1028 294 1028 q 614 952 540 1028 q 688 750 688 876 l 688 264 q 614 62 688 138 q 417 -14 540 -14 m 417 47 q 565 104 513 47 q 618 264 618 161 l 618 750 q 565 910 618 853 q 417 967 511 967 q 269 910 322 967 q 215 750 215 853 l 215 264 q 268 104 215 161 q 417 47 321 47 m 618 1243 l 453 1417 l 536 1417 l 688 1243 l 618 1243 m 208 1083 l 375 1278 l 458 1278 l 625 1083 l 557 1083 l 417 1235 l 279 1083 l 208 1083 z "},"Ổ":{"ha":833,"x_min":146,"x_max":747,"o":"m 417 -14 q 220 62 294 -14 q 146 264 146 138 l 146 750 q 220 952 146 876 q 417 1028 294 1028 q 614 952 540 1028 q 688 750 688 876 l 688 264 q 614 62 688 138 q 417 -14 540 -14 m 417 47 q 565 104 513 47 q 618 264 618 161 l 618 750 q 565 910 618 853 q 417 967 511 967 q 269 910 322 967 q 215 750 215 853 l 215 264 q 268 104 215 161 q 417 47 321 47 m 604 1222 l 668 1296 q 693 1342 693 1325 q 657 1368 693 1368 l 554 1368 l 554 1417 l 653 1417 q 722 1399 697 1417 q 747 1349 747 1381 q 737 1309 747 1329 q 711 1271 726 1289 l 668 1222 l 604 1222 m 208 1083 l 375 1278 l 458 1278 l 625 1083 l 557 1083 l 417 1235 l 279 1083 l 208 1083 z "},"Ỗ":{"ha":833,"x_min":146,"x_max":688,"o":"m 417 -14 q 220 62 294 -14 q 146 264 146 138 l 146 750 q 220 952 146 876 q 417 1028 294 1028 q 614 952 540 1028 q 688 750 688 876 l 688 264 q 614 62 688 138 q 417 -14 540 -14 m 417 47 q 565 104 513 47 q 618 264 618 161 l 618 750 q 565 910 618 853 q 417 967 511 967 q 269 910 322 967 q 215 750 215 853 l 215 264 q 268 104 215 161 q 417 47 321 47 m 521 1278 q 455 1291 482 1278 q 407 1321 428 1304 q 366 1351 386 1338 q 319 1364 346 1364 q 264 1313 264 1364 l 264 1292 l 208 1292 l 208 1313 q 238 1389 208 1361 q 319 1417 268 1417 q 385 1403 358 1417 q 433 1374 413 1390 q 474 1344 454 1357 q 521 1331 494 1331 q 556 1344 543 1331 q 569 1382 569 1358 l 569 1403 l 625 1403 l 625 1382 q 597 1306 625 1335 q 521 1278 569 1278 m 208 1083 l 375 1251 l 458 1251 l 625 1083 l 557 1083 l 417 1211 l 279 1083 l 208 1083 z "},"Ö":{"ha":833,"x_min":146,"x_max":688,"o":"m 417 -14 q 220 62 294 -14 q 146 264 146 138 l 146 750 q 220 952 146 876 q 417 1028 294 1028 q 614 952 540 1028 q 688 750 688 876 l 688 264 q 614 62 688 138 q 417 -14 540 -14 m 417 47 q 565 104 513 47 q 618 264 618 161 l 618 750 q 565 910 618 853 q 417 967 511 967 q 269 910 322 967 q 215 750 215 853 l 215 264 q 268 104 215 161 q 417 47 321 47 m 569 1146 q 516 1167 536 1146 q 496 1222 496 1188 q 516 1278 496 1257 q 569 1299 536 1299 q 621 1278 601 1299 q 640 1222 640 1257 q 621 1167 640 1188 q 569 1146 601 1146 m 271 1146 q 219 1167 239 1146 q 199 1222 199 1188 q 219 1278 199 1257 q 271 1299 239 1299 q 323 1278 303 1299 q 343 1222 343 1257 q 323 1167 343 1188 q 271 1146 303 1146 z "},"Ọ":{"ha":833,"x_min":146,"x_max":688,"o":"m 417 -14 q 220 62 294 -14 q 146 264 146 138 l 146 750 q 220 952 146 876 q 417 1028 294 1028 q 614 952 540 1028 q 688 750 688 876 l 688 264 q 614 62 688 138 q 417 -14 540 -14 m 417 47 q 565 104 513 47 q 618 264 618 161 l 618 750 q 565 910 618 853 q 417 967 511 967 q 269 910 322 967 q 215 750 215 853 l 215 264 q 268 104 215 161 q 417 47 321 47 m 417 -285 q 358 -264 381 -285 q 336 -208 336 -243 q 358 -153 336 -174 q 417 -132 381 -132 q 475 -153 453 -132 q 497 -208 497 -174 q 475 -264 497 -243 q 417 -285 453 -285 z "},"Ò":{"ha":833,"x_min":146,"x_max":688,"o":"m 417 -14 q 220 62 294 -14 q 146 264 146 138 l 146 750 q 220 952 146 876 q 417 1028 294 1028 q 614 952 540 1028 q 688 750 688 876 l 688 264 q 614 62 688 138 q 417 -14 540 -14 m 417 47 q 565 104 513 47 q 618 264 618 161 l 618 750 q 565 910 618 853 q 417 967 511 967 q 269 910 322 967 q 215 750 215 853 l 215 264 q 268 104 215 161 q 417 47 321 47 m 393 1125 l 238 1319 l 322 1319 l 469 1125 l 393 1125 z "},"Ỏ":{"ha":833,"x_min":146,"x_max":688,"o":"m 417 -14 q 220 62 294 -14 q 146 264 146 138 l 146 750 q 220 952 146 876 q 417 1028 294 1028 q 614 952 540 1028 q 688 750 688 876 l 688 264 q 614 62 688 138 q 417 -14 540 -14 m 417 47 q 565 104 513 47 q 618 264 618 161 l 618 750 q 565 910 618 853 q 417 967 511 967 q 269 910 322 967 q 215 750 215 853 l 215 264 q 268 104 215 161 q 417 47 321 47 m 381 1111 l 458 1217 q 482 1267 482 1250 q 431 1306 482 1306 l 308 1306 l 308 1354 l 431 1354 q 508 1332 479 1354 q 538 1272 538 1310 q 511 1199 538 1236 l 449 1111 l 381 1111 z "},"Ơ":{"ha":833,"x_min":146,"x_max":750,"o":"m 417 -14 q 220 62 294 -14 q 146 264 146 138 l 146 750 q 220 952 146 876 q 417 1028 294 1028 q 590 972 521 1028 l 632 972 q 677 992 660 972 q 694 1042 694 1011 l 694 1125 l 750 1125 l 750 1042 q 718 956 750 989 q 638 924 686 924 q 688 750 688 853 l 688 264 q 614 62 688 138 q 417 -14 540 -14 m 417 47 q 565 104 513 47 q 618 264 618 161 l 618 750 q 565 910 618 853 q 417 967 511 967 q 269 910 322 967 q 215 750 215 853 l 215 264 q 268 104 215 161 q 417 47 321 47 z "},"Ớ":{"ha":833,"x_min":146,"x_max":750,"o":"m 417 -14 q 220 62 294 -14 q 146 264 146 138 l 146 750 q 220 952 146 876 q 417 1028 294 1028 q 590 972 521 1028 l 632 972 q 677 992 660 972 q 694 1042 694 1011 l 694 1125 l 750 1125 l 750 1042 q 718 956 750 989 q 638 924 686 924 q 688 750 688 853 l 688 264 q 614 62 688 138 q 417 -14 540 -14 m 417 47 q 565 104 513 47 q 618 264 618 161 l 618 750 q 565 910 618 853 q 417 967 511 967 q 269 910 322 967 q 215 750 215 853 l 215 264 q 268 104 215 161 q 417 47 321 47 m 353 1125 l 500 1319 l 582 1319 l 426 1125 l 353 1125 z "},"Ợ":{"ha":833,"x_min":146,"x_max":750,"o":"m 417 -14 q 220 62 294 -14 q 146 264 146 138 l 146 750 q 220 952 146 876 q 417 1028 294 1028 q 590 972 521 1028 l 632 972 q 677 992 660 972 q 694 1042 694 1011 l 694 1125 l 750 1125 l 750 1042 q 718 956 750 989 q 638 924 686 924 q 688 750 688 853 l 688 264 q 614 62 688 138 q 417 -14 540 -14 m 417 47 q 565 104 513 47 q 618 264 618 161 l 618 750 q 565 910 618 853 q 417 967 511 967 q 269 910 322 967 q 215 750 215 853 l 215 264 q 268 104 215 161 q 417 47 321 47 m 417 -285 q 358 -264 381 -285 q 336 -208 336 -243 q 358 -153 336 -174 q 417 -132 381 -132 q 475 -153 453 -132 q 497 -208 497 -174 q 475 -264 497 -243 q 417 -285 453 -285 z "},"Ờ":{"ha":833,"x_min":146,"x_max":750,"o":"m 417 -14 q 220 62 294 -14 q 146 264 146 138 l 146 750 q 220 952 146 876 q 417 1028 294 1028 q 590 972 521 1028 l 632 972 q 677 992 660 972 q 694 1042 694 1011 l 694 1125 l 750 1125 l 750 1042 q 718 956 750 989 q 638 924 686 924 q 688 750 688 853 l 688 264 q 614 62 688 138 q 417 -14 540 -14 m 417 47 q 565 104 513 47 q 618 264 618 161 l 618 750 q 565 910 618 853 q 417 967 511 967 q 269 910 322 967 q 215 750 215 853 l 215 264 q 268 104 215 161 q 417 47 321 47 m 379 1125 l 224 1319 l 308 1319 l 456 1125 l 379 1125 z "},"Ở":{"ha":833,"x_min":146,"x_max":750,"o":"m 417 -14 q 220 62 294 -14 q 146 264 146 138 l 146 750 q 220 952 146 876 q 417 1028 294 1028 q 590 972 521 1028 l 632 972 q 677 992 660 972 q 694 1042 694 1011 l 694 1125 l 750 1125 l 750 1042 q 718 956 750 989 q 638 924 686 924 q 688 750 688 853 l 688 264 q 614 62 688 138 q 417 -14 540 -14 m 417 47 q 565 104 513 47 q 618 264 618 161 l 618 750 q 565 910 618 853 q 417 967 511 967 q 269 910 322 967 q 215 750 215 853 l 215 264 q 268 104 215 161 q 417 47 321 47 m 367 1111 l 444 1217 q 468 1267 468 1250 q 417 1306 468 1306 l 294 1306 l 294 1354 l 417 1354 q 494 1332 465 1354 q 524 1272 524 1310 q 497 1199 524 1236 l 435 1111 l 367 1111 z "},"Ỡ":{"ha":833,"x_min":146,"x_max":750,"o":"m 417 -14 q 220 62 294 -14 q 146 264 146 138 l 146 750 q 220 952 146 876 q 417 1028 294 1028 q 590 972 521 1028 l 632 972 q 677 992 660 972 q 694 1042 694 1011 l 694 1125 l 750 1125 l 750 1042 q 718 956 750 989 q 638 924 686 924 q 688 750 688 853 l 688 264 q 614 62 688 138 q 417 -14 540 -14 m 417 47 q 565 104 513 47 q 618 264 618 161 l 618 750 q 565 910 618 853 q 417 967 511 967 q 269 910 322 967 q 215 750 215 853 l 215 264 q 268 104 215 161 q 417 47 321 47 m 507 1132 q 441 1151 468 1132 q 393 1195 414 1169 q 351 1240 372 1221 q 306 1258 331 1258 q 255 1239 274 1258 q 236 1188 236 1219 l 236 1139 l 181 1139 l 181 1188 q 214 1279 181 1246 q 306 1313 247 1313 q 372 1294 344 1313 q 419 1249 399 1275 q 461 1205 440 1224 q 507 1186 482 1186 q 553 1206 536 1186 q 569 1257 569 1225 l 569 1306 l 625 1306 l 625 1257 q 594 1165 625 1199 q 507 1132 563 1132 z "},"Ő":{"ha":833,"x_min":146,"x_max":693,"o":"m 417 -14 q 220 62 294 -14 q 146 264 146 138 l 146 750 q 220 952 146 876 q 417 1028 294 1028 q 614 952 540 1028 q 688 750 688 876 l 688 264 q 614 62 688 138 q 417 -14 540 -14 m 417 47 q 565 104 513 47 q 618 264 618 161 l 618 750 q 565 910 618 853 q 417 967 511 967 q 269 910 322 967 q 215 750 215 853 l 215 264 q 268 104 215 161 q 417 47 321 47 m 465 1125 l 613 1319 l 693 1319 l 538 1125 l 465 1125 m 244 1125 l 392 1319 l 472 1319 l 317 1125 l 244 1125 z "},"Ō":{"ha":833,"x_min":146,"x_max":688,"o":"m 417 -14 q 220 62 294 -14 q 146 264 146 138 l 146 750 q 220 952 146 876 q 417 1028 294 1028 q 614 952 540 1028 q 688 750 688 876 l 688 264 q 614 62 688 138 q 417 -14 540 -14 m 417 47 q 565 104 513 47 q 618 264 618 161 l 618 750 q 565 910 618 853 q 417 967 511 967 q 269 910 322 967 q 215 750 215 853 l 215 264 q 268 104 215 161 q 417 47 321 47 m 222 1186 l 222 1246 l 611 1246 l 611 1186 l 222 1186 z "},"Ǫ":{"ha":833,"x_min":146,"x_max":688,"o":"m 513 -271 q 422 -241 456 -271 q 389 -160 389 -211 q 411 -83 389 -124 q 472 -8 433 -43 q 444 -12 461 -11 q 417 -14 428 -14 q 220 62 294 -14 q 146 264 146 138 l 146 750 q 220 952 146 876 q 417 1028 294 1028 q 614 952 540 1028 q 688 750 688 876 l 688 264 q 652 113 688 175 q 551 14 617 50 l 539 3 q 476 -74 499 -33 q 454 -143 454 -114 q 473 -194 454 -175 q 525 -212 492 -212 l 614 -212 l 614 -271 l 513 -271 m 417 47 q 565 104 513 47 q 618 264 618 161 l 618 750 q 565 910 618 853 q 417 967 511 967 q 269 910 322 967 q 215 750 215 853 l 215 264 q 268 104 215 161 q 417 47 321 47 z "},"Ø":{"ha":833,"x_min":69,"x_max":764,"o":"m 69 -56 l 174 128 q 146 264 146 188 l 146 750 q 220 952 146 876 q 417 1028 294 1028 q 542 1002 488 1028 q 633 929 597 976 l 697 1042 l 764 1042 l 665 871 q 688 750 688 817 l 688 264 q 614 62 688 138 q 417 -14 540 -14 q 210 72 283 -14 l 136 -56 l 69 -56 m 215 264 q 219 207 215 233 l 596 864 q 417 967 547 967 q 269 910 322 967 q 215 750 215 853 l 215 264 m 417 47 q 565 104 513 47 q 618 264 618 161 l 618 750 q 617 783 618 768 l 246 135 q 417 47 296 47 z "},"Ǿ":{"ha":833,"x_min":69,"x_max":764,"o":"m 69 -56 l 174 128 q 146 264 146 188 l 146 750 q 220 952 146 876 q 417 1028 294 1028 q 542 1002 488 1028 q 633 929 597 976 l 697 1042 l 764 1042 l 665 871 q 688 750 688 817 l 688 264 q 614 62 688 138 q 417 -14 540 -14 q 210 72 283 -14 l 136 -56 l 69 -56 m 215 264 q 219 207 215 233 l 596 864 q 417 967 547 967 q 269 910 322 967 q 215 750 215 853 l 215 264 m 417 47 q 565 104 513 47 q 618 264 618 161 l 618 750 q 617 783 618 768 l 246 135 q 417 47 296 47 m 367 1125 l 514 1319 l 596 1319 l 440 1125 l 367 1125 z "},"Õ":{"ha":833,"x_min":146,"x_max":688,"o":"m 417 -14 q 220 62 294 -14 q 146 264 146 138 l 146 750 q 220 952 146 876 q 417 1028 294 1028 q 614 952 540 1028 q 688 750 688 876 l 688 264 q 614 62 688 138 q 417 -14 540 -14 m 417 47 q 565 104 513 47 q 618 264 618 161 l 618 750 q 565 910 618 853 q 417 967 511 967 q 269 910 322 967 q 215 750 215 853 l 215 264 q 268 104 215 161 q 417 47 321 47 m 521 1132 q 455 1151 482 1132 q 407 1195 428 1169 q 365 1240 386 1221 q 319 1258 344 1258 q 269 1239 288 1258 q 250 1188 250 1219 l 250 1139 l 194 1139 l 194 1188 q 228 1279 194 1246 q 319 1313 261 1313 q 385 1294 358 1313 q 433 1249 413 1275 q 475 1205 454 1224 q 521 1186 496 1186 q 567 1206 550 1186 q 583 1257 583 1225 l 583 1306 l 639 1306 l 639 1257 q 608 1165 639 1199 q 521 1132 576 1132 z "},"Œ":{"ha":833,"x_min":56,"x_max":790,"o":"m 272 -14 q 160 19 210 -14 q 83 109 111 51 q 56 240 56 167 l 56 774 q 83 906 56 849 q 160 995 111 963 q 272 1028 210 1028 q 355 1008 321 1028 q 410 959 389 988 q 438 903 431 931 l 444 903 l 444 1014 l 790 1014 l 790 944 l 521 944 l 521 558 l 740 558 l 740 489 l 521 489 l 521 69 l 790 69 l 790 0 l 444 0 l 444 111 l 438 111 q 410 56 431 85 q 355 6 389 26 q 272 -14 321 -14 m 288 56 q 401 106 357 56 q 444 240 444 156 l 444 774 q 401 908 444 858 q 288 958 357 958 q 175 907 218 958 q 132 774 132 856 l 132 240 q 175 107 132 158 q 288 56 218 56 z "},"P":{"ha":833,"x_min":153,"x_max":743,"o":"m 153 0 l 153 1014 l 451 1014 q 664 937 585 1014 q 743 732 743 860 q 663 527 743 604 q 451 450 583 450 l 222 450 l 222 0 l 153 0 m 222 514 l 451 514 q 613 573 553 514 q 674 732 674 632 q 614 892 674 833 q 451 950 554 950 l 222 950 l 222 514 z "},"Þ":{"ha":833,"x_min":146,"x_max":736,"o":"m 146 0 l 146 1014 l 215 1014 l 215 785 l 463 785 q 663 716 589 785 q 736 528 736 647 q 663 340 736 410 q 463 271 589 271 l 215 271 l 215 0 l 146 0 m 215 335 l 463 335 q 612 387 557 335 q 667 528 667 439 q 612 670 667 618 q 463 722 557 722 l 215 722 l 215 335 z "},"Q":{"ha":833,"x_min":146,"x_max":708,"o":"m 624 -250 l 476 -10 q 449 -12 464 -11 q 418 -14 433 -14 q 220 62 294 -14 q 146 264 146 138 l 146 750 q 219 953 146 878 q 418 1028 293 1028 q 562 992 501 1028 q 655 893 622 956 q 688 750 688 831 l 688 264 q 651 111 688 176 q 549 14 615 46 l 708 -250 l 624 -250 m 418 49 q 565 106 513 49 q 618 264 618 163 l 618 750 q 565 908 618 851 q 418 965 513 965 q 269 909 322 965 q 215 750 215 853 l 215 264 q 269 106 215 163 q 418 49 322 49 z "},"R":{"ha":833,"x_min":153,"x_max":736,"o":"m 153 0 l 153 1014 l 438 1014 q 651 938 572 1014 q 729 733 729 863 q 667 550 729 624 q 499 461 606 476 l 736 0 l 653 0 l 424 458 l 222 458 l 222 0 l 153 0 m 222 521 l 438 521 q 599 580 539 521 q 660 736 660 639 q 599 892 660 835 q 438 950 539 950 l 222 950 l 222 521 z "},"Ŕ":{"ha":833,"x_min":153,"x_max":736,"o":"m 153 0 l 153 1014 l 438 1014 q 651 938 572 1014 q 729 733 729 863 q 667 550 729 624 q 499 461 606 476 l 736 0 l 653 0 l 424 458 l 222 458 l 222 0 l 153 0 m 222 521 l 438 521 q 599 580 539 521 q 660 736 660 639 q 599 892 660 835 q 438 950 539 950 l 222 950 l 222 521 m 367 1125 l 514 1319 l 596 1319 l 440 1125 l 367 1125 z "},"Ř":{"ha":833,"x_min":153,"x_max":736,"o":"m 153 0 l 153 1014 l 438 1014 q 651 938 572 1014 q 729 733 729 863 q 667 550 729 624 q 499 461 606 476 l 736 0 l 653 0 l 424 458 l 222 458 l 222 0 l 153 0 m 222 521 l 438 521 q 599 580 539 521 q 660 736 660 639 q 599 892 660 835 q 438 950 539 950 l 222 950 l 222 521 m 375 1125 l 208 1319 l 279 1319 l 419 1168 l 558 1319 l 625 1319 l 458 1125 l 375 1125 z "},"Ŗ":{"ha":833,"x_min":153,"x_max":736,"o":"m 153 0 l 153 1014 l 438 1014 q 651 938 572 1014 q 729 733 729 863 q 667 550 729 624 q 499 461 606 476 l 736 0 l 653 0 l 424 458 l 222 458 l 222 0 l 153 0 m 222 521 l 438 521 q 599 580 539 521 q 660 736 660 639 q 599 892 660 835 q 438 950 539 950 l 222 950 l 222 521 m 299 -333 l 424 -132 l 514 -132 l 368 -333 l 299 -333 z "},"S":{"ha":833,"x_min":118,"x_max":715,"o":"m 424 -14 q 201 60 283 -14 q 118 257 118 133 l 188 257 q 252 106 188 163 q 424 49 317 49 q 587 101 528 49 q 646 246 646 153 q 600 386 646 326 q 475 469 554 446 l 358 504 q 202 606 258 535 q 146 776 146 678 q 222 960 146 892 q 425 1028 297 1028 q 627 956 553 1028 q 701 761 701 885 l 632 761 q 575 910 632 854 q 424 965 518 965 q 271 917 326 965 q 215 782 215 868 q 258 651 215 707 q 375 571 301 594 l 492 535 q 655 426 594 503 q 715 250 715 350 q 637 58 715 129 q 424 -14 558 -14 z "},"Ś":{"ha":833,"x_min":118,"x_max":715,"o":"m 424 -14 q 201 60 283 -14 q 118 257 118 133 l 188 257 q 252 106 188 163 q 424 49 317 49 q 587 101 528 49 q 646 246 646 153 q 600 386 646 326 q 475 469 554 446 l 358 504 q 202 606 258 535 q 146 776 146 678 q 222 960 146 892 q 425 1028 297 1028 q 627 956 553 1028 q 701 761 701 885 l 632 761 q 575 910 632 854 q 424 965 518 965 q 271 917 326 965 q 215 782 215 868 q 258 651 215 707 q 375 571 301 594 l 492 535 q 655 426 594 503 q 715 250 715 350 q 637 58 715 129 q 424 -14 558 -14 m 367 1125 l 514 1319 l 596 1319 l 440 1125 l 367 1125 z "},"Š":{"ha":833,"x_min":118,"x_max":715,"o":"m 424 -14 q 201 60 283 -14 q 118 257 118 133 l 188 257 q 252 106 188 163 q 424 49 317 49 q 587 101 528 49 q 646 246 646 153 q 600 386 646 326 q 475 469 554 446 l 358 504 q 202 606 258 535 q 146 776 146 678 q 222 960 146 892 q 425 1028 297 1028 q 627 956 553 1028 q 701 761 701 885 l 632 761 q 575 910 632 854 q 424 965 518 965 q 271 917 326 965 q 215 782 215 868 q 258 651 215 707 q 375 571 301 594 l 492 535 q 655 426 594 503 q 715 250 715 350 q 637 58 715 129 q 424 -14 558 -14 m 375 1125 l 208 1319 l 279 1319 l 419 1168 l 558 1319 l 625 1319 l 458 1125 l 375 1125 z "},"Ş":{"ha":833,"x_min":118,"x_max":715,"o":"m 326 -271 l 326 -222 l 438 -222 q 492 -204 471 -222 q 513 -164 513 -186 q 467 -110 513 -131 q 349 -89 422 -89 l 379 -11 q 188 72 258 0 q 118 257 118 143 l 188 257 q 252 106 188 163 q 424 49 317 49 q 587 101 528 49 q 646 246 646 153 q 600 386 646 326 q 475 469 554 446 l 358 504 q 202 606 258 535 q 146 776 146 678 q 222 960 146 892 q 425 1028 297 1028 q 627 956 553 1028 q 701 761 701 885 l 632 761 q 575 910 632 854 q 424 965 518 965 q 271 917 326 965 q 215 782 215 868 q 258 651 215 707 q 375 571 301 594 l 492 535 q 655 426 594 503 q 715 250 715 350 q 640 61 715 132 q 436 -14 565 -10 l 424 -47 q 492 -61 457 -49 q 552 -99 528 -74 q 576 -164 576 -124 q 538 -240 576 -208 q 438 -271 500 -271 l 326 -271 z "},"Ŝ":{"ha":833,"x_min":118,"x_max":715,"o":"m 424 -14 q 201 60 283 -14 q 118 257 118 133 l 188 257 q 252 106 188 163 q 424 49 317 49 q 587 101 528 49 q 646 246 646 153 q 600 386 646 326 q 475 469 554 446 l 358 504 q 202 606 258 535 q 146 776 146 678 q 222 960 146 892 q 425 1028 297 1028 q 627 956 553 1028 q 701 761 701 885 l 632 761 q 575 910 632 854 q 424 965 518 965 q 271 917 326 965 q 215 782 215 868 q 258 651 215 707 q 375 571 301 594 l 492 535 q 655 426 594 503 q 715 250 715 350 q 637 58 715 129 q 424 -14 558 -14 m 208 1125 l 375 1319 l 458 1319 l 625 1125 l 557 1125 l 417 1276 l 279 1125 l 208 1125 z "},"Ș":{"ha":833,"x_min":118,"x_max":715,"o":"m 424 -14 q 201 60 283 -14 q 118 257 118 133 l 188 257 q 252 106 188 163 q 424 49 317 49 q 587 101 528 49 q 646 246 646 153 q 600 386 646 326 q 475 469 554 446 l 358 504 q 202 606 258 535 q 146 776 146 678 q 222 960 146 892 q 425 1028 297 1028 q 627 956 553 1028 q 701 761 701 885 l 632 761 q 575 910 632 854 q 424 965 518 965 q 271 917 326 965 q 215 782 215 868 q 258 651 215 707 q 375 571 301 594 l 492 535 q 655 426 594 503 q 715 250 715 350 q 637 58 715 129 q 424 -14 558 -14 m 299 -333 l 424 -132 l 514 -132 l 368 -333 l 299 -333 z "},"ẞ":{"ha":833,"x_min":153,"x_max":722,"o":"m 153 0 l 153 754 q 227 944 153 874 q 424 1014 301 1014 l 718 1014 l 718 950 l 439 565 q 646 488 569 563 q 722 292 722 414 q 643 79 722 158 q 431 0 564 0 l 344 0 l 344 63 l 431 63 q 592 124 532 63 q 653 289 653 186 q 592 451 653 390 q 431 511 532 511 l 375 511 l 375 571 l 647 951 l 424 951 q 277 898 332 951 q 222 754 222 844 l 222 0 l 153 0 z "},"Ə":{"ha":833,"x_min":146,"x_max":688,"o":"m 415 -14 q 217 62 289 -14 q 146 264 146 138 l 146 525 l 618 525 l 618 750 q 565 908 618 850 q 415 965 513 965 q 266 904 317 965 q 215 736 215 843 l 146 736 q 216 949 146 869 q 415 1028 286 1028 q 615 953 543 1028 q 688 750 688 878 l 688 264 q 615 62 688 138 q 415 -14 543 -14 m 415 47 q 566 105 514 47 q 618 264 618 163 l 618 465 l 215 465 l 215 264 q 267 106 215 164 q 415 47 319 47 z "},"T":{"ha":833,"x_min":83,"x_max":750,"o":"m 383 0 l 383 951 l 83 951 l 83 1014 l 750 1014 l 750 951 l 453 951 l 453 0 l 383 0 z "},"Ŧ":{"ha":833,"x_min":83,"x_max":750,"o":"m 383 0 l 383 431 l 167 431 l 167 493 l 383 493 l 383 951 l 83 951 l 83 1014 l 750 1014 l 750 951 l 453 951 l 453 493 l 667 493 l 667 431 l 453 431 l 453 0 l 383 0 z "},"Ť":{"ha":833,"x_min":83,"x_max":750,"o":"m 383 0 l 383 951 l 83 951 l 83 1014 l 750 1014 l 750 951 l 453 951 l 453 0 l 383 0 m 375 1125 l 208 1319 l 279 1319 l 419 1168 l 558 1319 l 625 1319 l 458 1125 l 375 1125 z "},"Ţ":{"ha":833,"x_min":83,"x_max":750,"o":"m 383 0 l 383 951 l 83 951 l 83 1014 l 750 1014 l 750 951 l 453 951 l 453 0 l 435 -47 q 503 -61 468 -49 q 563 -99 539 -74 q 588 -164 588 -124 q 549 -240 588 -208 q 449 -271 511 -271 l 338 -271 l 338 -222 l 449 -222 q 503 -204 482 -222 q 524 -164 524 -186 q 478 -110 524 -131 q 360 -89 433 -89 l 394 0 l 383 0 z "},"Ț":{"ha":833,"x_min":83,"x_max":750,"o":"m 383 0 l 383 951 l 83 951 l 83 1014 l 750 1014 l 750 951 l 453 951 l 453 0 l 383 0 m 299 -333 l 424 -132 l 514 -132 l 368 -333 l 299 -333 z "},"U":{"ha":833,"x_min":150,"x_max":683,"o":"m 418 -14 q 223 62 296 -14 q 150 264 150 138 l 150 1014 l 219 1014 l 219 264 q 272 106 219 163 q 418 49 325 49 q 563 106 511 49 q 614 264 614 163 l 614 1014 l 683 1014 l 683 264 q 611 62 683 138 q 418 -14 539 -14 z "},"Ú":{"ha":833,"x_min":150,"x_max":683,"o":"m 418 -14 q 223 62 296 -14 q 150 264 150 138 l 150 1014 l 219 1014 l 219 264 q 272 106 219 163 q 418 49 325 49 q 563 106 511 49 q 614 264 614 163 l 614 1014 l 683 1014 l 683 264 q 611 62 683 138 q 418 -14 539 -14 m 367 1125 l 514 1319 l 596 1319 l 440 1125 l 367 1125 z "},"Ŭ":{"ha":833,"x_min":150,"x_max":683,"o":"m 418 -14 q 223 62 296 -14 q 150 264 150 138 l 150 1014 l 219 1014 l 219 264 q 272 106 219 163 q 418 49 325 49 q 563 106 511 49 q 614 264 614 163 l 614 1014 l 683 1014 l 683 264 q 611 62 683 138 q 418 -14 539 -14 m 417 1122 q 269 1176 324 1122 q 215 1319 215 1229 l 278 1319 q 315 1216 278 1254 q 415 1178 351 1178 q 518 1216 481 1178 q 556 1319 556 1254 l 618 1319 q 564 1176 618 1229 q 417 1122 510 1122 z "},"Û":{"ha":833,"x_min":150,"x_max":683,"o":"m 418 -14 q 223 62 296 -14 q 150 264 150 138 l 150 1014 l 219 1014 l 219 264 q 272 106 219 163 q 418 49 325 49 q 563 106 511 49 q 614 264 614 163 l 614 1014 l 683 1014 l 683 264 q 611 62 683 138 q 418 -14 539 -14 m 208 1125 l 375 1319 l 458 1319 l 625 1125 l 557 1125 l 417 1276 l 279 1125 l 208 1125 z "},"Ü":{"ha":833,"x_min":150,"x_max":683,"o":"m 418 -14 q 223 62 296 -14 q 150 264 150 138 l 150 1014 l 219 1014 l 219 264 q 272 106 219 163 q 418 49 325 49 q 563 106 511 49 q 614 264 614 163 l 614 1014 l 683 1014 l 683 264 q 611 62 683 138 q 418 -14 539 -14 m 569 1146 q 516 1167 536 1146 q 496 1222 496 1188 q 516 1278 496 1257 q 569 1299 536 1299 q 621 1278 601 1299 q 640 1222 640 1257 q 621 1167 640 1188 q 569 1146 601 1146 m 271 1146 q 219 1167 239 1146 q 199 1222 199 1188 q 219 1278 199 1257 q 271 1299 239 1299 q 323 1278 303 1299 q 343 1222 343 1257 q 323 1167 343 1188 q 271 1146 303 1146 z "},"Ụ":{"ha":833,"x_min":150,"x_max":683,"o":"m 418 -14 q 223 62 296 -14 q 150 264 150 138 l 150 1014 l 219 1014 l 219 264 q 272 106 219 163 q 418 49 325 49 q 563 106 511 49 q 614 264 614 163 l 614 1014 l 683 1014 l 683 264 q 611 62 683 138 q 418 -14 539 -14 m 417 -285 q 358 -264 381 -285 q 336 -208 336 -243 q 358 -153 336 -174 q 417 -132 381 -132 q 475 -153 453 -132 q 497 -208 497 -174 q 475 -264 497 -243 q 417 -285 453 -285 z "},"Ù":{"ha":833,"x_min":150,"x_max":683,"o":"m 418 -14 q 223 62 296 -14 q 150 264 150 138 l 150 1014 l 219 1014 l 219 264 q 272 106 219 163 q 418 49 325 49 q 563 106 511 49 q 614 264 614 163 l 614 1014 l 683 1014 l 683 264 q 611 62 683 138 q 418 -14 539 -14 m 393 1125 l 238 1319 l 322 1319 l 469 1125 l 393 1125 z "},"Ủ":{"ha":833,"x_min":150,"x_max":683,"o":"m 418 -14 q 223 62 296 -14 q 150 264 150 138 l 150 1014 l 219 1014 l 219 264 q 272 106 219 163 q 418 49 325 49 q 563 106 511 49 q 614 264 614 163 l 614 1014 l 683 1014 l 683 264 q 611 62 683 138 q 418 -14 539 -14 m 381 1111 l 458 1217 q 482 1267 482 1250 q 431 1306 482 1306 l 308 1306 l 308 1354 l 431 1354 q 508 1332 479 1354 q 538 1272 538 1310 q 511 1199 538 1236 l 449 1111 l 381 1111 z "},"Ư":{"ha":833,"x_min":150,"x_max":850,"o":"m 418 -14 q 223 62 296 -14 q 150 264 150 138 l 150 1014 l 219 1014 l 219 264 q 272 106 219 163 q 418 49 325 49 q 563 106 511 49 q 614 264 614 163 l 614 1014 l 732 1014 q 777 1033 760 1014 q 794 1083 794 1053 l 794 1167 l 850 1167 l 850 1083 q 817 998 850 1031 q 732 965 785 965 l 683 965 l 683 264 q 611 62 683 138 q 418 -14 539 -14 z "},"Ứ":{"ha":833,"x_min":150,"x_max":850,"o":"m 418 -14 q 223 62 296 -14 q 150 264 150 138 l 150 1014 l 219 1014 l 219 264 q 272 106 219 163 q 418 49 325 49 q 563 106 511 49 q 614 264 614 163 l 614 1014 l 732 1014 q 777 1033 760 1014 q 794 1083 794 1053 l 794 1167 l 850 1167 l 850 1083 q 817 998 850 1031 q 732 965 785 965 l 683 965 l 683 264 q 611 62 683 138 q 418 -14 539 -14 m 367 1125 l 514 1319 l 596 1319 l 440 1125 l 367 1125 z "},"Ự":{"ha":833,"x_min":150,"x_max":850,"o":"m 418 -14 q 223 62 296 -14 q 150 264 150 138 l 150 1014 l 219 1014 l 219 264 q 272 106 219 163 q 418 49 325 49 q 563 106 511 49 q 614 264 614 163 l 614 1014 l 732 1014 q 777 1033 760 1014 q 794 1083 794 1053 l 794 1167 l 850 1167 l 850 1083 q 817 998 850 1031 q 732 965 785 965 l 683 965 l 683 264 q 611 62 683 138 q 418 -14 539 -14 m 417 -285 q 358 -264 381 -285 q 336 -208 336 -243 q 358 -153 336 -174 q 417 -132 381 -132 q 475 -153 453 -132 q 497 -208 497 -174 q 475 -264 497 -243 q 417 -285 453 -285 z "},"Ừ":{"ha":833,"x_min":150,"x_max":850,"o":"m 418 -14 q 223 62 296 -14 q 150 264 150 138 l 150 1014 l 219 1014 l 219 264 q 272 106 219 163 q 418 49 325 49 q 563 106 511 49 q 614 264 614 163 l 614 1014 l 732 1014 q 777 1033 760 1014 q 794 1083 794 1053 l 794 1167 l 850 1167 l 850 1083 q 817 998 850 1031 q 732 965 785 965 l 683 965 l 683 264 q 611 62 683 138 q 418 -14 539 -14 m 393 1125 l 238 1319 l 322 1319 l 469 1125 l 393 1125 z "},"Ử":{"ha":833,"x_min":150,"x_max":850,"o":"m 418 -14 q 223 62 296 -14 q 150 264 150 138 l 150 1014 l 219 1014 l 219 264 q 272 106 219 163 q 418 49 325 49 q 563 106 511 49 q 614 264 614 163 l 614 1014 l 732 1014 q 777 1033 760 1014 q 794 1083 794 1053 l 794 1167 l 850 1167 l 850 1083 q 817 998 850 1031 q 732 965 785 965 l 683 965 l 683 264 q 611 62 683 138 q 418 -14 539 -14 m 381 1111 l 458 1217 q 482 1267 482 1250 q 431 1306 482 1306 l 308 1306 l 308 1354 l 431 1354 q 508 1332 479 1354 q 538 1272 538 1310 q 511 1199 538 1236 l 449 1111 l 381 1111 z "},"Ữ":{"ha":833,"x_min":150,"x_max":850,"o":"m 418 -14 q 223 62 296 -14 q 150 264 150 138 l 150 1014 l 219 1014 l 219 264 q 272 106 219 163 q 418 49 325 49 q 563 106 511 49 q 614 264 614 163 l 614 1014 l 732 1014 q 777 1033 760 1014 q 794 1083 794 1053 l 794 1167 l 850 1167 l 850 1083 q 817 998 850 1031 q 732 965 785 965 l 683 965 l 683 264 q 611 62 683 138 q 418 -14 539 -14 m 521 1132 q 455 1151 482 1132 q 407 1195 428 1169 q 365 1240 386 1221 q 319 1258 344 1258 q 269 1239 288 1258 q 250 1188 250 1219 l 250 1139 l 194 1139 l 194 1188 q 228 1279 194 1246 q 319 1313 261 1313 q 385 1294 358 1313 q 433 1249 413 1275 q 475 1205 454 1224 q 521 1186 496 1186 q 567 1206 550 1186 q 583 1257 583 1225 l 583 1306 l 639 1306 l 639 1257 q 608 1165 639 1199 q 521 1132 576 1132 z "},"Ű":{"ha":833,"x_min":150,"x_max":693,"o":"m 418 -14 q 223 62 296 -14 q 150 264 150 138 l 150 1014 l 219 1014 l 219 264 q 272 106 219 163 q 418 49 325 49 q 563 106 511 49 q 614 264 614 163 l 614 1014 l 683 1014 l 683 264 q 611 62 683 138 q 418 -14 539 -14 m 465 1125 l 613 1319 l 693 1319 l 538 1125 l 465 1125 m 244 1125 l 392 1319 l 472 1319 l 317 1125 l 244 1125 z "},"Ū":{"ha":833,"x_min":150,"x_max":683,"o":"m 418 -14 q 223 62 296 -14 q 150 264 150 138 l 150 1014 l 219 1014 l 219 264 q 272 106 219 163 q 418 49 325 49 q 563 106 511 49 q 614 264 614 163 l 614 1014 l 683 1014 l 683 264 q 611 62 683 138 q 418 -14 539 -14 m 222 1186 l 222 1246 l 611 1246 l 611 1186 l 222 1186 z "},"Ų":{"ha":833,"x_min":150,"x_max":683,"o":"m 513 -271 q 422 -241 456 -271 q 389 -160 389 -211 q 411 -83 389 -124 q 472 -8 433 -43 q 444 -12 461 -11 q 417 -14 428 -14 q 222 62 294 -14 q 150 264 150 138 l 150 1014 l 219 1014 l 219 264 q 270 104 219 161 q 417 47 321 47 q 563 104 513 47 q 614 264 614 161 l 614 1014 l 683 1014 l 683 264 q 551 14 683 89 l 539 3 q 476 -74 499 -33 q 454 -143 454 -114 q 473 -194 454 -175 q 525 -212 492 -212 l 614 -212 l 614 -271 l 513 -271 z "},"Ů":{"ha":833,"x_min":150,"x_max":683,"o":"m 418 -14 q 223 62 296 -14 q 150 264 150 138 l 150 1014 l 219 1014 l 219 264 q 272 106 219 163 q 418 49 325 49 q 563 106 511 49 q 614 264 614 163 l 614 1014 l 683 1014 l 683 264 q 611 62 683 138 q 418 -14 539 -14 m 418 1083 q 312 1122 353 1083 q 271 1222 271 1160 q 312 1323 271 1285 q 418 1361 353 1361 q 523 1323 483 1361 q 563 1222 563 1285 q 523 1122 563 1160 q 418 1083 483 1083 m 417 1132 q 482 1157 457 1132 q 507 1222 507 1182 q 482 1288 507 1263 q 417 1313 457 1313 q 351 1288 376 1313 q 326 1222 326 1263 q 351 1157 326 1182 q 417 1132 376 1132 z "},"Ũ":{"ha":833,"x_min":150,"x_max":683,"o":"m 418 -14 q 223 62 296 -14 q 150 264 150 138 l 150 1014 l 219 1014 l 219 264 q 272 106 219 163 q 418 49 325 49 q 563 106 511 49 q 614 264 614 163 l 614 1014 l 683 1014 l 683 264 q 611 62 683 138 q 418 -14 539 -14 m 521 1132 q 455 1151 482 1132 q 407 1195 428 1169 q 365 1240 386 1221 q 319 1258 344 1258 q 269 1239 288 1258 q 250 1188 250 1219 l 250 1139 l 194 1139 l 194 1188 q 228 1279 194 1246 q 319 1313 261 1313 q 385 1294 358 1313 q 433 1249 413 1275 q 475 1205 454 1224 q 521 1186 496 1186 q 567 1206 550 1186 q 583 1257 583 1225 l 583 1306 l 639 1306 l 639 1257 q 608 1165 639 1199 q 521 1132 576 1132 z "},"V":{"ha":833,"x_min":94,"x_max":739,"o":"m 372 0 l 94 1014 l 168 1014 l 374 250 q 401 137 390 190 q 418 56 413 83 q 435 137 424 83 q 464 250 447 190 l 671 1014 l 739 1014 l 461 0 l 372 0 z "},"W":{"ha":833,"x_min":56,"x_max":778,"o":"m 181 0 l 56 1014 l 119 1014 l 214 264 q 222 200 217 239 q 231 121 226 161 q 239 49 236 81 q 249 121 243 81 q 260 200 254 161 q 269 264 267 239 l 376 1014 l 465 1014 l 568 264 q 577 200 572 239 q 588 121 582 161 q 597 49 593 81 q 607 121 601 81 q 618 200 613 161 q 626 264 624 239 l 713 1014 l 778 1014 l 651 0 l 551 0 l 450 736 q 435 853 443 789 q 421 958 426 918 q 406 855 415 919 q 389 736 396 790 l 278 0 l 181 0 z "},"Ẃ":{"ha":833,"x_min":56,"x_max":778,"o":"m 181 0 l 56 1014 l 119 1014 l 214 264 q 222 200 217 239 q 231 121 226 161 q 239 49 236 81 q 249 121 243 81 q 260 200 254 161 q 269 264 267 239 l 376 1014 l 465 1014 l 568 264 q 577 200 572 239 q 588 121 582 161 q 597 49 593 81 q 607 121 601 81 q 618 200 613 161 q 626 264 624 239 l 713 1014 l 778 1014 l 651 0 l 551 0 l 450 736 q 435 853 443 789 q 421 958 426 918 q 406 855 415 919 q 389 736 396 790 l 278 0 l 181 0 m 367 1125 l 514 1319 l 596 1319 l 440 1125 l 367 1125 z "},"Ŵ":{"ha":833,"x_min":56,"x_max":778,"o":"m 181 0 l 56 1014 l 119 1014 l 214 264 q 222 200 217 239 q 231 121 226 161 q 239 49 236 81 q 249 121 243 81 q 260 200 254 161 q 269 264 267 239 l 376 1014 l 465 1014 l 568 264 q 577 200 572 239 q 588 121 582 161 q 597 49 593 81 q 607 121 601 81 q 618 200 613 161 q 626 264 624 239 l 713 1014 l 778 1014 l 651 0 l 551 0 l 450 736 q 435 853 443 789 q 421 958 426 918 q 406 855 415 919 q 389 736 396 790 l 278 0 l 181 0 m 208 1125 l 375 1319 l 458 1319 l 625 1125 l 557 1125 l 417 1276 l 279 1125 l 208 1125 z "},"Ẅ":{"ha":833,"x_min":56,"x_max":778,"o":"m 181 0 l 56 1014 l 119 1014 l 214 264 q 222 200 217 239 q 231 121 226 161 q 239 49 236 81 q 249 121 243 81 q 260 200 254 161 q 269 264 267 239 l 376 1014 l 465 1014 l 568 264 q 577 200 572 239 q 588 121 582 161 q 597 49 593 81 q 607 121 601 81 q 618 200 613 161 q 626 264 624 239 l 713 1014 l 778 1014 l 651 0 l 551 0 l 450 736 q 435 853 443 789 q 421 958 426 918 q 406 855 415 919 q 389 736 396 790 l 278 0 l 181 0 m 569 1146 q 516 1167 536 1146 q 496 1222 496 1188 q 516 1278 496 1257 q 569 1299 536 1299 q 621 1278 601 1299 q 640 1222 640 1257 q 621 1167 640 1188 q 569 1146 601 1146 m 271 1146 q 219 1167 239 1146 q 199 1222 199 1188 q 219 1278 199 1257 q 271 1299 239 1299 q 323 1278 303 1299 q 343 1222 343 1257 q 323 1167 343 1188 q 271 1146 303 1146 z "},"Ẁ":{"ha":833,"x_min":56,"x_max":778,"o":"m 181 0 l 56 1014 l 119 1014 l 214 264 q 222 200 217 239 q 231 121 226 161 q 239 49 236 81 q 249 121 243 81 q 260 200 254 161 q 269 264 267 239 l 376 1014 l 465 1014 l 568 264 q 577 200 572 239 q 588 121 582 161 q 597 49 593 81 q 607 121 601 81 q 618 200 613 161 q 626 264 624 239 l 713 1014 l 778 1014 l 651 0 l 551 0 l 450 736 q 435 853 443 789 q 421 958 426 918 q 406 855 415 919 q 389 736 396 790 l 278 0 l 181 0 m 393 1125 l 238 1319 l 322 1319 l 469 1125 l 393 1125 z "},"X":{"ha":833,"x_min":74,"x_max":760,"o":"m 74 0 l 375 528 l 94 1014 l 172 1014 l 342 706 q 377 643 354 682 q 417 576 400 604 q 455 643 432 604 q 492 706 478 682 l 664 1014 l 739 1014 l 458 531 l 760 0 l 682 0 l 493 350 q 458 411 481 372 q 418 479 435 450 q 379 411 401 450 q 344 350 357 372 l 150 0 l 74 0 z "},"Y":{"ha":833,"x_min":69,"x_max":764,"o":"m 382 0 l 382 389 l 69 1014 l 142 1014 l 371 556 q 399 499 386 525 q 418 458 413 472 q 438 498 425 471 q 465 556 450 525 l 692 1014 l 764 1014 l 451 389 l 451 0 l 382 0 z "},"Ý":{"ha":833,"x_min":69,"x_max":764,"o":"m 382 0 l 382 389 l 69 1014 l 142 1014 l 371 556 q 399 499 386 525 q 418 458 413 472 q 438 498 425 471 q 465 556 450 525 l 692 1014 l 764 1014 l 451 389 l 451 0 l 382 0 m 367 1125 l 514 1319 l 596 1319 l 440 1125 l 367 1125 z "},"Ŷ":{"ha":833,"x_min":69,"x_max":764,"o":"m 382 0 l 382 389 l 69 1014 l 142 1014 l 371 556 q 399 499 386 525 q 418 458 413 472 q 438 498 425 471 q 465 556 450 525 l 692 1014 l 764 1014 l 451 389 l 451 0 l 382 0 m 208 1125 l 375 1319 l 458 1319 l 625 1125 l 557 1125 l 417 1276 l 279 1125 l 208 1125 z "},"Ÿ":{"ha":833,"x_min":69,"x_max":764,"o":"m 382 0 l 382 389 l 69 1014 l 142 1014 l 371 556 q 399 499 386 525 q 418 458 413 472 q 438 498 425 471 q 465 556 450 525 l 692 1014 l 764 1014 l 451 389 l 451 0 l 382 0 m 569 1146 q 516 1167 536 1146 q 496 1222 496 1188 q 516 1278 496 1257 q 569 1299 536 1299 q 621 1278 601 1299 q 640 1222 640 1257 q 621 1167 640 1188 q 569 1146 601 1146 m 271 1146 q 219 1167 239 1146 q 199 1222 199 1188 q 219 1278 199 1257 q 271 1299 239 1299 q 323 1278 303 1299 q 343 1222 343 1257 q 323 1167 343 1188 q 271 1146 303 1146 z "},"Ỵ":{"ha":833,"x_min":69,"x_max":764,"o":"m 382 0 l 382 389 l 69 1014 l 142 1014 l 371 556 q 399 499 386 525 q 418 458 413 472 q 438 498 425 471 q 465 556 450 525 l 692 1014 l 764 1014 l 451 389 l 451 0 l 382 0 m 417 -285 q 358 -264 381 -285 q 336 -208 336 -243 q 358 -153 336 -174 q 417 -132 381 -132 q 475 -153 453 -132 q 497 -208 497 -174 q 475 -264 497 -243 q 417 -285 453 -285 z "},"Ỳ":{"ha":833,"x_min":69,"x_max":764,"o":"m 382 0 l 382 389 l 69 1014 l 142 1014 l 371 556 q 399 499 386 525 q 418 458 413 472 q 438 498 425 471 q 465 556 450 525 l 692 1014 l 764 1014 l 451 389 l 451 0 l 382 0 m 393 1125 l 238 1319 l 322 1319 l 469 1125 l 393 1125 z "},"Ỷ":{"ha":833,"x_min":69,"x_max":764,"o":"m 382 0 l 382 389 l 69 1014 l 142 1014 l 371 556 q 399 499 386 525 q 418 458 413 472 q 438 498 425 471 q 465 556 450 525 l 692 1014 l 764 1014 l 451 389 l 451 0 l 382 0 m 381 1111 l 458 1217 q 482 1267 482 1250 q 431 1306 482 1306 l 308 1306 l 308 1354 l 431 1354 q 508 1332 479 1354 q 538 1272 538 1310 q 511 1199 538 1236 l 449 1111 l 381 1111 z "},"Ȳ":{"ha":833,"x_min":69,"x_max":764,"o":"m 382 0 l 382 389 l 69 1014 l 142 1014 l 371 556 q 399 499 386 525 q 418 458 413 472 q 438 498 425 471 q 465 556 450 525 l 692 1014 l 764 1014 l 451 389 l 451 0 l 382 0 m 222 1186 l 222 1246 l 611 1246 l 611 1186 l 222 1186 z "},"Ỹ":{"ha":833,"x_min":69,"x_max":764,"o":"m 382 0 l 382 389 l 69 1014 l 142 1014 l 371 556 q 399 499 386 525 q 418 458 413 472 q 438 498 425 471 q 465 556 450 525 l 692 1014 l 764 1014 l 451 389 l 451 0 l 382 0 m 521 1132 q 455 1151 482 1132 q 407 1195 428 1169 q 365 1240 386 1221 q 319 1258 344 1258 q 269 1239 288 1258 q 250 1188 250 1219 l 250 1139 l 194 1139 l 194 1188 q 228 1279 194 1246 q 319 1313 261 1313 q 385 1294 358 1313 q 433 1249 413 1275 q 475 1205 454 1224 q 521 1186 496 1186 q 567 1206 550 1186 q 583 1257 583 1225 l 583 1306 l 639 1306 l 639 1257 q 608 1165 639 1199 q 521 1132 576 1132 z "},"Z":{"ha":833,"x_min":125,"x_max":708,"o":"m 125 0 l 125 69 l 624 950 l 131 950 l 131 1014 l 690 1014 l 690 935 l 196 64 l 708 64 l 708 0 l 125 0 z "},"Ź":{"ha":833,"x_min":125,"x_max":708,"o":"m 125 0 l 125 69 l 624 950 l 131 950 l 131 1014 l 690 1014 l 690 935 l 196 64 l 708 64 l 708 0 l 125 0 m 367 1125 l 514 1319 l 596 1319 l 440 1125 l 367 1125 z "},"Ž":{"ha":833,"x_min":125,"x_max":708,"o":"m 125 0 l 125 69 l 624 950 l 131 950 l 131 1014 l 690 1014 l 690 935 l 196 64 l 708 64 l 708 0 l 125 0 m 375 1125 l 208 1319 l 279 1319 l 419 1168 l 558 1319 l 625 1319 l 458 1125 l 375 1125 z "},"Ż":{"ha":833,"x_min":125,"x_max":708,"o":"m 125 0 l 125 69 l 624 950 l 131 950 l 131 1014 l 690 1014 l 690 935 l 196 64 l 708 64 l 708 0 l 125 0 m 417 1146 q 358 1167 381 1146 q 336 1222 336 1188 q 358 1278 336 1257 q 417 1299 381 1299 q 475 1278 453 1299 q 497 1222 497 1257 q 475 1167 497 1188 q 417 1146 453 1146 z "},"a":{"ha":833,"x_min":114,"x_max":683,"o":"m 374 -14 q 185 49 256 -14 q 114 214 114 111 q 179 372 114 313 q 351 431 244 431 l 614 431 l 614 521 q 564 663 614 613 q 422 714 514 714 q 285 673 339 714 q 221 563 231 632 l 151 563 q 240 719 165 660 q 422 778 314 778 q 612 707 540 778 q 683 521 683 636 l 683 0 l 614 0 l 614 122 q 529 23 593 60 q 374 -14 465 -14 m 393 47 q 553 99 492 47 q 614 232 614 150 l 614 369 l 350 369 q 229 328 275 369 q 183 219 183 288 q 241 95 183 143 q 393 47 299 47 z "},"á":{"ha":833,"x_min":114,"x_max":683,"o":"m 374 -14 q 185 49 256 -14 q 114 214 114 111 q 179 372 114 313 q 351 431 244 431 l 614 431 l 614 521 q 564 663 614 613 q 422 714 514 714 q 285 673 339 714 q 221 563 231 632 l 151 563 q 240 719 165 660 q 422 778 314 778 q 612 707 540 778 q 683 521 683 636 l 683 0 l 614 0 l 614 122 q 529 23 593 60 q 374 -14 465 -14 m 393 47 q 553 99 492 47 q 614 232 614 150 l 614 369 l 350 369 q 229 328 275 369 q 183 219 183 288 q 241 95 183 143 q 393 47 299 47 m 388 896 l 535 1090 l 617 1090 l 461 896 l 388 896 z "},"ă":{"ha":833,"x_min":114,"x_max":683,"o":"m 374 -14 q 185 49 256 -14 q 114 214 114 111 q 179 372 114 313 q 351 431 244 431 l 614 431 l 614 521 q 564 663 614 613 q 422 714 514 714 q 285 673 339 714 q 221 563 231 632 l 151 563 q 240 719 165 660 q 422 778 314 778 q 612 707 540 778 q 683 521 683 636 l 683 0 l 614 0 l 614 122 q 529 23 593 60 q 374 -14 465 -14 m 393 47 q 553 99 492 47 q 614 232 614 150 l 614 369 l 350 369 q 229 328 275 369 q 183 219 183 288 q 241 95 183 143 q 393 47 299 47 m 424 893 q 276 947 331 893 q 222 1090 222 1000 l 285 1090 q 322 987 285 1025 q 422 949 358 949 q 525 987 488 949 q 563 1090 563 1025 l 625 1090 q 571 947 625 1000 q 424 893 517 893 z "},"ắ":{"ha":833,"x_min":114,"x_max":683,"o":"m 374 -14 q 185 49 256 -14 q 114 214 114 111 q 179 372 114 313 q 351 431 244 431 l 614 431 l 614 521 q 564 663 614 613 q 422 714 514 714 q 285 673 339 714 q 221 563 231 632 l 151 563 q 240 719 165 660 q 422 778 314 778 q 612 707 540 778 q 683 521 683 636 l 683 0 l 614 0 l 614 122 q 529 23 593 60 q 374 -14 465 -14 m 393 47 q 553 99 492 47 q 614 232 614 150 l 614 369 l 350 369 q 229 328 275 369 q 183 219 183 288 q 241 95 183 143 q 393 47 299 47 m 365 1056 l 518 1236 l 601 1236 l 435 1056 l 365 1056 m 424 896 q 273 944 331 896 q 215 1069 215 992 l 278 1069 q 318 984 278 1017 q 424 951 358 951 q 529 984 489 951 q 569 1069 569 1017 l 632 1069 q 575 944 632 992 q 424 896 518 896 z "},"ặ":{"ha":833,"x_min":114,"x_max":683,"o":"m 374 -14 q 185 49 256 -14 q 114 214 114 111 q 179 372 114 313 q 351 431 244 431 l 614 431 l 614 521 q 564 663 614 613 q 422 714 514 714 q 285 673 339 714 q 221 563 231 632 l 151 563 q 240 719 165 660 q 422 778 314 778 q 612 707 540 778 q 683 521 683 636 l 683 0 l 614 0 l 614 122 q 529 23 593 60 q 374 -14 465 -14 m 393 47 q 553 99 492 47 q 614 232 614 150 l 614 369 l 350 369 q 229 328 275 369 q 183 219 183 288 q 241 95 183 143 q 393 47 299 47 m 424 -285 q 365 -264 388 -285 q 343 -208 343 -243 q 365 -153 343 -174 q 424 -132 388 -132 q 482 -153 460 -132 q 504 -208 504 -174 q 482 -264 504 -243 q 424 -285 460 -285 m 424 893 q 276 947 331 893 q 222 1090 222 1000 l 285 1090 q 322 987 285 1025 q 422 949 358 949 q 525 987 488 949 q 563 1090 563 1025 l 625 1090 q 571 947 625 1000 q 424 893 517 893 z "},"ằ":{"ha":833,"x_min":114,"x_max":683,"o":"m 374 -14 q 185 49 256 -14 q 114 214 114 111 q 179 372 114 313 q 351 431 244 431 l 614 431 l 614 521 q 564 663 614 613 q 422 714 514 714 q 285 673 339 714 q 221 563 231 632 l 151 563 q 240 719 165 660 q 422 778 314 778 q 612 707 540 778 q 683 521 683 636 l 683 0 l 614 0 l 614 122 q 529 23 593 60 q 374 -14 465 -14 m 393 47 q 553 99 492 47 q 614 232 614 150 l 614 369 l 350 369 q 229 328 275 369 q 183 219 183 288 q 241 95 183 143 q 393 47 299 47 m 414 1056 l 247 1236 l 331 1236 l 483 1056 l 414 1056 m 424 896 q 273 944 331 896 q 215 1069 215 992 l 278 1069 q 318 984 278 1017 q 424 951 358 951 q 529 984 489 951 q 569 1069 569 1017 l 632 1069 q 575 944 632 992 q 424 896 518 896 z "},"ẳ":{"ha":833,"x_min":114,"x_max":683,"o":"m 374 -14 q 185 49 256 -14 q 114 214 114 111 q 179 372 114 313 q 351 431 244 431 l 614 431 l 614 521 q 564 663 614 613 q 422 714 514 714 q 285 673 339 714 q 221 563 231 632 l 151 563 q 240 719 165 660 q 422 778 314 778 q 612 707 540 778 q 683 521 683 636 l 683 0 l 614 0 l 614 122 q 529 23 593 60 q 374 -14 465 -14 m 393 47 q 553 99 492 47 q 614 232 614 150 l 614 369 l 350 369 q 229 328 275 369 q 183 219 183 288 q 241 95 183 143 q 393 47 299 47 m 381 1056 l 450 1146 q 476 1201 476 1179 q 463 1227 476 1217 q 426 1238 450 1238 l 324 1238 l 324 1286 l 426 1286 q 503 1264 475 1286 q 531 1207 531 1242 q 520 1164 531 1186 q 494 1121 510 1142 l 444 1056 l 381 1056 m 424 896 q 273 944 331 896 q 215 1069 215 992 l 278 1069 q 318 984 278 1017 q 424 951 358 951 q 529 984 489 951 q 569 1069 569 1017 l 632 1069 q 575 944 632 992 q 424 896 518 896 z "},"ẵ":{"ha":833,"x_min":114,"x_max":683,"o":"m 374 -14 q 185 49 256 -14 q 114 214 114 111 q 179 372 114 313 q 351 431 244 431 l 614 431 l 614 521 q 564 663 614 613 q 422 714 514 714 q 285 673 339 714 q 221 563 231 632 l 151 563 q 240 719 165 660 q 422 778 314 778 q 612 707 540 778 q 683 521 683 636 l 683 0 l 614 0 l 614 122 q 529 23 593 60 q 374 -14 465 -14 m 393 47 q 553 99 492 47 q 614 232 614 150 l 614 369 l 350 369 q 229 328 275 369 q 183 219 183 288 q 241 95 183 143 q 393 47 299 47 m 521 1132 q 457 1147 482 1132 q 414 1181 432 1161 q 378 1215 396 1200 q 333 1229 360 1229 q 278 1174 278 1229 l 278 1139 l 222 1139 l 222 1174 q 333 1285 222 1285 q 397 1270 372 1285 q 440 1236 422 1256 q 476 1202 458 1217 q 521 1188 494 1188 q 569 1243 569 1188 l 569 1278 l 625 1278 l 625 1243 q 521 1132 625 1132 m 424 896 q 273 944 331 896 q 215 1069 215 992 l 278 1069 q 318 984 278 1017 q 424 951 358 951 q 529 984 489 951 q 569 1069 569 1017 l 632 1069 q 575 944 632 992 q 424 896 518 896 z "},"ǎ":{"ha":833,"x_min":114,"x_max":683,"o":"m 374 -14 q 185 49 256 -14 q 114 214 114 111 q 179 372 114 313 q 351 431 244 431 l 614 431 l 614 521 q 564 663 614 613 q 422 714 514 714 q 285 673 339 714 q 221 563 231 632 l 151 563 q 240 719 165 660 q 422 778 314 778 q 612 707 540 778 q 683 521 683 636 l 683 0 l 614 0 l 614 122 q 529 23 593 60 q 374 -14 465 -14 m 393 47 q 553 99 492 47 q 614 232 614 150 l 614 369 l 350 369 q 229 328 275 369 q 183 219 183 288 q 241 95 183 143 q 393 47 299 47 m 382 896 l 215 1090 l 286 1090 l 426 939 l 565 1090 l 632 1090 l 465 896 l 382 896 z "},"â":{"ha":833,"x_min":114,"x_max":683,"o":"m 374 -14 q 185 49 256 -14 q 114 214 114 111 q 179 372 114 313 q 351 431 244 431 l 614 431 l 614 521 q 564 663 614 613 q 422 714 514 714 q 285 673 339 714 q 221 563 231 632 l 151 563 q 240 719 165 660 q 422 778 314 778 q 612 707 540 778 q 683 521 683 636 l 683 0 l 614 0 l 614 122 q 529 23 593 60 q 374 -14 465 -14 m 393 47 q 553 99 492 47 q 614 232 614 150 l 614 369 l 350 369 q 229 328 275 369 q 183 219 183 288 q 241 95 183 143 q 393 47 299 47 m 215 896 l 382 1090 l 465 1090 l 632 896 l 564 896 l 424 1047 l 286 896 l 215 896 z "},"ấ":{"ha":833,"x_min":114,"x_max":813,"o":"m 374 -14 q 185 49 256 -14 q 114 214 114 111 q 179 372 114 313 q 351 431 244 431 l 614 431 l 614 521 q 564 663 614 613 q 422 714 514 714 q 285 673 339 714 q 221 563 231 632 l 151 563 q 240 719 165 660 q 422 778 314 778 q 612 707 540 778 q 683 521 683 636 l 683 0 l 614 0 l 614 122 q 529 23 593 60 q 374 -14 465 -14 m 393 47 q 553 99 492 47 q 614 232 614 150 l 614 369 l 350 369 q 229 328 275 369 q 183 219 183 288 q 241 95 183 143 q 393 47 299 47 m 569 1056 l 729 1250 l 813 1250 l 639 1056 l 569 1056 m 215 896 l 382 1090 l 465 1090 l 632 896 l 564 896 l 424 1047 l 286 896 l 215 896 z "},"ậ":{"ha":833,"x_min":114,"x_max":683,"o":"m 374 -14 q 185 49 256 -14 q 114 214 114 111 q 179 372 114 313 q 351 431 244 431 l 614 431 l 614 521 q 564 663 614 613 q 422 714 514 714 q 285 673 339 714 q 221 563 231 632 l 151 563 q 240 719 165 660 q 422 778 314 778 q 612 707 540 778 q 683 521 683 636 l 683 0 l 614 0 l 614 122 q 529 23 593 60 q 374 -14 465 -14 m 393 47 q 553 99 492 47 q 614 232 614 150 l 614 369 l 350 369 q 229 328 275 369 q 183 219 183 288 q 241 95 183 143 q 393 47 299 47 m 424 -285 q 365 -264 388 -285 q 343 -208 343 -243 q 365 -153 343 -174 q 424 -132 388 -132 q 482 -153 460 -132 q 504 -208 504 -174 q 482 -264 504 -243 q 424 -285 460 -285 m 215 896 l 382 1090 l 465 1090 l 632 896 l 564 896 l 424 1047 l 286 896 l 215 896 z "},"ầ":{"ha":833,"x_min":114,"x_max":708,"o":"m 374 -14 q 185 49 256 -14 q 114 214 114 111 q 179 372 114 313 q 351 431 244 431 l 614 431 l 614 521 q 564 663 614 613 q 422 714 514 714 q 285 673 339 714 q 221 563 231 632 l 151 563 q 240 719 165 660 q 422 778 314 778 q 612 707 540 778 q 683 521 683 636 l 683 0 l 614 0 l 614 122 q 529 23 593 60 q 374 -14 465 -14 m 393 47 q 553 99 492 47 q 614 232 614 150 l 614 369 l 350 369 q 229 328 275 369 q 183 219 183 288 q 241 95 183 143 q 393 47 299 47 m 639 1056 l 460 1250 l 543 1250 l 708 1056 l 639 1056 m 215 896 l 382 1090 l 465 1090 l 632 896 l 564 896 l 424 1047 l 286 896 l 215 896 z "},"ẩ":{"ha":833,"x_min":114,"x_max":743,"o":"m 374 -14 q 185 49 256 -14 q 114 214 114 111 q 179 372 114 313 q 351 431 244 431 l 614 431 l 614 521 q 564 663 614 613 q 422 714 514 714 q 285 673 339 714 q 221 563 231 632 l 151 563 q 240 719 165 660 q 422 778 314 778 q 612 707 540 778 q 683 521 683 636 l 683 0 l 614 0 l 614 122 q 529 23 593 60 q 374 -14 465 -14 m 393 47 q 553 99 492 47 q 614 232 614 150 l 614 369 l 350 369 q 229 328 275 369 q 183 219 183 288 q 241 95 183 143 q 393 47 299 47 m 593 1056 l 663 1146 q 689 1201 689 1179 q 676 1227 689 1217 q 639 1238 663 1238 l 536 1238 l 536 1286 l 639 1286 q 715 1264 688 1286 q 743 1207 743 1242 q 733 1164 743 1186 q 707 1121 722 1142 l 657 1056 l 593 1056 m 215 896 l 382 1090 l 465 1090 l 632 896 l 564 896 l 424 1047 l 286 896 l 215 896 z "},"ẫ":{"ha":833,"x_min":114,"x_max":683,"o":"m 374 -14 q 185 49 256 -14 q 114 214 114 111 q 179 372 114 313 q 351 431 244 431 l 614 431 l 614 521 q 564 663 614 613 q 422 714 514 714 q 285 673 339 714 q 221 563 231 632 l 151 563 q 240 719 165 660 q 422 778 314 778 q 612 707 540 778 q 683 521 683 636 l 683 0 l 614 0 l 614 122 q 529 23 593 60 q 374 -14 465 -14 m 393 47 q 553 99 492 47 q 614 232 614 150 l 614 369 l 350 369 q 229 328 275 369 q 183 219 183 288 q 241 95 183 143 q 393 47 299 47 m 521 1132 q 457 1147 482 1132 q 414 1181 432 1161 q 378 1215 396 1200 q 333 1229 360 1229 q 278 1174 278 1229 l 278 1139 l 222 1139 l 222 1174 q 333 1285 222 1285 q 397 1270 372 1285 q 440 1236 422 1256 q 476 1202 458 1217 q 521 1188 494 1188 q 569 1243 569 1188 l 569 1278 l 625 1278 l 625 1243 q 521 1132 625 1132 m 215 896 l 382 1090 l 465 1090 l 632 896 l 564 896 l 424 1047 l 286 896 l 215 896 z "},"ä":{"ha":833,"x_min":114,"x_max":683,"o":"m 374 -14 q 185 49 256 -14 q 114 214 114 111 q 179 372 114 313 q 351 431 244 431 l 614 431 l 614 521 q 564 663 614 613 q 422 714 514 714 q 285 673 339 714 q 221 563 231 632 l 151 563 q 240 719 165 660 q 422 778 314 778 q 612 707 540 778 q 683 521 683 636 l 683 0 l 614 0 l 614 122 q 529 23 593 60 q 374 -14 465 -14 m 393 47 q 553 99 492 47 q 614 232 614 150 l 614 369 l 350 369 q 229 328 275 369 q 183 219 183 288 q 241 95 183 143 q 393 47 299 47 m 574 910 q 520 931 540 910 q 500 986 500 951 q 520 1042 500 1021 q 574 1063 540 1063 q 625 1042 606 1063 q 644 986 644 1021 q 625 931 644 951 q 574 910 606 910 m 275 910 q 223 931 243 910 q 203 986 203 951 q 223 1042 203 1021 q 275 1063 243 1063 q 327 1042 307 1063 q 347 986 347 1021 q 327 931 347 951 q 275 910 307 910 z "},"ạ":{"ha":833,"x_min":114,"x_max":683,"o":"m 374 -14 q 185 49 256 -14 q 114 214 114 111 q 179 372 114 313 q 351 431 244 431 l 614 431 l 614 521 q 564 663 614 613 q 422 714 514 714 q 285 673 339 714 q 221 563 231 632 l 151 563 q 240 719 165 660 q 422 778 314 778 q 612 707 540 778 q 683 521 683 636 l 683 0 l 614 0 l 614 122 q 529 23 593 60 q 374 -14 465 -14 m 393 47 q 553 99 492 47 q 614 232 614 150 l 614 369 l 350 369 q 229 328 275 369 q 183 219 183 288 q 241 95 183 143 q 393 47 299 47 m 424 -285 q 365 -264 388 -285 q 343 -208 343 -243 q 365 -153 343 -174 q 424 -132 388 -132 q 482 -153 460 -132 q 504 -208 504 -174 q 482 -264 504 -243 q 424 -285 460 -285 z "},"à":{"ha":833,"x_min":114,"x_max":683,"o":"m 374 -14 q 185 49 256 -14 q 114 214 114 111 q 179 372 114 313 q 351 431 244 431 l 614 431 l 614 521 q 564 663 614 613 q 422 714 514 714 q 285 673 339 714 q 221 563 231 632 l 151 563 q 240 719 165 660 q 422 778 314 778 q 612 707 540 778 q 683 521 683 636 l 683 0 l 614 0 l 614 122 q 529 23 593 60 q 374 -14 465 -14 m 393 47 q 553 99 492 47 q 614 232 614 150 l 614 369 l 350 369 q 229 328 275 369 q 183 219 183 288 q 241 95 183 143 q 393 47 299 47 m 400 896 l 244 1090 l 329 1090 l 476 896 l 400 896 z "},"ả":{"ha":833,"x_min":114,"x_max":683,"o":"m 374 -14 q 185 49 256 -14 q 114 214 114 111 q 179 372 114 313 q 351 431 244 431 l 614 431 l 614 521 q 564 663 614 613 q 422 714 514 714 q 285 673 339 714 q 221 563 231 632 l 151 563 q 240 719 165 660 q 422 778 314 778 q 612 707 540 778 q 683 521 683 636 l 683 0 l 614 0 l 614 122 q 529 23 593 60 q 374 -14 465 -14 m 393 47 q 553 99 492 47 q 614 232 614 150 l 614 369 l 350 369 q 229 328 275 369 q 183 219 183 288 q 241 95 183 143 q 393 47 299 47 m 388 896 l 465 1001 q 489 1051 489 1035 q 438 1090 489 1090 l 315 1090 l 315 1139 l 438 1139 q 515 1117 486 1139 q 544 1057 544 1094 q 518 983 544 1021 l 456 896 l 388 896 z "},"ā":{"ha":833,"x_min":114,"x_max":683,"o":"m 374 -14 q 185 49 256 -14 q 114 214 114 111 q 179 372 114 313 q 351 431 244 431 l 614 431 l 614 521 q 564 663 614 613 q 422 714 514 714 q 285 673 339 714 q 221 563 231 632 l 151 563 q 240 719 165 660 q 422 778 314 778 q 612 707 540 778 q 683 521 683 636 l 683 0 l 614 0 l 614 122 q 529 23 593 60 q 374 -14 465 -14 m 393 47 q 553 99 492 47 q 614 232 614 150 l 614 369 l 350 369 q 229 328 275 369 q 183 219 183 288 q 241 95 183 143 q 393 47 299 47 m 229 950 l 229 1010 l 618 1010 l 618 950 l 229 950 z "},"ą":{"ha":833,"x_min":114,"x_max":758,"o":"m 374 -14 q 185 49 256 -14 q 114 214 114 111 q 179 372 114 313 q 351 431 244 431 l 614 431 l 614 521 q 564 663 614 613 q 422 714 514 714 q 285 673 339 714 q 221 563 231 632 l 151 563 q 240 719 165 660 q 422 778 314 778 q 612 707 540 778 q 683 521 683 636 l 683 0 q 622 -76 644 -37 q 599 -143 599 -114 q 617 -194 599 -175 q 669 -212 636 -212 l 758 -212 l 758 -271 l 657 -271 q 567 -241 600 -271 q 533 -160 533 -211 q 559 -78 533 -121 q 629 0 585 -36 l 614 0 l 614 122 q 529 23 593 60 q 374 -14 465 -14 m 393 47 q 553 99 492 47 q 614 232 614 150 l 614 369 l 350 369 q 229 328 275 369 q 183 219 183 288 q 241 95 183 143 q 393 47 299 47 z "},"å":{"ha":833,"x_min":114,"x_max":683,"o":"m 374 -14 q 185 49 256 -14 q 114 214 114 111 q 179 372 114 313 q 351 431 244 431 l 614 431 l 614 521 q 564 663 614 613 q 422 714 514 714 q 285 673 339 714 q 221 563 231 632 l 151 563 q 240 719 165 660 q 422 778 314 778 q 612 707 540 778 q 683 521 683 636 l 683 0 l 614 0 l 614 122 q 529 23 593 60 q 374 -14 465 -14 m 393 47 q 553 99 492 47 q 614 232 614 150 l 614 369 l 350 369 q 229 328 275 369 q 183 219 183 288 q 241 95 183 143 q 393 47 299 47 m 425 854 q 319 892 360 854 q 278 993 278 931 q 319 1094 278 1056 q 425 1132 360 1132 q 530 1094 490 1132 q 569 993 569 1056 q 530 892 569 931 q 425 854 490 854 m 424 903 q 489 928 464 903 q 514 993 514 953 q 489 1058 514 1033 q 424 1083 464 1083 q 358 1058 383 1083 q 333 993 333 1033 q 358 928 333 953 q 424 903 383 903 z "},"ã":{"ha":833,"x_min":114,"x_max":683,"o":"m 374 -14 q 185 49 256 -14 q 114 214 114 111 q 179 372 114 313 q 351 431 244 431 l 614 431 l 614 521 q 564 663 614 613 q 422 714 514 714 q 285 673 339 714 q 221 563 231 632 l 151 563 q 240 719 165 660 q 422 778 314 778 q 612 707 540 778 q 683 521 683 636 l 683 0 l 614 0 l 614 122 q 529 23 593 60 q 374 -14 465 -14 m 393 47 q 553 99 492 47 q 614 232 614 150 l 614 369 l 350 369 q 229 328 275 369 q 183 219 183 288 q 241 95 183 143 q 393 47 299 47 m 528 903 q 462 922 489 903 q 414 966 435 940 q 372 1010 393 992 q 326 1029 351 1029 q 276 1010 294 1029 q 257 958 257 990 l 257 910 l 201 910 l 201 958 q 235 1050 201 1017 q 326 1083 268 1083 q 392 1065 365 1083 q 440 1020 419 1046 q 482 976 461 994 q 528 957 503 957 q 574 976 557 957 q 590 1028 590 996 l 590 1076 l 646 1076 l 646 1028 q 615 936 646 969 q 528 903 583 903 z "},"æ":{"ha":833,"x_min":56,"x_max":779,"o":"m 242 -14 q 106 43 156 -14 q 56 193 56 100 l 56 257 q 103 387 56 339 q 236 435 151 435 l 386 435 l 386 569 q 349 675 386 633 q 254 717 313 717 q 165 681 200 717 q 125 590 131 646 l 56 590 q 114 727 63 676 q 250 778 165 778 q 340 758 304 778 q 395 712 375 739 q 419 658 415 685 l 422 658 q 449 712 429 685 q 504 758 469 739 q 588 778 539 778 q 726 721 675 778 q 778 569 778 664 l 778 372 l 456 372 l 456 194 q 492 90 456 131 q 588 49 528 49 q 673 83 642 49 q 710 174 704 118 l 779 174 q 724 38 772 89 q 592 -14 676 -14 q 503 5 539 -14 q 447 51 467 24 q 422 104 428 79 l 418 104 q 393 51 414 79 q 335 5 372 24 q 242 -14 299 -14 m 456 435 l 708 435 l 708 569 q 674 674 708 632 q 583 717 640 717 q 492 674 528 717 q 456 569 456 632 l 456 435 m 254 44 q 349 88 311 44 q 386 194 386 131 l 386 372 l 236 372 q 156 340 188 372 q 125 257 125 308 l 125 193 q 160 87 125 129 q 254 44 196 44 z "},"ǽ":{"ha":833,"x_min":56,"x_max":779,"o":"m 242 -14 q 106 43 156 -14 q 56 193 56 100 l 56 257 q 103 387 56 339 q 236 435 151 435 l 386 435 l 386 569 q 349 675 386 633 q 254 717 313 717 q 165 681 200 717 q 125 590 131 646 l 56 590 q 114 727 63 676 q 250 778 165 778 q 340 758 304 778 q 395 712 375 739 q 419 658 415 685 l 422 658 q 449 712 429 685 q 504 758 469 739 q 588 778 539 778 q 726 721 675 778 q 778 569 778 664 l 778 372 l 456 372 l 456 194 q 492 90 456 131 q 588 49 528 49 q 673 83 642 49 q 710 174 704 118 l 779 174 q 724 38 772 89 q 592 -14 676 -14 q 503 5 539 -14 q 447 51 467 24 q 422 104 428 79 l 418 104 q 393 51 414 79 q 335 5 372 24 q 242 -14 299 -14 m 456 435 l 708 435 l 708 569 q 674 674 708 632 q 583 717 640 717 q 492 674 528 717 q 456 569 456 632 l 456 435 m 254 44 q 349 88 311 44 q 386 194 386 131 l 386 372 l 236 372 q 156 340 188 372 q 125 257 125 308 l 125 193 q 160 87 125 129 q 254 44 196 44 m 381 896 l 528 1090 l 610 1090 l 454 896 l 381 896 z "},"b":{"ha":833,"x_min":153,"x_max":688,"o":"m 435 -14 q 306 17 361 -14 q 226 104 251 49 l 222 104 l 222 0 l 153 0 l 153 1014 l 222 1014 l 222 660 l 226 660 q 306 747 251 715 q 435 778 361 778 q 619 701 550 778 q 688 500 688 625 l 688 263 q 619 62 688 138 q 435 -14 550 -14 m 421 46 q 566 103 514 46 q 618 263 618 161 l 618 500 q 566 660 618 603 q 421 718 514 718 q 274 660 326 718 q 222 500 222 603 l 222 263 q 275 103 222 161 q 421 46 328 46 z "},"c":{"ha":833,"x_min":146,"x_max":694,"o":"m 419 -14 q 219 62 293 -14 q 146 264 146 138 l 146 500 q 220 702 146 626 q 419 778 294 778 q 620 706 546 778 q 694 514 694 635 l 625 514 q 570 661 625 608 q 419 714 515 714 q 270 658 325 714 q 215 500 215 601 l 215 264 q 270 107 215 164 q 419 50 325 50 q 570 103 515 50 q 625 250 625 157 l 694 250 q 620 58 694 129 q 419 -14 546 -14 z "},"ć":{"ha":833,"x_min":146,"x_max":694,"o":"m 419 -14 q 219 62 293 -14 q 146 264 146 138 l 146 500 q 220 702 146 626 q 419 778 294 778 q 620 706 546 778 q 694 514 694 635 l 625 514 q 570 661 625 608 q 419 714 515 714 q 270 658 325 714 q 215 500 215 601 l 215 264 q 270 107 215 164 q 419 50 325 50 q 570 103 515 50 q 625 250 625 157 l 694 250 q 620 58 694 129 q 419 -14 546 -14 m 383 896 l 531 1090 l 613 1090 l 457 896 l 383 896 z "},"č":{"ha":833,"x_min":146,"x_max":694,"o":"m 419 -14 q 219 62 293 -14 q 146 264 146 138 l 146 500 q 220 702 146 626 q 419 778 294 778 q 620 706 546 778 q 694 514 694 635 l 625 514 q 570 661 625 608 q 419 714 515 714 q 270 658 325 714 q 215 500 215 601 l 215 264 q 270 107 215 164 q 419 50 325 50 q 570 103 515 50 q 625 250 625 157 l 694 250 q 620 58 694 129 q 419 -14 546 -14 m 378 896 l 211 1090 l 282 1090 l 422 939 l 561 1090 l 628 1090 l 461 896 l 378 896 z "},"ç":{"ha":833,"x_min":146,"x_max":694,"o":"m 294 -271 l 294 -222 l 406 -222 q 460 -204 439 -222 q 481 -164 481 -186 q 435 -110 481 -131 q 317 -89 390 -89 l 349 -7 q 200 84 254 13 q 146 264 146 156 l 146 500 q 220 702 146 626 q 419 778 294 778 q 620 706 546 778 q 694 514 694 635 l 625 514 q 570 661 625 608 q 419 714 515 714 q 270 658 325 714 q 215 500 215 601 l 215 264 q 270 107 215 164 q 419 50 325 50 q 570 103 515 50 q 625 250 625 157 l 694 250 q 620 58 694 129 q 419 -14 546 -14 q 404 -14 413 -14 l 392 -47 q 460 -61 425 -49 q 520 -99 496 -74 q 544 -164 544 -124 q 506 -240 544 -208 q 406 -271 468 -271 l 294 -271 z "},"ĉ":{"ha":833,"x_min":146,"x_max":694,"o":"m 419 -14 q 219 62 293 -14 q 146 264 146 138 l 146 500 q 220 702 146 626 q 419 778 294 778 q 620 706 546 778 q 694 514 694 635 l 625 514 q 570 661 625 608 q 419 714 515 714 q 270 658 325 714 q 215 500 215 601 l 215 264 q 270 107 215 164 q 419 50 325 50 q 570 103 515 50 q 625 250 625 157 l 694 250 q 620 58 694 129 q 419 -14 546 -14 m 211 896 l 378 1090 l 461 1090 l 628 896 l 560 896 l 419 1047 l 282 896 l 211 896 z "},"ċ":{"ha":833,"x_min":146,"x_max":694,"o":"m 419 -14 q 219 62 293 -14 q 146 264 146 138 l 146 500 q 220 702 146 626 q 419 778 294 778 q 620 706 546 778 q 694 514 694 635 l 625 514 q 570 661 625 608 q 419 714 515 714 q 270 658 325 714 q 215 500 215 601 l 215 264 q 270 107 215 164 q 419 50 325 50 q 570 103 515 50 q 625 250 625 157 l 694 250 q 620 58 694 129 q 419 -14 546 -14 m 419 910 q 361 931 383 910 q 339 986 339 951 q 361 1042 339 1021 q 419 1063 383 1063 q 478 1042 456 1063 q 500 986 500 1021 q 478 931 500 951 q 419 910 456 910 z "},"d":{"ha":833,"x_min":146,"x_max":681,"o":"m 399 -14 q 215 62 285 -14 q 146 263 146 138 l 146 500 q 215 701 146 625 q 399 778 285 778 q 527 747 472 778 q 607 660 582 715 l 611 660 l 611 1014 l 681 1014 l 681 0 l 611 0 l 611 104 l 607 104 q 527 17 582 49 q 399 -14 472 -14 m 413 46 q 559 103 507 46 q 611 263 611 161 l 611 500 q 559 660 611 603 q 413 718 507 718 q 267 660 319 718 q 215 500 215 603 l 215 263 q 267 103 215 161 q 413 46 319 46 z "},"ð":{"ha":833,"x_min":111,"x_max":722,"o":"m 417 -14 q 256 25 325 -14 q 149 134 188 64 q 111 299 111 204 q 190 522 111 439 q 403 606 268 606 q 496 585 454 606 q 568 537 538 565 q 614 482 599 508 l 618 482 q 583 554 613 501 q 497 682 553 607 l 394 824 l 163 715 l 163 771 l 364 865 l 256 1014 l 347 1014 l 431 896 l 640 993 l 640 938 l 461 854 l 557 718 q 683 494 643 599 q 722 296 722 389 q 685 133 722 203 q 578 24 647 63 q 417 -14 510 -14 m 417 56 q 583 122 521 56 q 646 300 646 189 q 616 426 646 371 q 535 511 586 481 q 417 542 483 542 q 249 476 311 542 q 188 299 188 410 q 249 122 188 188 q 417 56 311 56 z "},"ď":{"ha":833,"x_min":125,"x_max":792,"o":"m 708 764 l 722 1014 l 792 1014 l 771 764 l 708 764 m 364 -14 q 190 61 254 -14 q 125 263 125 136 l 125 500 q 190 703 125 628 q 364 778 254 778 q 487 747 436 778 q 560 660 538 715 l 563 660 l 563 1014 l 632 1014 l 632 0 l 563 0 l 563 104 l 560 104 q 487 17 538 49 q 364 -14 436 -14 m 378 46 q 513 104 464 46 q 563 263 563 163 l 563 500 q 513 659 563 600 q 378 718 464 718 q 244 659 293 718 q 194 500 194 600 l 194 263 q 244 104 194 163 q 378 46 293 46 z "},"đ":{"ha":833,"x_min":146,"x_max":819,"o":"m 399 -14 q 215 62 285 -14 q 146 263 146 138 l 146 417 q 215 618 146 542 q 399 694 285 694 q 527 663 472 694 q 607 576 582 632 l 611 576 l 611 814 l 361 814 l 361 876 l 611 876 l 611 1014 l 681 1014 l 681 876 l 819 876 l 819 814 l 681 814 l 681 0 l 611 0 l 611 104 l 607 104 q 527 17 582 49 q 399 -14 472 -14 m 413 46 q 559 103 507 46 q 611 263 611 161 l 611 417 q 559 577 611 519 q 413 635 507 635 q 267 577 319 635 q 215 417 215 519 l 215 263 q 267 103 215 161 q 413 46 319 46 z "},"e":{"ha":833,"x_min":146,"x_max":688,"o":"m 418 -14 q 218 62 290 -14 q 146 264 146 138 l 146 500 q 219 702 146 626 q 418 778 292 778 q 616 702 544 778 q 688 500 688 626 l 688 368 l 215 368 l 215 264 q 268 106 215 164 q 418 47 321 47 q 547 85 496 47 q 617 188 597 122 l 686 188 q 595 40 665 94 q 418 -14 525 -14 m 215 428 l 618 428 l 618 500 q 566 658 618 600 q 418 717 514 717 q 268 659 321 717 q 215 500 215 601 l 215 428 z "},"é":{"ha":833,"x_min":146,"x_max":688,"o":"m 418 -14 q 218 62 290 -14 q 146 264 146 138 l 146 500 q 219 702 146 626 q 418 778 292 778 q 616 702 544 778 q 688 500 688 626 l 688 368 l 215 368 l 215 264 q 268 106 215 164 q 418 47 321 47 q 547 85 496 47 q 617 188 597 122 l 686 188 q 595 40 665 94 q 418 -14 525 -14 m 215 428 l 618 428 l 618 500 q 566 658 618 600 q 418 717 514 717 q 268 659 321 717 q 215 500 215 601 l 215 428 m 381 896 l 528 1090 l 610 1090 l 454 896 l 381 896 z "},"ĕ":{"ha":833,"x_min":146,"x_max":688,"o":"m 418 -14 q 218 62 290 -14 q 146 264 146 138 l 146 500 q 219 702 146 626 q 418 778 292 778 q 616 702 544 778 q 688 500 688 626 l 688 368 l 215 368 l 215 264 q 268 106 215 164 q 418 47 321 47 q 547 85 496 47 q 617 188 597 122 l 686 188 q 595 40 665 94 q 418 -14 525 -14 m 215 428 l 618 428 l 618 500 q 566 658 618 600 q 418 717 514 717 q 268 659 321 717 q 215 500 215 601 l 215 428 m 417 893 q 269 947 324 893 q 215 1090 215 1000 l 278 1090 q 315 987 278 1025 q 415 949 351 949 q 518 987 481 949 q 556 1090 556 1025 l 618 1090 q 564 947 618 1000 q 417 893 510 893 z "},"ě":{"ha":833,"x_min":146,"x_max":688,"o":"m 418 -14 q 218 62 290 -14 q 146 264 146 138 l 146 500 q 219 702 146 626 q 418 778 292 778 q 616 702 544 778 q 688 500 688 626 l 688 368 l 215 368 l 215 264 q 268 106 215 164 q 418 47 321 47 q 547 85 496 47 q 617 188 597 122 l 686 188 q 595 40 665 94 q 418 -14 525 -14 m 215 428 l 618 428 l 618 500 q 566 658 618 600 q 418 717 514 717 q 268 659 321 717 q 215 500 215 601 l 215 428 m 375 896 l 208 1090 l 279 1090 l 419 939 l 558 1090 l 625 1090 l 458 896 l 375 896 z "},"ê":{"ha":833,"x_min":146,"x_max":688,"o":"m 418 -14 q 218 62 290 -14 q 146 264 146 138 l 146 500 q 219 702 146 626 q 418 778 292 778 q 616 702 544 778 q 688 500 688 626 l 688 368 l 215 368 l 215 264 q 268 106 215 164 q 418 47 321 47 q 547 85 496 47 q 617 188 597 122 l 686 188 q 595 40 665 94 q 418 -14 525 -14 m 215 428 l 618 428 l 618 500 q 566 658 618 600 q 418 717 514 717 q 268 659 321 717 q 215 500 215 601 l 215 428 m 208 896 l 375 1090 l 458 1090 l 625 896 l 557 896 l 417 1047 l 279 896 l 208 896 z "},"ế":{"ha":833,"x_min":146,"x_max":806,"o":"m 418 -14 q 218 62 290 -14 q 146 264 146 138 l 146 500 q 219 702 146 626 q 418 778 292 778 q 616 702 544 778 q 688 500 688 626 l 688 368 l 215 368 l 215 264 q 268 106 215 164 q 418 47 321 47 q 547 85 496 47 q 617 188 597 122 l 686 188 q 595 40 665 94 q 418 -14 525 -14 m 215 428 l 618 428 l 618 500 q 566 658 618 600 q 418 717 514 717 q 268 659 321 717 q 215 500 215 601 l 215 428 m 563 1056 l 722 1250 l 806 1250 l 632 1056 l 563 1056 m 208 896 l 375 1090 l 458 1090 l 625 896 l 557 896 l 417 1047 l 279 896 l 208 896 z "},"ệ":{"ha":833,"x_min":146,"x_max":688,"o":"m 418 -14 q 218 62 290 -14 q 146 264 146 138 l 146 500 q 219 702 146 626 q 418 778 292 778 q 616 702 544 778 q 688 500 688 626 l 688 368 l 215 368 l 215 264 q 268 106 215 164 q 418 47 321 47 q 547 85 496 47 q 617 188 597 122 l 686 188 q 595 40 665 94 q 418 -14 525 -14 m 215 428 l 618 428 l 618 500 q 566 658 618 600 q 418 717 514 717 q 268 659 321 717 q 215 500 215 601 l 215 428 m 417 -285 q 358 -264 381 -285 q 336 -208 336 -243 q 358 -153 336 -174 q 417 -132 381 -132 q 475 -153 453 -132 q 497 -208 497 -174 q 475 -264 497 -243 q 417 -285 453 -285 m 208 896 l 375 1090 l 458 1090 l 625 896 l 557 896 l 417 1047 l 279 896 l 208 896 z "},"ề":{"ha":833,"x_min":146,"x_max":701,"o":"m 418 -14 q 218 62 290 -14 q 146 264 146 138 l 146 500 q 219 702 146 626 q 418 778 292 778 q 616 702 544 778 q 688 500 688 626 l 688 368 l 215 368 l 215 264 q 268 106 215 164 q 418 47 321 47 q 547 85 496 47 q 617 188 597 122 l 686 188 q 595 40 665 94 q 418 -14 525 -14 m 215 428 l 618 428 l 618 500 q 566 658 618 600 q 418 717 514 717 q 268 659 321 717 q 215 500 215 601 l 215 428 m 632 1056 l 453 1250 l 536 1250 l 701 1056 l 632 1056 m 208 896 l 375 1090 l 458 1090 l 625 896 l 557 896 l 417 1047 l 279 896 l 208 896 z "},"ể":{"ha":833,"x_min":146,"x_max":736,"o":"m 418 -14 q 218 62 290 -14 q 146 264 146 138 l 146 500 q 219 702 146 626 q 418 778 292 778 q 616 702 544 778 q 688 500 688 626 l 688 368 l 215 368 l 215 264 q 268 106 215 164 q 418 47 321 47 q 547 85 496 47 q 617 188 597 122 l 686 188 q 595 40 665 94 q 418 -14 525 -14 m 215 428 l 618 428 l 618 500 q 566 658 618 600 q 418 717 514 717 q 268 659 321 717 q 215 500 215 601 l 215 428 m 586 1056 l 656 1146 q 682 1201 682 1179 q 669 1227 682 1217 q 632 1238 656 1238 l 529 1238 l 529 1286 l 632 1286 q 708 1264 681 1286 q 736 1207 736 1242 q 726 1164 736 1186 q 700 1121 715 1142 l 650 1056 l 586 1056 m 208 896 l 375 1090 l 458 1090 l 625 896 l 557 896 l 417 1047 l 279 896 l 208 896 z "},"ễ":{"ha":833,"x_min":146,"x_max":688,"o":"m 418 -14 q 218 62 290 -14 q 146 264 146 138 l 146 500 q 219 702 146 626 q 418 778 292 778 q 616 702 544 778 q 688 500 688 626 l 688 368 l 215 368 l 215 264 q 268 106 215 164 q 418 47 321 47 q 547 85 496 47 q 617 188 597 122 l 686 188 q 595 40 665 94 q 418 -14 525 -14 m 215 428 l 618 428 l 618 500 q 566 658 618 600 q 418 717 514 717 q 268 659 321 717 q 215 500 215 601 l 215 428 m 514 1132 q 450 1147 475 1132 q 407 1181 425 1161 q 371 1215 389 1200 q 326 1229 353 1229 q 271 1174 271 1229 l 271 1139 l 215 1139 l 215 1174 q 326 1285 215 1285 q 390 1270 365 1285 q 433 1236 415 1256 q 469 1202 451 1217 q 514 1188 488 1188 q 563 1243 563 1188 l 563 1278 l 618 1278 l 618 1243 q 514 1132 618 1132 m 208 896 l 375 1090 l 458 1090 l 625 896 l 557 896 l 417 1047 l 279 896 l 208 896 z "},"ë":{"ha":833,"x_min":146,"x_max":688,"o":"m 418 -14 q 218 62 290 -14 q 146 264 146 138 l 146 500 q 219 702 146 626 q 418 778 292 778 q 616 702 544 778 q 688 500 688 626 l 688 368 l 215 368 l 215 264 q 268 106 215 164 q 418 47 321 47 q 547 85 496 47 q 617 188 597 122 l 686 188 q 595 40 665 94 q 418 -14 525 -14 m 215 428 l 618 428 l 618 500 q 566 658 618 600 q 418 717 514 717 q 268 659 321 717 q 215 500 215 601 l 215 428 m 567 910 q 513 931 533 910 q 493 986 493 951 q 513 1042 493 1021 q 567 1063 533 1063 q 618 1042 599 1063 q 638 986 638 1021 q 618 931 638 951 q 567 910 599 910 m 268 910 q 216 931 236 910 q 196 986 196 951 q 216 1042 196 1021 q 268 1063 236 1063 q 320 1042 300 1063 q 340 986 340 1021 q 320 931 340 951 q 268 910 300 910 z "},"ė":{"ha":833,"x_min":146,"x_max":688,"o":"m 418 -14 q 218 62 290 -14 q 146 264 146 138 l 146 500 q 219 702 146 626 q 418 778 292 778 q 616 702 544 778 q 688 500 688 626 l 688 368 l 215 368 l 215 264 q 268 106 215 164 q 418 47 321 47 q 547 85 496 47 q 617 188 597 122 l 686 188 q 595 40 665 94 q 418 -14 525 -14 m 215 428 l 618 428 l 618 500 q 566 658 618 600 q 418 717 514 717 q 268 659 321 717 q 215 500 215 601 l 215 428 m 417 910 q 358 931 381 910 q 336 986 336 951 q 358 1042 336 1021 q 417 1063 381 1063 q 475 1042 453 1063 q 497 986 497 1021 q 475 931 497 951 q 417 910 453 910 z "},"ẹ":{"ha":833,"x_min":146,"x_max":688,"o":"m 418 -14 q 218 62 290 -14 q 146 264 146 138 l 146 500 q 219 702 146 626 q 418 778 292 778 q 616 702 544 778 q 688 500 688 626 l 688 368 l 215 368 l 215 264 q 268 106 215 164 q 418 47 321 47 q 547 85 496 47 q 617 188 597 122 l 686 188 q 595 40 665 94 q 418 -14 525 -14 m 215 428 l 618 428 l 618 500 q 566 658 618 600 q 418 717 514 717 q 268 659 321 717 q 215 500 215 601 l 215 428 m 417 -285 q 358 -264 381 -285 q 336 -208 336 -243 q 358 -153 336 -174 q 417 -132 381 -132 q 475 -153 453 -132 q 497 -208 497 -174 q 475 -264 497 -243 q 417 -285 453 -285 z "},"è":{"ha":833,"x_min":146,"x_max":688,"o":"m 418 -14 q 218 62 290 -14 q 146 264 146 138 l 146 500 q 219 702 146 626 q 418 778 292 778 q 616 702 544 778 q 688 500 688 626 l 688 368 l 215 368 l 215 264 q 268 106 215 164 q 418 47 321 47 q 547 85 496 47 q 617 188 597 122 l 686 188 q 595 40 665 94 q 418 -14 525 -14 m 215 428 l 618 428 l 618 500 q 566 658 618 600 q 418 717 514 717 q 268 659 321 717 q 215 500 215 601 l 215 428 m 393 896 l 238 1090 l 322 1090 l 469 896 l 393 896 z "},"ẻ":{"ha":833,"x_min":146,"x_max":688,"o":"m 418 -14 q 218 62 290 -14 q 146 264 146 138 l 146 500 q 219 702 146 626 q 418 778 292 778 q 616 702 544 778 q 688 500 688 626 l 688 368 l 215 368 l 215 264 q 268 106 215 164 q 418 47 321 47 q 547 85 496 47 q 617 188 597 122 l 686 188 q 595 40 665 94 q 418 -14 525 -14 m 215 428 l 618 428 l 618 500 q 566 658 618 600 q 418 717 514 717 q 268 659 321 717 q 215 500 215 601 l 215 428 m 381 896 l 458 1001 q 482 1051 482 1035 q 431 1090 482 1090 l 308 1090 l 308 1139 l 431 1139 q 508 1117 479 1139 q 538 1057 538 1094 q 511 983 538 1021 l 449 896 l 381 896 z "},"ē":{"ha":833,"x_min":146,"x_max":688,"o":"m 418 -14 q 218 62 290 -14 q 146 264 146 138 l 146 500 q 219 702 146 626 q 418 778 292 778 q 616 702 544 778 q 688 500 688 626 l 688 368 l 215 368 l 215 264 q 268 106 215 164 q 418 47 321 47 q 547 85 496 47 q 617 188 597 122 l 686 188 q 595 40 665 94 q 418 -14 525 -14 m 215 428 l 618 428 l 618 500 q 566 658 618 600 q 418 717 514 717 q 268 659 321 717 q 215 500 215 601 l 215 428 m 222 950 l 222 1010 l 611 1010 l 611 950 l 222 950 z "},"ę":{"ha":833,"x_min":146,"x_max":688,"o":"m 522 -271 q 432 -241 465 -271 q 399 -160 399 -211 q 419 -90 399 -128 q 486 -7 439 -51 q 453 -12 471 -10 q 418 -14 436 -14 q 218 62 290 -14 q 146 264 146 138 l 146 500 q 219 702 146 626 q 418 778 292 778 q 616 702 544 778 q 688 500 688 626 l 688 368 l 215 368 l 215 264 q 268 106 215 164 q 418 47 321 47 q 547 85 496 47 q 617 188 597 122 l 686 188 q 586 33 663 88 l 549 0 q 487 -76 510 -37 q 464 -143 464 -114 q 483 -194 464 -175 q 535 -212 501 -212 l 624 -212 l 624 -271 l 522 -271 m 215 428 l 618 428 l 618 500 q 566 658 618 600 q 418 717 514 717 q 268 659 321 717 q 215 500 215 601 l 215 428 z "},"ẽ":{"ha":833,"x_min":146,"x_max":688,"o":"m 418 -14 q 218 62 290 -14 q 146 264 146 138 l 146 500 q 219 702 146 626 q 418 778 292 778 q 616 702 544 778 q 688 500 688 626 l 688 368 l 215 368 l 215 264 q 268 106 215 164 q 418 47 321 47 q 547 85 496 47 q 617 188 597 122 l 686 188 q 595 40 665 94 q 418 -14 525 -14 m 215 428 l 618 428 l 618 500 q 566 658 618 600 q 418 717 514 717 q 268 659 321 717 q 215 500 215 601 l 215 428 m 521 903 q 455 922 482 903 q 407 966 428 940 q 365 1010 386 992 q 319 1029 344 1029 q 269 1010 288 1029 q 250 958 250 990 l 250 910 l 194 910 l 194 958 q 228 1050 194 1017 q 319 1083 261 1083 q 385 1065 358 1083 q 433 1020 413 1046 q 475 976 454 994 q 521 957 496 957 q 567 976 550 957 q 583 1028 583 996 l 583 1076 l 639 1076 l 639 1028 q 608 936 639 969 q 521 903 576 903 z "},"ə":{"ha":833,"x_min":146,"x_max":688,"o":"m 415 -14 q 217 62 289 -14 q 146 264 146 138 l 146 396 l 618 396 l 618 500 q 565 658 618 600 q 415 717 513 717 q 288 679 339 717 q 217 576 236 642 l 147 576 q 238 724 168 669 q 415 778 308 778 q 615 703 543 778 q 688 500 688 628 l 688 264 q 615 62 688 138 q 415 -14 543 -14 m 415 47 q 566 105 514 47 q 618 264 618 163 l 618 336 l 215 336 l 215 264 q 267 106 215 164 q 415 47 319 47 z "},"f":{"ha":833,"x_min":97,"x_max":726,"o":"m 333 0 l 333 624 l 97 624 l 97 686 l 333 686 l 333 840 q 381 968 333 922 q 514 1014 429 1014 l 726 1014 l 726 951 l 514 951 q 432 922 461 951 q 403 840 403 893 l 403 686 l 726 686 l 726 624 l 403 624 l 403 0 l 333 0 z "},"g":{"ha":833,"x_min":146,"x_max":681,"o":"m 242 -250 l 242 -187 l 443 -187 q 611 -21 611 -187 l 611 196 q 535 93 592 131 q 399 56 479 56 q 215 131 285 56 q 146 332 146 207 l 146 500 q 215 701 146 625 q 399 778 285 778 q 535 740 479 778 q 611 638 592 703 l 611 764 l 681 764 l 681 -21 q 443 -250 681 -250 l 242 -250 m 413 115 q 559 173 507 115 q 611 332 611 231 l 611 500 q 559 660 611 603 q 413 718 507 718 q 267 660 319 718 q 215 500 215 603 l 215 332 q 267 173 215 231 q 413 115 319 115 z "},"ǵ":{"ha":833,"x_min":146,"x_max":681,"o":"m 242 -250 l 242 -187 l 443 -187 q 611 -21 611 -187 l 611 196 q 535 93 592 131 q 399 56 479 56 q 215 131 285 56 q 146 332 146 207 l 146 500 q 215 701 146 625 q 399 778 285 778 q 535 740 479 778 q 611 638 592 703 l 611 764 l 681 764 l 681 -21 q 443 -250 681 -250 l 242 -250 m 413 115 q 559 173 507 115 q 611 332 611 231 l 611 500 q 559 660 611 603 q 413 718 507 718 q 267 660 319 718 q 215 500 215 603 l 215 332 q 267 173 215 231 q 413 115 319 115 m 376 896 l 524 1090 l 606 1090 l 450 896 l 376 896 z "},"ğ":{"ha":833,"x_min":146,"x_max":681,"o":"m 242 -250 l 242 -187 l 443 -187 q 611 -21 611 -187 l 611 196 q 535 93 592 131 q 399 56 479 56 q 215 131 285 56 q 146 332 146 207 l 146 500 q 215 701 146 625 q 399 778 285 778 q 535 740 479 778 q 611 638 592 703 l 611 764 l 681 764 l 681 -21 q 443 -250 681 -250 l 242 -250 m 413 115 q 559 173 507 115 q 611 332 611 231 l 611 500 q 559 660 611 603 q 413 718 507 718 q 267 660 319 718 q 215 500 215 603 l 215 332 q 267 173 215 231 q 413 115 319 115 m 413 893 q 265 947 319 893 q 211 1090 211 1000 l 274 1090 q 310 987 274 1025 q 411 949 347 949 q 514 987 476 949 q 551 1090 551 1025 l 614 1090 q 560 947 614 1000 q 413 893 506 893 z "},"ǧ":{"ha":833,"x_min":146,"x_max":681,"o":"m 242 -250 l 242 -187 l 443 -187 q 611 -21 611 -187 l 611 196 q 535 93 592 131 q 399 56 479 56 q 215 131 285 56 q 146 332 146 207 l 146 500 q 215 701 146 625 q 399 778 285 778 q 535 740 479 778 q 611 638 592 703 l 611 764 l 681 764 l 681 -21 q 443 -250 681 -250 l 242 -250 m 413 115 q 559 173 507 115 q 611 332 611 231 l 611 500 q 559 660 611 603 q 413 718 507 718 q 267 660 319 718 q 215 500 215 603 l 215 332 q 267 173 215 231 q 413 115 319 115 m 371 896 l 204 1090 l 275 1090 l 415 939 l 554 1090 l 621 1090 l 454 896 l 371 896 z "},"ĝ":{"ha":833,"x_min":146,"x_max":681,"o":"m 242 -250 l 242 -187 l 443 -187 q 611 -21 611 -187 l 611 196 q 535 93 592 131 q 399 56 479 56 q 215 131 285 56 q 146 332 146 207 l 146 500 q 215 701 146 625 q 399 778 285 778 q 535 740 479 778 q 611 638 592 703 l 611 764 l 681 764 l 681 -21 q 443 -250 681 -250 l 242 -250 m 413 115 q 559 173 507 115 q 611 332 611 231 l 611 500 q 559 660 611 603 q 413 718 507 718 q 267 660 319 718 q 215 500 215 603 l 215 332 q 267 173 215 231 q 413 115 319 115 m 204 896 l 371 1090 l 454 1090 l 621 896 l 553 896 l 413 1047 l 275 896 l 204 896 z "},"ģ":{"ha":833,"x_min":146,"x_max":681,"o":"m 242 -250 l 242 -187 l 443 -187 q 611 -21 611 -187 l 611 196 q 535 93 592 131 q 399 56 479 56 q 215 131 285 56 q 146 332 146 207 l 146 500 q 215 701 146 625 q 399 778 285 778 q 535 740 479 778 q 611 638 592 703 l 611 764 l 681 764 l 681 -21 q 443 -250 681 -250 l 242 -250 m 413 115 q 559 173 507 115 q 611 332 611 231 l 611 500 q 559 660 611 603 q 413 718 507 718 q 267 660 319 718 q 215 500 215 603 l 215 332 q 267 173 215 231 q 413 115 319 115 m 551 1222 l 419 896 l 329 896 l 489 1222 l 551 1222 z "},"ġ":{"ha":833,"x_min":146,"x_max":681,"o":"m 242 -250 l 242 -187 l 443 -187 q 611 -21 611 -187 l 611 196 q 535 93 592 131 q 399 56 479 56 q 215 131 285 56 q 146 332 146 207 l 146 500 q 215 701 146 625 q 399 778 285 778 q 535 740 479 778 q 611 638 592 703 l 611 764 l 681 764 l 681 -21 q 443 -250 681 -250 l 242 -250 m 413 115 q 559 173 507 115 q 611 332 611 231 l 611 500 q 559 660 611 603 q 413 718 507 718 q 267 660 319 718 q 215 500 215 603 l 215 332 q 267 173 215 231 q 413 115 319 115 m 413 910 q 354 931 376 910 q 332 986 332 951 q 354 1042 332 1021 q 413 1063 376 1063 q 471 1042 449 1063 q 493 986 493 1021 q 471 931 493 951 q 413 910 449 910 z "},"h":{"ha":833,"x_min":153,"x_max":683,"o":"m 153 0 l 153 1014 l 222 1014 l 222 653 l 228 653 q 304 744 250 711 q 435 778 358 778 q 615 706 547 778 q 683 510 683 633 l 683 0 l 614 0 l 614 500 q 562 660 614 603 q 421 718 510 718 q 276 660 329 718 q 222 500 222 601 l 222 0 l 153 0 z "},"ħ":{"ha":833,"x_min":13,"x_max":683,"o":"m 13 814 l 13 876 l 153 876 l 153 1014 l 222 1014 l 222 876 l 471 876 l 471 814 l 222 814 l 222 569 l 228 569 q 305 661 251 628 q 435 694 358 694 q 615 622 547 694 q 683 426 683 550 l 683 0 l 614 0 l 614 417 q 563 577 614 519 q 421 635 511 635 q 276 576 329 635 q 222 417 222 518 l 222 0 l 153 0 l 153 814 l 13 814 z "},"ĥ":{"ha":833,"x_min":0,"x_max":683,"o":"m 153 0 l 153 1014 l 222 1014 l 222 653 l 228 653 q 304 744 250 711 q 435 778 358 778 q 615 706 547 778 q 683 510 683 633 l 683 0 l 614 0 l 614 500 q 562 660 614 603 q 421 718 510 718 q 276 660 329 718 q 222 500 222 601 l 222 0 l 153 0 m 0 1118 l 167 1313 l 250 1313 l 417 1118 l 349 1118 l 208 1269 l 71 1118 l 0 1118 z "},"i":{"ha":833,"x_min":132,"x_max":743,"o":"m 132 0 l 132 63 l 411 63 l 411 701 l 167 701 l 167 764 l 481 764 l 481 63 l 743 63 l 743 0 l 132 0 m 438 910 q 379 931 401 910 q 357 986 357 951 q 379 1042 357 1021 q 438 1063 401 1063 q 496 1042 474 1063 q 518 986 518 1021 q 496 931 518 951 q 438 910 474 910 z "},"ı":{"ha":833,"x_min":132,"x_max":743,"o":"m 132 0 l 132 63 l 411 63 l 411 701 l 167 701 l 167 764 l 481 764 l 481 63 l 743 63 l 743 0 l 132 0 z "},"í":{"ha":833,"x_min":132,"x_max":743,"o":"m 132 0 l 132 63 l 411 63 l 411 701 l 167 701 l 167 764 l 481 764 l 481 63 l 743 63 l 743 0 l 132 0 m 401 896 l 549 1090 l 631 1090 l 475 896 l 401 896 z "},"ĭ":{"ha":833,"x_min":132,"x_max":743,"o":"m 132 0 l 132 63 l 411 63 l 411 701 l 167 701 l 167 764 l 481 764 l 481 63 l 743 63 l 743 0 l 132 0 m 438 893 q 290 947 344 893 q 236 1090 236 1000 l 299 1090 q 335 987 299 1025 q 436 949 372 949 q 539 987 501 949 q 576 1090 576 1025 l 639 1090 q 585 947 639 1000 q 438 893 531 893 z "},"ǐ":{"ha":833,"x_min":132,"x_max":743,"o":"m 132 0 l 132 63 l 411 63 l 411 701 l 167 701 l 167 764 l 481 764 l 481 63 l 743 63 l 743 0 l 132 0 m 396 896 l 229 1090 l 300 1090 l 440 939 l 579 1090 l 646 1090 l 479 896 l 396 896 z "},"î":{"ha":833,"x_min":132,"x_max":743,"o":"m 132 0 l 132 63 l 411 63 l 411 701 l 167 701 l 167 764 l 481 764 l 481 63 l 743 63 l 743 0 l 132 0 m 229 896 l 396 1090 l 479 1090 l 646 896 l 578 896 l 438 1047 l 300 896 l 229 896 z "},"ï":{"ha":833,"x_min":132,"x_max":743,"o":"m 132 0 l 132 63 l 411 63 l 411 701 l 167 701 l 167 764 l 481 764 l 481 63 l 743 63 l 743 0 l 132 0 m 588 910 q 534 931 554 910 q 514 986 514 951 q 534 1042 514 1021 q 588 1063 554 1063 q 639 1042 619 1063 q 658 986 658 1021 q 639 931 658 951 q 588 910 619 910 m 289 910 q 237 931 257 910 q 217 986 217 951 q 237 1042 217 1021 q 289 1063 257 1063 q 341 1042 321 1063 q 361 986 361 1021 q 341 931 361 951 q 289 910 321 910 z "},"ị":{"ha":833,"x_min":132,"x_max":743,"o":"m 132 0 l 132 63 l 411 63 l 411 701 l 167 701 l 167 764 l 481 764 l 481 63 l 743 63 l 743 0 l 132 0 m 438 910 q 379 931 401 910 q 357 986 357 951 q 379 1042 357 1021 q 438 1063 401 1063 q 496 1042 474 1063 q 518 986 518 1021 q 496 931 518 951 q 438 910 474 910 m 438 -285 q 379 -264 401 -285 q 357 -208 357 -243 q 379 -153 357 -174 q 438 -132 401 -132 q 496 -153 474 -132 q 518 -208 518 -174 q 496 -264 518 -243 q 438 -285 474 -285 z "},"ì":{"ha":833,"x_min":132,"x_max":743,"o":"m 132 0 l 132 63 l 411 63 l 411 701 l 167 701 l 167 764 l 481 764 l 481 63 l 743 63 l 743 0 l 132 0 m 414 896 l 258 1090 l 343 1090 l 490 896 l 414 896 z "},"ỉ":{"ha":833,"x_min":132,"x_max":743,"o":"m 132 0 l 132 63 l 411 63 l 411 701 l 167 701 l 167 764 l 481 764 l 481 63 l 743 63 l 743 0 l 132 0 m 401 896 l 479 1001 q 503 1051 503 1035 q 451 1090 503 1090 l 329 1090 l 329 1139 l 451 1139 q 529 1117 500 1139 q 558 1057 558 1094 q 532 983 558 1021 l 469 896 l 401 896 z "},"ī":{"ha":833,"x_min":132,"x_max":743,"o":"m 132 0 l 132 63 l 411 63 l 411 701 l 167 701 l 167 764 l 481 764 l 481 63 l 743 63 l 743 0 l 132 0 m 243 950 l 243 1010 l 632 1010 l 632 950 l 243 950 z "},"į":{"ha":833,"x_min":132,"x_max":743,"o":"m 438 910 q 379 931 401 910 q 357 986 357 951 q 379 1042 357 1021 q 438 1063 401 1063 q 496 1042 474 1063 q 518 986 518 1021 q 496 931 518 951 q 438 910 474 910 m 132 0 l 132 63 l 411 63 l 411 701 l 167 701 l 167 764 l 481 764 l 481 63 l 743 63 l 743 0 l 467 0 q 405 -76 428 -37 q 382 -143 382 -114 q 401 -194 382 -175 q 453 -212 419 -212 l 542 -212 l 542 -271 l 440 -271 q 350 -241 383 -271 q 317 -160 317 -211 q 342 -78 317 -121 q 413 0 368 -36 l 132 0 z "},"ĩ":{"ha":833,"x_min":132,"x_max":743,"o":"m 132 0 l 132 63 l 411 63 l 411 701 l 167 701 l 167 764 l 481 764 l 481 63 l 743 63 l 743 0 l 132 0 m 542 903 q 476 922 503 903 q 428 966 449 940 q 386 1010 407 992 q 340 1029 365 1029 q 290 1010 308 1029 q 271 958 271 990 l 271 910 l 215 910 l 215 958 q 249 1050 215 1017 q 340 1083 282 1083 q 406 1065 379 1083 q 454 1020 433 1046 q 496 976 475 994 q 542 957 517 957 q 588 976 571 957 q 604 1028 604 996 l 604 1076 l 660 1076 l 660 1028 q 628 936 660 969 q 542 903 597 903 z "},"j":{"ha":833,"x_min":125,"x_max":628,"o":"m 125 -250 l 125 -187 l 319 -187 q 469 -135 418 -187 q 519 14 519 -83 l 519 701 l 153 701 l 153 764 l 589 764 l 589 14 q 518 -180 589 -110 q 319 -250 447 -250 l 125 -250 m 547 910 q 489 931 511 910 q 467 986 467 951 q 489 1042 467 1021 q 547 1063 511 1063 q 606 1042 583 1063 q 628 986 628 1021 q 606 931 628 951 q 547 910 583 910 z "},"ȷ":{"ha":833,"x_min":125,"x_max":589,"o":"m 125 -250 l 125 -187 l 319 -187 q 469 -135 418 -187 q 519 14 519 -83 l 519 701 l 153 701 l 153 764 l 589 764 l 589 14 q 518 -180 589 -110 q 319 -250 447 -250 l 125 -250 z "},"ĵ":{"ha":833,"x_min":125,"x_max":756,"o":"m 125 -250 l 125 -187 l 319 -187 q 469 -135 418 -187 q 519 14 519 -83 l 519 701 l 153 701 l 153 764 l 589 764 l 589 14 q 518 -180 589 -110 q 319 -250 447 -250 l 125 -250 m 339 896 l 506 1090 l 589 1090 l 756 896 l 688 896 l 547 1047 l 410 896 l 339 896 z "},"k":{"ha":833,"x_min":157,"x_max":738,"o":"m 157 0 l 157 1014 l 226 1014 l 226 429 l 410 429 l 649 764 l 732 764 l 475 401 l 738 0 l 654 0 l 410 367 l 226 367 l 226 0 l 157 0 z "},"ķ":{"ha":833,"x_min":157,"x_max":738,"o":"m 157 0 l 157 1014 l 226 1014 l 226 429 l 410 429 l 649 764 l 732 764 l 475 401 l 738 0 l 654 0 l 410 367 l 226 367 l 226 0 l 157 0 m 299 -333 l 424 -132 l 514 -132 l 368 -333 l 299 -333 z "},"ĸ":{"ha":833,"x_min":157,"x_max":738,"o":"m 157 0 l 157 764 l 226 764 l 226 429 l 410 429 l 649 764 l 732 764 l 475 401 l 738 0 l 654 0 l 410 367 l 226 367 l 226 0 l 157 0 z "},"l":{"ha":833,"x_min":69,"x_max":750,"o":"m 514 0 q 370 49 421 0 q 319 188 319 97 l 319 951 l 69 951 l 69 1014 l 389 1014 l 389 188 q 514 63 389 63 l 750 63 l 750 0 l 514 0 z "},"ĺ":{"ha":833,"x_min":69,"x_max":750,"o":"m 514 0 q 370 49 421 0 q 319 188 319 97 l 319 951 l 69 951 l 69 1014 l 389 1014 l 389 188 q 514 63 389 63 l 750 63 l 750 0 l 514 0 m 297 1125 l 444 1319 l 526 1319 l 371 1125 l 297 1125 z "},"ƛ":{"ha":833,"x_min":94,"x_max":739,"o":"m 94 0 l 394 749 l 367 818 l 125 697 l 125 764 l 346 874 l 290 1014 l 369 1014 l 408 906 l 653 1028 l 653 961 l 429 850 l 739 0 l 664 0 l 486 496 q 453 592 469 542 q 428 671 438 642 q 401 592 418 642 q 365 496 383 542 l 174 0 l 94 0 z "},"ľ":{"ha":833,"x_min":69,"x_max":917,"o":"m 514 0 q 370 49 421 0 q 319 188 319 97 l 319 951 l 69 951 l 69 1014 l 389 1014 l 389 188 q 514 63 389 63 l 750 63 l 750 0 l 514 0 m 833 1014 l 847 1264 l 917 1264 l 889 1014 l 833 1014 z "},"ļ":{"ha":833,"x_min":69,"x_max":750,"o":"m 514 0 q 370 49 421 0 q 319 188 319 97 l 319 951 l 69 951 l 69 1014 l 389 1014 l 389 188 q 514 63 389 63 l 750 63 l 750 0 l 514 0 m 326 -333 l 451 -132 l 542 -132 l 396 -333 l 326 -333 z "},"ŀ":{"ha":833,"x_min":42,"x_max":868,"o":"m 486 0 q 342 49 393 0 q 292 188 292 97 l 292 951 l 42 951 l 42 1014 l 361 1014 l 361 188 q 486 63 361 63 l 722 63 l 722 0 l 486 0 m 767 368 q 692 397 719 368 q 665 472 665 425 q 692 547 665 519 q 767 574 719 574 q 841 547 814 574 q 868 472 868 519 q 841 397 868 425 q 767 368 814 368 z "},"ł":{"ha":833,"x_min":69,"x_max":750,"o":"m 139 333 l 139 410 l 319 535 l 319 951 l 69 951 l 69 1014 l 389 1014 l 389 582 l 653 764 l 653 688 l 389 506 l 389 188 q 514 63 389 63 l 750 63 l 750 0 l 514 0 q 370 49 421 0 q 319 188 319 97 l 319 458 l 139 333 z "},"m":{"ha":833,"x_min":110,"x_max":724,"o":"m 110 0 l 110 764 l 171 764 l 171 660 l 175 660 q 215 746 181 714 q 306 778 249 778 q 396 747 360 778 q 444 660 432 717 l 444 660 q 487 745 450 713 q 578 778 524 778 q 685 730 647 778 q 724 599 724 682 l 724 0 l 656 0 l 656 590 q 629 685 656 650 q 557 719 603 719 q 479 684 508 719 q 450 590 450 649 l 450 0 l 383 0 l 383 590 q 357 685 383 650 q 285 719 331 719 q 208 685 239 719 q 178 590 178 650 l 178 0 l 110 0 z "},"n":{"ha":833,"x_min":153,"x_max":683,"o":"m 153 0 l 153 764 l 222 764 l 222 633 q 297 739 242 700 q 435 778 353 778 q 615 706 547 778 q 683 510 683 633 l 683 0 l 614 0 l 614 500 q 562 660 614 603 q 421 718 510 718 q 276 660 329 718 q 222 500 222 601 l 222 0 l 153 0 z "},"ń":{"ha":833,"x_min":153,"x_max":683,"o":"m 153 0 l 153 764 l 222 764 l 222 633 q 297 739 242 700 q 435 778 353 778 q 615 706 547 778 q 683 510 683 633 l 683 0 l 614 0 l 614 500 q 562 660 614 603 q 421 718 510 718 q 276 660 329 718 q 222 500 222 601 l 222 0 l 153 0 m 388 896 l 535 1090 l 617 1090 l 461 896 l 388 896 z "},"ŉ":{"ha":833,"x_min":21,"x_max":683,"o":"m 153 0 l 153 764 l 222 764 l 222 633 q 297 739 242 700 q 435 778 353 778 q 615 706 547 778 q 683 510 683 633 l 683 0 l 614 0 l 614 500 q 562 660 614 603 q 421 718 510 718 q 276 660 329 718 q 222 500 222 601 l 222 0 l 153 0 m 21 896 l 146 1097 l 236 1097 l 90 896 l 21 896 z "},"ň":{"ha":833,"x_min":153,"x_max":683,"o":"m 153 0 l 153 764 l 222 764 l 222 633 q 297 739 242 700 q 435 778 353 778 q 615 706 547 778 q 683 510 683 633 l 683 0 l 614 0 l 614 500 q 562 660 614 603 q 421 718 510 718 q 276 660 329 718 q 222 500 222 601 l 222 0 l 153 0 m 382 896 l 215 1090 l 286 1090 l 426 939 l 565 1090 l 632 1090 l 465 896 l 382 896 z "},"ņ":{"ha":833,"x_min":153,"x_max":683,"o":"m 153 0 l 153 764 l 222 764 l 222 633 q 297 739 242 700 q 435 778 353 778 q 615 706 547 778 q 683 510 683 633 l 683 0 l 614 0 l 614 500 q 562 660 614 603 q 421 718 510 718 q 276 660 329 718 q 222 500 222 601 l 222 0 l 153 0 m 299 -333 l 424 -132 l 514 -132 l 368 -333 l 299 -333 z "},"ŋ":{"ha":833,"x_min":153,"x_max":683,"o":"m 340 -250 l 340 -187 l 397 -187 q 556 -132 497 -187 q 614 21 614 -76 l 614 500 q 562 660 614 603 q 421 718 510 718 q 276 660 329 718 q 222 500 222 601 l 222 0 l 153 0 l 153 764 l 222 764 l 222 633 q 297 739 242 700 q 435 778 353 778 q 615 706 547 778 q 683 510 683 633 l 683 21 q 606 -176 683 -103 q 397 -250 528 -250 l 340 -250 z "},"ñ":{"ha":833,"x_min":153,"x_max":683,"o":"m 153 0 l 153 764 l 222 764 l 222 633 q 297 739 242 700 q 435 778 353 778 q 615 706 547 778 q 683 510 683 633 l 683 0 l 614 0 l 614 500 q 562 660 614 603 q 421 718 510 718 q 276 660 329 718 q 222 500 222 601 l 222 0 l 153 0 m 528 903 q 462 922 489 903 q 414 966 435 940 q 372 1010 393 992 q 326 1029 351 1029 q 276 1010 294 1029 q 257 958 257 990 l 257 910 l 201 910 l 201 958 q 235 1050 201 1017 q 326 1083 268 1083 q 392 1065 365 1083 q 440 1020 419 1046 q 482 976 461 994 q 528 957 503 957 q 574 976 557 957 q 590 1028 590 996 l 590 1076 l 646 1076 l 646 1028 q 615 936 646 969 q 528 903 583 903 z "},"o":{"ha":833,"x_min":146,"x_max":688,"o":"m 417 -14 q 220 62 294 -14 q 146 264 146 138 l 146 500 q 220 702 146 626 q 417 778 294 778 q 614 702 540 778 q 688 500 688 626 l 688 264 q 614 62 688 138 q 417 -14 540 -14 m 417 47 q 565 104 513 47 q 618 264 618 161 l 618 500 q 565 660 618 603 q 417 717 511 717 q 269 660 322 717 q 215 500 215 603 l 215 264 q 268 104 215 161 q 417 47 321 47 z "},"ó":{"ha":833,"x_min":146,"x_max":688,"o":"m 417 -14 q 220 62 294 -14 q 146 264 146 138 l 146 500 q 220 702 146 626 q 417 778 294 778 q 614 702 540 778 q 688 500 688 626 l 688 264 q 614 62 688 138 q 417 -14 540 -14 m 417 47 q 565 104 513 47 q 618 264 618 161 l 618 500 q 565 660 618 603 q 417 717 511 717 q 269 660 322 717 q 215 500 215 603 l 215 264 q 268 104 215 161 q 417 47 321 47 m 381 896 l 528 1090 l 610 1090 l 454 896 l 381 896 z "},"ŏ":{"ha":833,"x_min":146,"x_max":688,"o":"m 417 -14 q 220 62 294 -14 q 146 264 146 138 l 146 500 q 220 702 146 626 q 417 778 294 778 q 614 702 540 778 q 688 500 688 626 l 688 264 q 614 62 688 138 q 417 -14 540 -14 m 417 47 q 565 104 513 47 q 618 264 618 161 l 618 500 q 565 660 618 603 q 417 717 511 717 q 269 660 322 717 q 215 500 215 603 l 215 264 q 268 104 215 161 q 417 47 321 47 m 417 893 q 269 947 324 893 q 215 1090 215 1000 l 278 1090 q 315 987 278 1025 q 415 949 351 949 q 518 987 481 949 q 556 1090 556 1025 l 618 1090 q 564 947 618 1000 q 417 893 510 893 z "},"ǒ":{"ha":833,"x_min":146,"x_max":688,"o":"m 417 -14 q 220 62 294 -14 q 146 264 146 138 l 146 500 q 220 702 146 626 q 417 778 294 778 q 614 702 540 778 q 688 500 688 626 l 688 264 q 614 62 688 138 q 417 -14 540 -14 m 417 47 q 565 104 513 47 q 618 264 618 161 l 618 500 q 565 660 618 603 q 417 717 511 717 q 269 660 322 717 q 215 500 215 603 l 215 264 q 268 104 215 161 q 417 47 321 47 m 375 896 l 208 1090 l 279 1090 l 419 939 l 558 1090 l 625 1090 l 458 896 l 375 896 z "},"ô":{"ha":833,"x_min":146,"x_max":688,"o":"m 417 -14 q 220 62 294 -14 q 146 264 146 138 l 146 500 q 220 702 146 626 q 417 778 294 778 q 614 702 540 778 q 688 500 688 626 l 688 264 q 614 62 688 138 q 417 -14 540 -14 m 417 47 q 565 104 513 47 q 618 264 618 161 l 618 500 q 565 660 618 603 q 417 717 511 717 q 269 660 322 717 q 215 500 215 603 l 215 264 q 268 104 215 161 q 417 47 321 47 m 208 896 l 375 1090 l 458 1090 l 625 896 l 557 896 l 417 1047 l 279 896 l 208 896 z "},"ố":{"ha":833,"x_min":146,"x_max":806,"o":"m 417 -14 q 220 62 294 -14 q 146 264 146 138 l 146 500 q 220 702 146 626 q 417 778 294 778 q 614 702 540 778 q 688 500 688 626 l 688 264 q 614 62 688 138 q 417 -14 540 -14 m 417 47 q 565 104 513 47 q 618 264 618 161 l 618 500 q 565 660 618 603 q 417 717 511 717 q 269 660 322 717 q 215 500 215 603 l 215 264 q 268 104 215 161 q 417 47 321 47 m 563 1056 l 722 1250 l 806 1250 l 632 1056 l 563 1056 m 208 896 l 375 1090 l 458 1090 l 625 896 l 557 896 l 417 1047 l 279 896 l 208 896 z "},"ộ":{"ha":833,"x_min":146,"x_max":688,"o":"m 417 -14 q 220 62 294 -14 q 146 264 146 138 l 146 500 q 220 702 146 626 q 417 778 294 778 q 614 702 540 778 q 688 500 688 626 l 688 264 q 614 62 688 138 q 417 -14 540 -14 m 417 47 q 565 104 513 47 q 618 264 618 161 l 618 500 q 565 660 618 603 q 417 717 511 717 q 269 660 322 717 q 215 500 215 603 l 215 264 q 268 104 215 161 q 417 47 321 47 m 417 -285 q 358 -264 381 -285 q 336 -208 336 -243 q 358 -153 336 -174 q 417 -132 381 -132 q 475 -153 453 -132 q 497 -208 497 -174 q 475 -264 497 -243 q 417 -285 453 -285 m 208 896 l 375 1090 l 458 1090 l 625 896 l 557 896 l 417 1047 l 279 896 l 208 896 z "},"ồ":{"ha":833,"x_min":146,"x_max":701,"o":"m 417 -14 q 220 62 294 -14 q 146 264 146 138 l 146 500 q 220 702 146 626 q 417 778 294 778 q 614 702 540 778 q 688 500 688 626 l 688 264 q 614 62 688 138 q 417 -14 540 -14 m 417 47 q 565 104 513 47 q 618 264 618 161 l 618 500 q 565 660 618 603 q 417 717 511 717 q 269 660 322 717 q 215 500 215 603 l 215 264 q 268 104 215 161 q 417 47 321 47 m 632 1056 l 453 1250 l 536 1250 l 701 1056 l 632 1056 m 208 896 l 375 1090 l 458 1090 l 625 896 l 557 896 l 417 1047 l 279 896 l 208 896 z "},"ổ":{"ha":833,"x_min":146,"x_max":736,"o":"m 417 -14 q 220 62 294 -14 q 146 264 146 138 l 146 500 q 220 702 146 626 q 417 778 294 778 q 614 702 540 778 q 688 500 688 626 l 688 264 q 614 62 688 138 q 417 -14 540 -14 m 417 47 q 565 104 513 47 q 618 264 618 161 l 618 500 q 565 660 618 603 q 417 717 511 717 q 269 660 322 717 q 215 500 215 603 l 215 264 q 268 104 215 161 q 417 47 321 47 m 586 1056 l 656 1146 q 682 1201 682 1179 q 669 1227 682 1217 q 632 1238 656 1238 l 529 1238 l 529 1286 l 632 1286 q 708 1264 681 1286 q 736 1207 736 1242 q 726 1164 736 1186 q 700 1121 715 1142 l 650 1056 l 586 1056 m 208 896 l 375 1090 l 458 1090 l 625 896 l 557 896 l 417 1047 l 279 896 l 208 896 z "},"ỗ":{"ha":833,"x_min":146,"x_max":688,"o":"m 417 -14 q 220 62 294 -14 q 146 264 146 138 l 146 500 q 220 702 146 626 q 417 778 294 778 q 614 702 540 778 q 688 500 688 626 l 688 264 q 614 62 688 138 q 417 -14 540 -14 m 417 47 q 565 104 513 47 q 618 264 618 161 l 618 500 q 565 660 618 603 q 417 717 511 717 q 269 660 322 717 q 215 500 215 603 l 215 264 q 268 104 215 161 q 417 47 321 47 m 514 1132 q 450 1147 475 1132 q 407 1181 425 1161 q 371 1215 389 1200 q 326 1229 353 1229 q 271 1174 271 1229 l 271 1139 l 215 1139 l 215 1174 q 326 1285 215 1285 q 390 1270 365 1285 q 433 1236 415 1256 q 469 1202 451 1217 q 514 1188 488 1188 q 563 1243 563 1188 l 563 1278 l 618 1278 l 618 1243 q 514 1132 618 1132 m 208 896 l 375 1090 l 458 1090 l 625 896 l 557 896 l 417 1047 l 279 896 l 208 896 z "},"ö":{"ha":833,"x_min":146,"x_max":688,"o":"m 417 -14 q 220 62 294 -14 q 146 264 146 138 l 146 500 q 220 702 146 626 q 417 778 294 778 q 614 702 540 778 q 688 500 688 626 l 688 264 q 614 62 688 138 q 417 -14 540 -14 m 417 47 q 565 104 513 47 q 618 264 618 161 l 618 500 q 565 660 618 603 q 417 717 511 717 q 269 660 322 717 q 215 500 215 603 l 215 264 q 268 104 215 161 q 417 47 321 47 m 567 910 q 513 931 533 910 q 493 986 493 951 q 513 1042 493 1021 q 567 1063 533 1063 q 618 1042 599 1063 q 638 986 638 1021 q 618 931 638 951 q 567 910 599 910 m 268 910 q 216 931 236 910 q 196 986 196 951 q 216 1042 196 1021 q 268 1063 236 1063 q 320 1042 300 1063 q 340 986 340 1021 q 320 931 340 951 q 268 910 300 910 z "},"ọ":{"ha":833,"x_min":146,"x_max":688,"o":"m 417 -14 q 220 62 294 -14 q 146 264 146 138 l 146 500 q 220 702 146 626 q 417 778 294 778 q 614 702 540 778 q 688 500 688 626 l 688 264 q 614 62 688 138 q 417 -14 540 -14 m 417 47 q 565 104 513 47 q 618 264 618 161 l 618 500 q 565 660 618 603 q 417 717 511 717 q 269 660 322 717 q 215 500 215 603 l 215 264 q 268 104 215 161 q 417 47 321 47 m 417 -285 q 358 -264 381 -285 q 336 -208 336 -243 q 358 -153 336 -174 q 417 -132 381 -132 q 475 -153 453 -132 q 497 -208 497 -174 q 475 -264 497 -243 q 417 -285 453 -285 z "},"ò":{"ha":833,"x_min":146,"x_max":688,"o":"m 417 -14 q 220 62 294 -14 q 146 264 146 138 l 146 500 q 220 702 146 626 q 417 778 294 778 q 614 702 540 778 q 688 500 688 626 l 688 264 q 614 62 688 138 q 417 -14 540 -14 m 417 47 q 565 104 513 47 q 618 264 618 161 l 618 500 q 565 660 618 603 q 417 717 511 717 q 269 660 322 717 q 215 500 215 603 l 215 264 q 268 104 215 161 q 417 47 321 47 m 393 896 l 238 1090 l 322 1090 l 469 896 l 393 896 z "},"ỏ":{"ha":833,"x_min":146,"x_max":688,"o":"m 417 -14 q 220 62 294 -14 q 146 264 146 138 l 146 500 q 220 702 146 626 q 417 778 294 778 q 614 702 540 778 q 688 500 688 626 l 688 264 q 614 62 688 138 q 417 -14 540 -14 m 417 47 q 565 104 513 47 q 618 264 618 161 l 618 500 q 565 660 618 603 q 417 717 511 717 q 269 660 322 717 q 215 500 215 603 l 215 264 q 268 104 215 161 q 417 47 321 47 m 381 896 l 458 1001 q 482 1051 482 1035 q 431 1090 482 1090 l 308 1090 l 308 1139 l 431 1139 q 508 1117 479 1139 q 538 1057 538 1094 q 511 983 538 1021 l 449 896 l 381 896 z "},"ơ":{"ha":833,"x_min":146,"x_max":708,"o":"m 417 -14 q 220 62 294 -14 q 146 264 146 138 l 146 500 q 220 702 146 626 q 417 778 294 778 q 571 736 506 778 l 590 736 q 635 756 618 736 q 653 806 653 775 l 653 889 l 708 889 l 708 806 q 685 731 708 761 q 624 692 663 700 q 688 500 688 617 l 688 264 q 614 62 688 138 q 417 -14 540 -14 m 417 47 q 565 104 513 47 q 618 264 618 161 l 618 500 q 565 660 618 603 q 417 717 511 717 q 269 660 322 717 q 215 500 215 603 l 215 264 q 268 104 215 161 q 417 47 321 47 z "},"ớ":{"ha":833,"x_min":146,"x_max":708,"o":"m 417 -14 q 220 62 294 -14 q 146 264 146 138 l 146 500 q 220 702 146 626 q 417 778 294 778 q 571 736 506 778 l 590 736 q 635 756 618 736 q 653 806 653 775 l 653 889 l 708 889 l 708 806 q 685 731 708 761 q 624 692 663 700 q 688 500 688 617 l 688 264 q 614 62 688 138 q 417 -14 540 -14 m 417 47 q 565 104 513 47 q 618 264 618 161 l 618 500 q 565 660 618 603 q 417 717 511 717 q 269 660 322 717 q 215 500 215 603 l 215 264 q 268 104 215 161 q 417 47 321 47 m 367 896 l 514 1090 l 596 1090 l 440 896 l 367 896 z "},"ợ":{"ha":833,"x_min":146,"x_max":708,"o":"m 417 -14 q 220 62 294 -14 q 146 264 146 138 l 146 500 q 220 702 146 626 q 417 778 294 778 q 571 736 506 778 l 590 736 q 635 756 618 736 q 653 806 653 775 l 653 889 l 708 889 l 708 806 q 685 731 708 761 q 624 692 663 700 q 688 500 688 617 l 688 264 q 614 62 688 138 q 417 -14 540 -14 m 417 47 q 565 104 513 47 q 618 264 618 161 l 618 500 q 565 660 618 603 q 417 717 511 717 q 269 660 322 717 q 215 500 215 603 l 215 264 q 268 104 215 161 q 417 47 321 47 m 417 -285 q 358 -264 381 -285 q 336 -208 336 -243 q 358 -153 336 -174 q 417 -132 381 -132 q 475 -153 453 -132 q 497 -208 497 -174 q 475 -264 497 -243 q 417 -285 453 -285 z "},"ờ":{"ha":833,"x_min":146,"x_max":708,"o":"m 417 -14 q 220 62 294 -14 q 146 264 146 138 l 146 500 q 220 702 146 626 q 417 778 294 778 q 571 736 506 778 l 590 736 q 635 756 618 736 q 653 806 653 775 l 653 889 l 708 889 l 708 806 q 685 731 708 761 q 624 692 663 700 q 688 500 688 617 l 688 264 q 614 62 688 138 q 417 -14 540 -14 m 417 47 q 565 104 513 47 q 618 264 618 161 l 618 500 q 565 660 618 603 q 417 717 511 717 q 269 660 322 717 q 215 500 215 603 l 215 264 q 268 104 215 161 q 417 47 321 47 m 379 896 l 224 1090 l 308 1090 l 456 896 l 379 896 z "},"ở":{"ha":833,"x_min":146,"x_max":708,"o":"m 417 -14 q 220 62 294 -14 q 146 264 146 138 l 146 500 q 220 702 146 626 q 417 778 294 778 q 571 736 506 778 l 590 736 q 635 756 618 736 q 653 806 653 775 l 653 889 l 708 889 l 708 806 q 685 731 708 761 q 624 692 663 700 q 688 500 688 617 l 688 264 q 614 62 688 138 q 417 -14 540 -14 m 417 47 q 565 104 513 47 q 618 264 618 161 l 618 500 q 565 660 618 603 q 417 717 511 717 q 269 660 322 717 q 215 500 215 603 l 215 264 q 268 104 215 161 q 417 47 321 47 m 367 896 l 444 1001 q 468 1051 468 1035 q 417 1090 468 1090 l 294 1090 l 294 1139 l 417 1139 q 494 1117 465 1139 q 524 1057 524 1094 q 497 983 524 1021 l 435 896 l 367 896 z "},"ỡ":{"ha":833,"x_min":146,"x_max":708,"o":"m 417 -14 q 220 62 294 -14 q 146 264 146 138 l 146 500 q 220 702 146 626 q 417 778 294 778 q 571 736 506 778 l 590 736 q 635 756 618 736 q 653 806 653 775 l 653 889 l 708 889 l 708 806 q 685 731 708 761 q 624 692 663 700 q 688 500 688 617 l 688 264 q 614 62 688 138 q 417 -14 540 -14 m 417 47 q 565 104 513 47 q 618 264 618 161 l 618 500 q 565 660 618 603 q 417 717 511 717 q 269 660 322 717 q 215 500 215 603 l 215 264 q 268 104 215 161 q 417 47 321 47 m 507 903 q 441 922 468 903 q 393 966 414 940 q 351 1010 372 992 q 306 1029 331 1029 q 255 1010 274 1029 q 236 958 236 990 l 236 910 l 181 910 l 181 958 q 214 1050 181 1017 q 306 1083 247 1083 q 372 1065 344 1083 q 419 1020 399 1046 q 461 976 440 994 q 507 957 482 957 q 553 976 536 957 q 569 1028 569 996 l 569 1076 l 625 1076 l 625 1028 q 594 936 625 969 q 507 903 563 903 z "},"ő":{"ha":833,"x_min":146,"x_max":693,"o":"m 417 -14 q 220 62 294 -14 q 146 264 146 138 l 146 500 q 220 702 146 626 q 417 778 294 778 q 614 702 540 778 q 688 500 688 626 l 688 264 q 614 62 688 138 q 417 -14 540 -14 m 417 47 q 565 104 513 47 q 618 264 618 161 l 618 500 q 565 660 618 603 q 417 717 511 717 q 269 660 322 717 q 215 500 215 603 l 215 264 q 268 104 215 161 q 417 47 321 47 m 465 896 l 613 1090 l 693 1090 l 538 896 l 465 896 m 244 896 l 392 1090 l 472 1090 l 317 896 l 244 896 z "},"ō":{"ha":833,"x_min":146,"x_max":688,"o":"m 417 -14 q 220 62 294 -14 q 146 264 146 138 l 146 500 q 220 702 146 626 q 417 778 294 778 q 614 702 540 778 q 688 500 688 626 l 688 264 q 614 62 688 138 q 417 -14 540 -14 m 417 47 q 565 104 513 47 q 618 264 618 161 l 618 500 q 565 660 618 603 q 417 717 511 717 q 269 660 322 717 q 215 500 215 603 l 215 264 q 268 104 215 161 q 417 47 321 47 m 222 950 l 222 1010 l 611 1010 l 611 950 l 222 950 z "},"ǫ":{"ha":833,"x_min":146,"x_max":688,"o":"m 518 -271 q 428 -241 461 -271 q 394 -160 394 -211 q 415 -89 394 -126 q 481 -8 436 -51 q 450 -12 467 -11 q 417 -14 433 -14 q 220 62 294 -14 q 146 264 146 138 l 146 500 q 220 702 146 626 q 417 778 294 778 q 614 702 540 778 q 688 500 688 626 l 688 264 q 660 129 688 188 q 582 35 632 71 l 544 0 q 483 -76 506 -37 q 460 -143 460 -114 q 478 -194 460 -175 q 531 -212 497 -212 l 619 -212 l 619 -271 l 518 -271 m 417 47 q 565 104 513 47 q 618 264 618 161 l 618 500 q 565 660 618 603 q 417 717 511 717 q 269 660 322 717 q 215 500 215 603 l 215 264 q 268 104 215 161 q 417 47 321 47 z "},"ø":{"ha":833,"x_min":82,"x_max":751,"o":"m 82 -42 l 185 107 q 146 264 146 172 l 146 500 q 220 702 146 626 q 417 778 294 778 q 606 710 533 778 l 683 819 l 751 819 l 643 664 q 688 500 688 596 l 688 264 q 614 62 688 138 q 417 -14 540 -14 q 221 60 294 -14 l 150 -42 l 82 -42 m 215 264 q 229 169 215 211 l 568 656 q 417 717 515 717 q 269 660 322 717 q 215 500 215 603 l 215 264 m 417 47 q 565 104 513 47 q 618 264 618 161 l 618 500 q 600 603 618 558 l 260 114 q 417 47 313 47 z "},"ǿ":{"ha":833,"x_min":82,"x_max":751,"o":"m 82 -42 l 185 107 q 146 264 146 172 l 146 500 q 220 702 146 626 q 417 778 294 778 q 606 710 533 778 l 683 819 l 751 819 l 643 664 q 688 500 688 596 l 688 264 q 614 62 688 138 q 417 -14 540 -14 q 221 60 294 -14 l 150 -42 l 82 -42 m 215 264 q 229 169 215 211 l 568 656 q 417 717 515 717 q 269 660 322 717 q 215 500 215 603 l 215 264 m 417 47 q 565 104 513 47 q 618 264 618 161 l 618 500 q 600 603 618 558 l 260 114 q 417 47 313 47 m 381 896 l 528 1090 l 610 1090 l 454 896 l 381 896 z "},"õ":{"ha":833,"x_min":146,"x_max":688,"o":"m 417 -14 q 220 62 294 -14 q 146 264 146 138 l 146 500 q 220 702 146 626 q 417 778 294 778 q 614 702 540 778 q 688 500 688 626 l 688 264 q 614 62 688 138 q 417 -14 540 -14 m 417 47 q 565 104 513 47 q 618 264 618 161 l 618 500 q 565 660 618 603 q 417 717 511 717 q 269 660 322 717 q 215 500 215 603 l 215 264 q 268 104 215 161 q 417 47 321 47 m 521 903 q 455 922 482 903 q 407 966 428 940 q 365 1010 386 992 q 319 1029 344 1029 q 269 1010 288 1029 q 250 958 250 990 l 250 910 l 194 910 l 194 958 q 228 1050 194 1017 q 319 1083 261 1083 q 385 1065 358 1083 q 433 1020 413 1046 q 475 976 454 994 q 521 957 496 957 q 567 976 550 957 q 583 1028 583 996 l 583 1076 l 639 1076 l 639 1028 q 608 936 639 969 q 521 903 576 903 z "},"œ":{"ha":833,"x_min":49,"x_max":793,"o":"m 242 -14 q 101 42 153 -14 q 49 193 49 99 l 49 567 q 103 720 49 663 q 250 778 158 778 q 340 758 304 778 q 395 712 375 739 q 419 658 415 685 l 422 658 q 449 712 429 685 q 504 758 469 739 q 588 778 539 778 q 731 721 678 778 q 785 569 785 664 l 785 361 l 454 361 l 454 194 q 491 88 454 129 q 588 47 528 47 q 681 83 644 47 q 724 174 718 118 l 793 174 q 731 38 786 89 q 592 -14 676 -14 q 503 5 539 -14 q 447 51 467 24 q 422 104 428 79 l 418 104 q 393 51 414 79 q 335 5 372 24 q 242 -14 299 -14 m 254 47 q 350 88 314 47 q 386 194 386 129 l 386 569 q 350 676 386 635 q 254 717 314 717 q 157 676 194 717 q 119 567 119 635 l 119 193 q 157 88 119 128 q 254 47 194 47 m 454 431 l 715 431 l 715 569 q 679 676 715 635 q 583 717 643 717 q 490 676 525 717 q 454 569 454 635 l 454 431 z "},"p":{"ha":833,"x_min":153,"x_max":688,"o":"m 153 -250 l 153 764 l 222 764 l 222 660 l 226 660 q 306 747 251 715 q 435 778 360 778 q 619 702 550 778 q 688 501 688 626 l 688 264 q 656 118 688 181 q 567 21 624 56 q 435 -14 511 -14 q 306 17 361 -14 q 226 104 251 49 l 222 104 l 222 -250 l 153 -250 m 421 46 q 566 103 514 46 q 618 264 618 161 l 618 501 q 566 661 618 604 q 421 718 514 718 q 275 661 328 718 q 222 501 222 604 l 222 264 q 275 103 222 161 q 421 46 328 46 z "},"þ":{"ha":833,"x_min":153,"x_max":688,"o":"m 153 -250 l 153 1014 l 222 1014 l 222 660 l 226 660 q 306 747 251 715 q 435 778 361 778 q 619 701 550 778 q 688 500 688 625 l 688 263 q 619 62 688 138 q 435 -14 550 -14 q 306 17 361 -14 q 226 104 251 49 l 222 104 l 222 -250 l 153 -250 m 421 46 q 566 103 514 46 q 618 263 618 161 l 618 500 q 566 660 618 603 q 421 718 514 718 q 274 660 326 718 q 222 500 222 603 l 222 263 q 275 103 222 161 q 421 46 328 46 z "},"q":{"ha":833,"x_min":146,"x_max":681,"o":"m 611 -250 l 611 104 l 607 104 q 527 17 582 49 q 399 -14 472 -14 q 215 63 285 -14 q 146 264 146 139 l 146 501 q 215 702 146 626 q 399 778 285 778 q 527 747 472 778 q 607 660 582 715 l 611 660 l 611 764 l 681 764 l 681 -250 l 611 -250 m 413 46 q 559 104 507 46 q 611 264 611 163 l 611 501 q 559 661 611 604 q 413 718 507 718 q 267 661 319 718 q 215 501 215 604 l 215 264 q 267 104 215 163 q 413 46 319 46 z "},"r":{"ha":833,"x_min":176,"x_max":719,"o":"m 176 0 l 176 764 l 246 764 l 246 640 q 324 741 269 704 q 456 778 378 778 q 649 703 578 778 q 719 500 719 628 l 719 451 l 643 451 l 643 500 q 591 660 643 603 q 444 718 539 718 q 299 660 351 718 q 246 500 246 603 l 246 0 l 176 0 z "},"ŕ":{"ha":833,"x_min":176,"x_max":719,"o":"m 176 0 l 176 764 l 246 764 l 246 640 q 324 741 269 704 q 456 778 378 778 q 649 703 578 778 q 719 500 719 628 l 719 451 l 643 451 l 643 500 q 591 660 643 603 q 444 718 539 718 q 299 660 351 718 q 246 500 246 603 l 246 0 l 176 0 m 408 896 l 556 1090 l 638 1090 l 482 896 l 408 896 z "},"ř":{"ha":833,"x_min":176,"x_max":719,"o":"m 176 0 l 176 764 l 246 764 l 246 640 q 324 741 269 704 q 456 778 378 778 q 649 703 578 778 q 719 500 719 628 l 719 451 l 643 451 l 643 500 q 591 660 643 603 q 444 718 539 718 q 299 660 351 718 q 246 500 246 603 l 246 0 l 176 0 m 403 896 l 236 1090 l 307 1090 l 447 939 l 586 1090 l 653 1090 l 486 896 l 403 896 z "},"ŗ":{"ha":833,"x_min":69,"x_max":719,"o":"m 176 0 l 176 764 l 246 764 l 246 640 q 324 741 269 704 q 456 778 378 778 q 649 703 578 778 q 719 500 719 628 l 719 451 l 643 451 l 643 500 q 591 660 643 603 q 444 718 539 718 q 299 660 351 718 q 246 500 246 603 l 246 0 l 176 0 m 69 -333 l 194 -132 l 285 -132 l 139 -333 l 69 -333 z "},"s":{"ha":833,"x_min":129,"x_max":704,"o":"m 378 -14 q 206 42 274 -14 q 129 188 139 99 l 199 188 q 258 88 210 128 q 378 49 306 49 l 471 49 q 592 88 547 49 q 636 194 636 128 q 601 296 636 254 q 504 346 565 338 l 356 367 q 204 433 258 381 q 150 571 150 486 q 216 722 150 665 q 392 778 282 778 l 450 778 q 620 726 554 778 q 696 590 686 675 l 626 590 q 571 680 618 644 q 450 715 524 715 l 392 715 q 267 676 314 715 q 221 572 221 638 q 367 435 221 456 l 513 414 q 652 345 600 401 q 704 204 704 289 q 641 46 704 106 q 471 -14 578 -14 l 378 -14 z "},"ś":{"ha":833,"x_min":129,"x_max":704,"o":"m 378 -14 q 206 42 274 -14 q 129 188 139 99 l 199 188 q 258 88 210 128 q 378 49 306 49 l 471 49 q 592 88 547 49 q 636 194 636 128 q 601 296 636 254 q 504 346 565 338 l 356 367 q 204 433 258 381 q 150 571 150 486 q 216 722 150 665 q 392 778 282 778 l 450 778 q 620 726 554 778 q 696 590 686 675 l 626 590 q 571 680 618 644 q 450 715 524 715 l 392 715 q 267 676 314 715 q 221 572 221 638 q 367 435 221 456 l 513 414 q 652 345 600 401 q 704 204 704 289 q 641 46 704 106 q 471 -14 578 -14 l 378 -14 m 381 896 l 528 1090 l 610 1090 l 454 896 l 381 896 z "},"š":{"ha":833,"x_min":129,"x_max":704,"o":"m 378 -14 q 206 42 274 -14 q 129 188 139 99 l 199 188 q 258 88 210 128 q 378 49 306 49 l 471 49 q 592 88 547 49 q 636 194 636 128 q 601 296 636 254 q 504 346 565 338 l 356 367 q 204 433 258 381 q 150 571 150 486 q 216 722 150 665 q 392 778 282 778 l 450 778 q 620 726 554 778 q 696 590 686 675 l 626 590 q 571 680 618 644 q 450 715 524 715 l 392 715 q 267 676 314 715 q 221 572 221 638 q 367 435 221 456 l 513 414 q 652 345 600 401 q 704 204 704 289 q 641 46 704 106 q 471 -14 578 -14 l 378 -14 m 375 896 l 208 1090 l 279 1090 l 419 939 l 558 1090 l 625 1090 l 458 896 l 375 896 z "},"ş":{"ha":833,"x_min":129,"x_max":704,"o":"m 306 -271 l 306 -222 l 417 -222 q 471 -204 450 -222 q 492 -164 492 -186 q 447 -110 492 -131 q 328 -89 401 -89 l 357 -14 q 199 48 261 -7 q 129 188 138 103 l 199 188 q 258 88 210 128 q 378 49 306 49 l 471 49 q 592 88 547 49 q 636 194 636 128 q 601 296 636 254 q 504 346 565 338 l 356 367 q 204 433 258 381 q 150 571 150 486 q 216 722 150 665 q 392 778 282 778 l 450 778 q 620 726 554 778 q 696 590 686 675 l 626 590 q 571 680 618 644 q 450 715 524 715 l 392 715 q 267 676 314 715 q 221 572 221 638 q 367 435 221 456 l 513 414 q 652 345 600 401 q 704 204 704 289 q 641 46 704 106 q 471 -14 578 -14 l 415 -14 l 403 -47 q 472 -61 436 -49 q 531 -99 507 -74 q 556 -164 556 -124 q 517 -240 556 -208 q 417 -271 479 -271 l 306 -271 z "},"ŝ":{"ha":833,"x_min":129,"x_max":704,"o":"m 378 -14 q 206 42 274 -14 q 129 188 139 99 l 199 188 q 258 88 210 128 q 378 49 306 49 l 471 49 q 592 88 547 49 q 636 194 636 128 q 601 296 636 254 q 504 346 565 338 l 356 367 q 204 433 258 381 q 150 571 150 486 q 216 722 150 665 q 392 778 282 778 l 450 778 q 620 726 554 778 q 696 590 686 675 l 626 590 q 571 680 618 644 q 450 715 524 715 l 392 715 q 267 676 314 715 q 221 572 221 638 q 367 435 221 456 l 513 414 q 652 345 600 401 q 704 204 704 289 q 641 46 704 106 q 471 -14 578 -14 l 378 -14 m 208 896 l 375 1090 l 458 1090 l 625 896 l 557 896 l 417 1047 l 279 896 l 208 896 z "},"ș":{"ha":833,"x_min":129,"x_max":704,"o":"m 378 -14 q 206 42 274 -14 q 129 188 139 99 l 199 188 q 258 88 210 128 q 378 49 306 49 l 471 49 q 592 88 547 49 q 636 194 636 128 q 601 296 636 254 q 504 346 565 338 l 356 367 q 204 433 258 381 q 150 571 150 486 q 216 722 150 665 q 392 778 282 778 l 450 778 q 620 726 554 778 q 696 590 686 675 l 626 590 q 571 680 618 644 q 450 715 524 715 l 392 715 q 267 676 314 715 q 221 572 221 638 q 367 435 221 456 l 513 414 q 652 345 600 401 q 704 204 704 289 q 641 46 704 106 q 471 -14 578 -14 l 378 -14 m 299 -333 l 424 -132 l 514 -132 l 368 -333 l 299 -333 z "},"ß":{"ha":833,"x_min":153,"x_max":715,"o":"m 153 0 l 153 754 q 187 898 153 836 q 282 994 221 960 q 424 1028 343 1028 q 623 956 551 1028 q 694 764 694 885 q 651 608 694 672 q 533 522 607 543 q 667 444 619 506 q 715 289 715 383 q 638 78 715 156 q 424 0 561 0 l 338 0 l 338 63 l 424 63 q 590 119 533 61 q 646 278 646 176 q 590 434 646 379 q 424 489 533 489 l 368 489 l 368 551 l 424 551 q 571 608 517 551 q 625 757 625 665 q 572 909 625 853 q 424 965 519 965 q 277 908 332 965 q 222 754 222 850 l 222 0 l 153 0 z "},"ſ":{"ha":833,"x_min":250,"x_max":688,"o":"m 250 0 l 250 826 q 301 963 250 913 q 439 1014 353 1014 l 688 1014 l 688 951 l 438 951 q 353 917 386 951 q 319 826 319 882 l 319 0 l 250 0 z "},"t":{"ha":833,"x_min":97,"x_max":701,"o":"m 500 0 q 366 44 413 0 q 319 174 319 89 l 319 701 l 97 701 l 97 764 l 319 764 l 319 979 l 389 979 l 389 764 l 701 764 l 701 701 l 389 701 l 389 174 q 500 63 389 63 l 688 63 l 688 0 l 500 0 z "},"ŧ":{"ha":833,"x_min":97,"x_max":701,"o":"m 131 363 l 131 422 l 319 422 l 319 701 l 97 701 l 97 764 l 319 764 l 319 979 l 389 979 l 389 764 l 701 764 l 701 701 l 389 701 l 389 422 l 646 422 l 646 363 l 389 363 l 389 174 q 500 63 389 63 l 688 63 l 688 0 l 500 0 q 366 44 413 0 q 319 174 319 89 l 319 363 l 131 363 z "},"ť":{"ha":833,"x_min":97,"x_max":743,"o":"m 542 861 l 653 1078 l 743 1078 l 604 861 l 542 861 m 500 0 q 366 44 413 0 q 319 174 319 89 l 319 701 l 97 701 l 97 764 l 319 764 l 319 979 l 389 979 l 389 764 l 701 764 l 701 701 l 389 701 l 389 174 q 500 63 389 63 l 688 63 l 688 0 l 500 0 z "},"ţ":{"ha":833,"x_min":97,"x_max":701,"o":"m 375 -271 l 375 -222 l 486 -222 q 540 -204 519 -222 q 561 -164 561 -186 q 516 -110 561 -131 q 397 -89 471 -89 l 435 8 q 319 174 319 38 l 319 701 l 97 701 l 97 764 l 319 764 l 319 979 l 389 979 l 389 764 l 701 764 l 701 701 l 389 701 l 389 174 q 500 63 389 63 l 688 63 l 688 0 l 500 0 q 490 0 494 0 l 472 -47 q 541 -61 506 -49 q 601 -99 576 -74 q 625 -164 625 -124 q 587 -240 625 -208 q 486 -271 549 -271 l 375 -271 z "},"ț":{"ha":833,"x_min":97,"x_max":701,"o":"m 500 0 q 366 44 413 0 q 319 174 319 89 l 319 701 l 97 701 l 97 764 l 319 764 l 319 979 l 389 979 l 389 764 l 701 764 l 701 701 l 389 701 l 389 174 q 500 63 389 63 l 688 63 l 688 0 l 500 0 m 382 -333 l 507 -132 l 597 -132 l 451 -333 l 382 -333 z "},"u":{"ha":833,"x_min":150,"x_max":683,"o":"m 415 -14 q 221 62 292 -14 q 150 269 150 138 l 150 764 l 219 764 l 219 269 q 272 107 219 165 q 415 49 324 49 q 561 107 508 49 q 614 269 614 165 l 614 764 l 683 764 l 683 269 q 612 63 683 139 q 415 -14 540 -14 z "},"ú":{"ha":833,"x_min":150,"x_max":683,"o":"m 415 -14 q 221 62 292 -14 q 150 269 150 138 l 150 764 l 219 764 l 219 269 q 272 107 219 165 q 415 49 324 49 q 561 107 508 49 q 614 269 614 165 l 614 764 l 683 764 l 683 269 q 612 63 683 139 q 415 -14 540 -14 m 381 896 l 528 1090 l 610 1090 l 454 896 l 381 896 z "},"ŭ":{"ha":833,"x_min":150,"x_max":683,"o":"m 415 -14 q 221 62 292 -14 q 150 269 150 138 l 150 764 l 219 764 l 219 269 q 272 107 219 165 q 415 49 324 49 q 561 107 508 49 q 614 269 614 165 l 614 764 l 683 764 l 683 269 q 612 63 683 139 q 415 -14 540 -14 m 417 893 q 269 947 324 893 q 215 1090 215 1000 l 278 1090 q 315 987 278 1025 q 415 949 351 949 q 518 987 481 949 q 556 1090 556 1025 l 618 1090 q 564 947 618 1000 q 417 893 510 893 z "},"ǔ":{"ha":833,"x_min":150,"x_max":683,"o":"m 415 -14 q 221 62 292 -14 q 150 269 150 138 l 150 764 l 219 764 l 219 269 q 272 107 219 165 q 415 49 324 49 q 561 107 508 49 q 614 269 614 165 l 614 764 l 683 764 l 683 269 q 612 63 683 139 q 415 -14 540 -14 m 375 896 l 208 1090 l 279 1090 l 419 939 l 558 1090 l 625 1090 l 458 896 l 375 896 z "},"û":{"ha":833,"x_min":150,"x_max":683,"o":"m 415 -14 q 221 62 292 -14 q 150 269 150 138 l 150 764 l 219 764 l 219 269 q 272 107 219 165 q 415 49 324 49 q 561 107 508 49 q 614 269 614 165 l 614 764 l 683 764 l 683 269 q 612 63 683 139 q 415 -14 540 -14 m 208 896 l 375 1090 l 458 1090 l 625 896 l 557 896 l 417 1047 l 279 896 l 208 896 z "},"ü":{"ha":833,"x_min":150,"x_max":683,"o":"m 415 -14 q 221 62 292 -14 q 150 269 150 138 l 150 764 l 219 764 l 219 269 q 272 107 219 165 q 415 49 324 49 q 561 107 508 49 q 614 269 614 165 l 614 764 l 683 764 l 683 269 q 612 63 683 139 q 415 -14 540 -14 m 567 910 q 513 931 533 910 q 493 986 493 951 q 513 1042 493 1021 q 567 1063 533 1063 q 618 1042 599 1063 q 638 986 638 1021 q 618 931 638 951 q 567 910 599 910 m 268 910 q 216 931 236 910 q 196 986 196 951 q 216 1042 196 1021 q 268 1063 236 1063 q 320 1042 300 1063 q 340 986 340 1021 q 320 931 340 951 q 268 910 300 910 z "},"ǘ":{"ha":833,"x_min":150,"x_max":683,"o":"m 415 -14 q 221 62 292 -14 q 150 269 150 138 l 150 764 l 219 764 l 219 269 q 272 107 219 165 q 415 49 324 49 q 561 107 508 49 q 614 269 614 165 l 614 764 l 683 764 l 683 269 q 612 63 683 139 q 415 -14 540 -14 m 567 910 q 513 931 533 910 q 493 986 493 951 q 513 1042 493 1021 q 567 1063 533 1063 q 618 1042 599 1063 q 638 986 638 1021 q 618 931 638 951 q 567 910 599 910 m 268 910 q 216 931 236 910 q 196 986 196 951 q 216 1042 196 1021 q 268 1063 236 1063 q 320 1042 300 1063 q 340 986 340 1021 q 320 931 340 951 q 268 910 300 910 m 381 1194 l 528 1389 l 610 1389 l 454 1194 l 381 1194 z "},"ǚ":{"ha":833,"x_min":150,"x_max":683,"o":"m 415 -14 q 221 62 292 -14 q 150 269 150 138 l 150 764 l 219 764 l 219 269 q 272 107 219 165 q 415 49 324 49 q 561 107 508 49 q 614 269 614 165 l 614 764 l 683 764 l 683 269 q 612 63 683 139 q 415 -14 540 -14 m 567 910 q 513 931 533 910 q 493 986 493 951 q 513 1042 493 1021 q 567 1063 533 1063 q 618 1042 599 1063 q 638 986 638 1021 q 618 931 638 951 q 567 910 599 910 m 268 910 q 216 931 236 910 q 196 986 196 951 q 216 1042 196 1021 q 268 1063 236 1063 q 320 1042 300 1063 q 340 986 340 1021 q 320 931 340 951 q 268 910 300 910 m 375 1194 l 208 1389 l 279 1389 l 419 1238 l 558 1389 l 625 1389 l 458 1194 l 375 1194 z "},"ǜ":{"ha":833,"x_min":150,"x_max":683,"o":"m 415 -14 q 221 62 292 -14 q 150 269 150 138 l 150 764 l 219 764 l 219 269 q 272 107 219 165 q 415 49 324 49 q 561 107 508 49 q 614 269 614 165 l 614 764 l 683 764 l 683 269 q 612 63 683 139 q 415 -14 540 -14 m 567 910 q 513 931 533 910 q 493 986 493 951 q 513 1042 493 1021 q 567 1063 533 1063 q 618 1042 599 1063 q 638 986 638 1021 q 618 931 638 951 q 567 910 599 910 m 268 910 q 216 931 236 910 q 196 986 196 951 q 216 1042 196 1021 q 268 1063 236 1063 q 320 1042 300 1063 q 340 986 340 1021 q 320 931 340 951 q 268 910 300 910 m 393 1194 l 238 1389 l 322 1389 l 469 1194 l 393 1194 z "},"ǖ":{"ha":833,"x_min":150,"x_max":683,"o":"m 415 -14 q 221 62 292 -14 q 150 269 150 138 l 150 764 l 219 764 l 219 269 q 272 107 219 165 q 415 49 324 49 q 561 107 508 49 q 614 269 614 165 l 614 764 l 683 764 l 683 269 q 612 63 683 139 q 415 -14 540 -14 m 567 910 q 513 931 533 910 q 493 986 493 951 q 513 1042 493 1021 q 567 1063 533 1063 q 618 1042 599 1063 q 638 986 638 1021 q 618 931 638 951 q 567 910 599 910 m 268 910 q 216 931 236 910 q 196 986 196 951 q 216 1042 196 1021 q 268 1063 236 1063 q 320 1042 300 1063 q 340 986 340 1021 q 320 931 340 951 q 268 910 300 910 m 222 1249 l 222 1308 l 611 1308 l 611 1249 l 222 1249 z "},"ụ":{"ha":833,"x_min":150,"x_max":683,"o":"m 415 -14 q 221 62 292 -14 q 150 269 150 138 l 150 764 l 219 764 l 219 269 q 272 107 219 165 q 415 49 324 49 q 561 107 508 49 q 614 269 614 165 l 614 764 l 683 764 l 683 269 q 612 63 683 139 q 415 -14 540 -14 m 417 -285 q 358 -264 381 -285 q 336 -208 336 -243 q 358 -153 336 -174 q 417 -132 381 -132 q 475 -153 453 -132 q 497 -208 497 -174 q 475 -264 497 -243 q 417 -285 453 -285 z "},"ù":{"ha":833,"x_min":150,"x_max":683,"o":"m 415 -14 q 221 62 292 -14 q 150 269 150 138 l 150 764 l 219 764 l 219 269 q 272 107 219 165 q 415 49 324 49 q 561 107 508 49 q 614 269 614 165 l 614 764 l 683 764 l 683 269 q 612 63 683 139 q 415 -14 540 -14 m 393 896 l 238 1090 l 322 1090 l 469 896 l 393 896 z "},"ủ":{"ha":833,"x_min":150,"x_max":683,"o":"m 415 -14 q 221 62 292 -14 q 150 269 150 138 l 150 764 l 219 764 l 219 269 q 272 107 219 165 q 415 49 324 49 q 561 107 508 49 q 614 269 614 165 l 614 764 l 683 764 l 683 269 q 612 63 683 139 q 415 -14 540 -14 m 381 896 l 458 1001 q 482 1051 482 1035 q 431 1090 482 1090 l 308 1090 l 308 1139 l 431 1139 q 508 1117 479 1139 q 538 1057 538 1094 q 511 983 538 1021 l 449 896 l 381 896 z "},"ư":{"ha":833,"x_min":150,"x_max":800,"o":"m 150 269 l 150 764 l 219 764 l 219 269 q 272 107 219 165 q 415 49 324 49 q 561 107 508 49 q 614 269 614 165 l 614 764 l 682 764 q 727 783 710 764 q 744 833 744 803 l 744 917 l 800 917 l 800 833 q 768 748 800 781 q 683 715 736 715 l 683 269 q 612 63 683 139 q 415 -14 540 -14 q 221 62 292 -14 q 150 269 150 138 z "},"ứ":{"ha":833,"x_min":150,"x_max":800,"o":"m 150 269 l 150 764 l 219 764 l 219 269 q 272 107 219 165 q 415 49 324 49 q 561 107 508 49 q 614 269 614 165 l 614 764 l 682 764 q 727 783 710 764 q 744 833 744 803 l 744 917 l 800 917 l 800 833 q 768 748 800 781 q 683 715 736 715 l 683 269 q 612 63 683 139 q 415 -14 540 -14 q 221 62 292 -14 q 150 269 150 138 m 381 896 l 528 1090 l 610 1090 l 454 896 l 381 896 z "},"ự":{"ha":833,"x_min":150,"x_max":800,"o":"m 150 269 l 150 764 l 219 764 l 219 269 q 272 107 219 165 q 415 49 324 49 q 561 107 508 49 q 614 269 614 165 l 614 764 l 682 764 q 727 783 710 764 q 744 833 744 803 l 744 917 l 800 917 l 800 833 q 768 748 800 781 q 683 715 736 715 l 683 269 q 612 63 683 139 q 415 -14 540 -14 q 221 62 292 -14 q 150 269 150 138 m 415 -285 q 357 -264 379 -285 q 335 -208 335 -243 q 357 -153 335 -174 q 415 -132 379 -132 q 474 -153 451 -132 q 496 -208 496 -174 q 474 -264 496 -243 q 415 -285 451 -285 z "},"ừ":{"ha":833,"x_min":150,"x_max":800,"o":"m 150 269 l 150 764 l 219 764 l 219 269 q 272 107 219 165 q 415 49 324 49 q 561 107 508 49 q 614 269 614 165 l 614 764 l 682 764 q 727 783 710 764 q 744 833 744 803 l 744 917 l 800 917 l 800 833 q 768 748 800 781 q 683 715 736 715 l 683 269 q 612 63 683 139 q 415 -14 540 -14 q 221 62 292 -14 q 150 269 150 138 m 393 896 l 238 1090 l 322 1090 l 469 896 l 393 896 z "},"ử":{"ha":833,"x_min":150,"x_max":800,"o":"m 150 269 l 150 764 l 219 764 l 219 269 q 272 107 219 165 q 415 49 324 49 q 561 107 508 49 q 614 269 614 165 l 614 764 l 682 764 q 727 783 710 764 q 744 833 744 803 l 744 917 l 800 917 l 800 833 q 768 748 800 781 q 683 715 736 715 l 683 269 q 612 63 683 139 q 415 -14 540 -14 q 221 62 292 -14 q 150 269 150 138 m 381 896 l 458 1001 q 482 1051 482 1035 q 431 1090 482 1090 l 308 1090 l 308 1139 l 431 1139 q 508 1117 479 1139 q 538 1057 538 1094 q 511 983 538 1021 l 449 896 l 381 896 z "},"ữ":{"ha":833,"x_min":150,"x_max":800,"o":"m 150 269 l 150 764 l 219 764 l 219 269 q 272 107 219 165 q 415 49 324 49 q 561 107 508 49 q 614 269 614 165 l 614 764 l 682 764 q 727 783 710 764 q 744 833 744 803 l 744 917 l 800 917 l 800 833 q 768 748 800 781 q 683 715 736 715 l 683 269 q 612 63 683 139 q 415 -14 540 -14 q 221 62 292 -14 q 150 269 150 138 m 521 903 q 455 922 482 903 q 407 966 428 940 q 365 1010 386 992 q 319 1029 344 1029 q 269 1010 288 1029 q 250 958 250 990 l 250 910 l 194 910 l 194 958 q 228 1050 194 1017 q 319 1083 261 1083 q 385 1065 358 1083 q 433 1020 413 1046 q 475 976 454 994 q 521 957 496 957 q 567 976 550 957 q 583 1028 583 996 l 583 1076 l 639 1076 l 639 1028 q 608 936 639 969 q 521 903 576 903 z "},"ű":{"ha":833,"x_min":150,"x_max":693,"o":"m 415 -14 q 221 62 292 -14 q 150 269 150 138 l 150 764 l 219 764 l 219 269 q 272 107 219 165 q 415 49 324 49 q 561 107 508 49 q 614 269 614 165 l 614 764 l 683 764 l 683 269 q 612 63 683 139 q 415 -14 540 -14 m 465 896 l 613 1090 l 693 1090 l 538 896 l 465 896 m 244 896 l 392 1090 l 472 1090 l 317 896 l 244 896 z "},"ū":{"ha":833,"x_min":150,"x_max":683,"o":"m 415 -14 q 221 62 292 -14 q 150 269 150 138 l 150 764 l 219 764 l 219 269 q 272 107 219 165 q 415 49 324 49 q 561 107 508 49 q 614 269 614 165 l 614 764 l 683 764 l 683 269 q 612 63 683 139 q 415 -14 540 -14 m 222 950 l 222 1010 l 611 1010 l 611 950 l 222 950 z "},"ų":{"ha":833,"x_min":150,"x_max":683,"o":"m 518 -271 q 428 -241 461 -271 q 394 -160 394 -211 q 415 -89 394 -126 q 481 -8 436 -51 q 450 -12 467 -11 q 417 -14 433 -14 q 222 62 294 -14 q 150 264 150 138 l 150 764 l 219 764 l 219 264 q 270 104 219 161 q 417 47 321 47 q 563 104 513 47 q 614 264 614 161 l 614 764 l 683 764 l 683 264 q 582 35 683 107 l 544 0 q 483 -76 506 -37 q 460 -143 460 -114 q 478 -194 460 -175 q 531 -212 497 -212 l 619 -212 l 619 -271 l 518 -271 z "},"ů":{"ha":833,"x_min":150,"x_max":683,"o":"m 415 -14 q 221 62 292 -14 q 150 269 150 138 l 150 764 l 219 764 l 219 269 q 272 107 219 165 q 415 49 324 49 q 561 107 508 49 q 614 269 614 165 l 614 764 l 683 764 l 683 269 q 612 63 683 139 q 415 -14 540 -14 m 418 854 q 312 892 353 854 q 271 993 271 931 q 312 1094 271 1056 q 418 1132 353 1132 q 523 1094 483 1132 q 563 993 563 1056 q 523 892 563 931 q 418 854 483 854 m 417 903 q 482 928 457 903 q 507 993 507 953 q 482 1058 507 1033 q 417 1083 457 1083 q 351 1058 376 1083 q 326 993 326 1033 q 351 928 326 953 q 417 903 376 903 z "},"ũ":{"ha":833,"x_min":150,"x_max":683,"o":"m 415 -14 q 221 62 292 -14 q 150 269 150 138 l 150 764 l 219 764 l 219 269 q 272 107 219 165 q 415 49 324 49 q 561 107 508 49 q 614 269 614 165 l 614 764 l 683 764 l 683 269 q 612 63 683 139 q 415 -14 540 -14 m 521 903 q 455 922 482 903 q 407 966 428 940 q 365 1010 386 992 q 319 1029 344 1029 q 269 1010 288 1029 q 250 958 250 990 l 250 910 l 194 910 l 194 958 q 228 1050 194 1017 q 319 1083 261 1083 q 385 1065 358 1083 q 433 1020 413 1046 q 475 976 454 994 q 521 957 496 957 q 567 976 550 957 q 583 1028 583 996 l 583 1076 l 639 1076 l 639 1028 q 608 936 639 969 q 521 903 576 903 z "},"v":{"ha":833,"x_min":106,"x_max":728,"o":"m 374 0 l 106 764 l 179 764 l 374 194 q 399 116 386 157 q 418 51 411 75 q 438 116 425 75 q 464 194 451 157 l 657 764 l 728 764 l 460 0 l 374 0 z "},"w":{"ha":833,"x_min":69,"x_max":764,"o":"m 199 0 l 69 764 l 135 764 l 229 196 q 239 122 235 165 q 246 49 243 78 l 249 49 q 258 121 251 78 q 271 194 265 164 l 382 764 l 454 764 l 565 194 q 578 121 572 164 q 588 49 585 78 l 590 49 q 597 122 593 78 q 606 196 600 165 l 700 764 l 764 764 l 633 0 l 542 0 l 446 543 q 431 627 440 581 q 419 704 422 674 l 417 704 q 406 627 414 674 q 390 543 397 581 l 290 0 l 199 0 z "},"ẃ":{"ha":833,"x_min":69,"x_max":764,"o":"m 199 0 l 69 764 l 135 764 l 229 196 q 239 122 235 165 q 246 49 243 78 l 249 49 q 258 121 251 78 q 271 194 265 164 l 382 764 l 454 764 l 565 194 q 578 121 572 164 q 588 49 585 78 l 590 49 q 597 122 593 78 q 606 196 600 165 l 700 764 l 764 764 l 633 0 l 542 0 l 446 543 q 431 627 440 581 q 419 704 422 674 l 417 704 q 406 627 414 674 q 390 543 397 581 l 290 0 l 199 0 m 381 896 l 528 1090 l 610 1090 l 454 896 l 381 896 z "},"ŵ":{"ha":833,"x_min":69,"x_max":764,"o":"m 199 0 l 69 764 l 135 764 l 229 196 q 239 122 235 165 q 246 49 243 78 l 249 49 q 258 121 251 78 q 271 194 265 164 l 382 764 l 454 764 l 565 194 q 578 121 572 164 q 588 49 585 78 l 590 49 q 597 122 593 78 q 606 196 600 165 l 700 764 l 764 764 l 633 0 l 542 0 l 446 543 q 431 627 440 581 q 419 704 422 674 l 417 704 q 406 627 414 674 q 390 543 397 581 l 290 0 l 199 0 m 208 896 l 375 1090 l 458 1090 l 625 896 l 557 896 l 417 1047 l 279 896 l 208 896 z "},"ẅ":{"ha":833,"x_min":69,"x_max":764,"o":"m 199 0 l 69 764 l 135 764 l 229 196 q 239 122 235 165 q 246 49 243 78 l 249 49 q 258 121 251 78 q 271 194 265 164 l 382 764 l 454 764 l 565 194 q 578 121 572 164 q 588 49 585 78 l 590 49 q 597 122 593 78 q 606 196 600 165 l 700 764 l 764 764 l 633 0 l 542 0 l 446 543 q 431 627 440 581 q 419 704 422 674 l 417 704 q 406 627 414 674 q 390 543 397 581 l 290 0 l 199 0 m 567 910 q 513 931 533 910 q 493 986 493 951 q 513 1042 493 1021 q 567 1063 533 1063 q 618 1042 599 1063 q 638 986 638 1021 q 618 931 638 951 q 567 910 599 910 m 268 910 q 216 931 236 910 q 196 986 196 951 q 216 1042 196 1021 q 268 1063 236 1063 q 320 1042 300 1063 q 340 986 340 1021 q 320 931 340 951 q 268 910 300 910 z "},"ẁ":{"ha":833,"x_min":69,"x_max":764,"o":"m 199 0 l 69 764 l 135 764 l 229 196 q 239 122 235 165 q 246 49 243 78 l 249 49 q 258 121 251 78 q 271 194 265 164 l 382 764 l 454 764 l 565 194 q 578 121 572 164 q 588 49 585 78 l 590 49 q 597 122 593 78 q 606 196 600 165 l 700 764 l 764 764 l 633 0 l 542 0 l 446 543 q 431 627 440 581 q 419 704 422 674 l 417 704 q 406 627 414 674 q 390 543 397 581 l 290 0 l 199 0 m 393 896 l 238 1090 l 322 1090 l 469 896 l 393 896 z "},"x":{"ha":833,"x_min":104,"x_max":729,"o":"m 104 0 l 376 392 l 121 764 l 203 764 l 388 486 q 403 461 394 475 q 418 438 413 447 q 434 462 425 447 q 450 486 443 476 l 633 764 l 714 764 l 458 392 l 729 0 l 649 0 l 453 292 q 434 319 444 304 q 417 344 424 335 q 400 319 411 335 q 381 292 389 304 l 183 0 l 104 0 z "},"y":{"ha":833,"x_min":106,"x_max":728,"o":"m 276 -250 l 389 54 l 106 764 l 183 764 l 372 278 q 403 200 388 239 q 425 140 418 161 q 447 201 433 161 q 475 281 461 240 l 651 764 l 728 764 l 347 -250 l 276 -250 z "},"ý":{"ha":833,"x_min":106,"x_max":728,"o":"m 276 -250 l 389 54 l 106 764 l 183 764 l 372 278 q 403 200 388 239 q 425 140 418 161 q 447 201 433 161 q 475 281 461 240 l 651 764 l 728 764 l 347 -250 l 276 -250 m 381 896 l 528 1090 l 610 1090 l 454 896 l 381 896 z "},"ŷ":{"ha":833,"x_min":106,"x_max":728,"o":"m 276 -250 l 389 54 l 106 764 l 183 764 l 372 278 q 403 200 388 239 q 425 140 418 161 q 447 201 433 161 q 475 281 461 240 l 651 764 l 728 764 l 347 -250 l 276 -250 m 208 896 l 375 1090 l 458 1090 l 625 896 l 557 896 l 417 1047 l 279 896 l 208 896 z "},"ÿ":{"ha":833,"x_min":106,"x_max":728,"o":"m 276 -250 l 389 54 l 106 764 l 183 764 l 372 278 q 403 200 388 239 q 425 140 418 161 q 447 201 433 161 q 475 281 461 240 l 651 764 l 728 764 l 347 -250 l 276 -250 m 567 910 q 513 931 533 910 q 493 986 493 951 q 513 1042 493 1021 q 567 1063 533 1063 q 618 1042 599 1063 q 638 986 638 1021 q 618 931 638 951 q 567 910 599 910 m 268 910 q 216 931 236 910 q 196 986 196 951 q 216 1042 196 1021 q 268 1063 236 1063 q 320 1042 300 1063 q 340 986 340 1021 q 320 931 340 951 q 268 910 300 910 z "},"ỵ":{"ha":833,"x_min":106,"x_max":728,"o":"m 276 -250 l 389 54 l 106 764 l 183 764 l 372 278 q 403 200 388 239 q 425 140 418 161 q 447 201 433 161 q 475 281 461 240 l 651 764 l 728 764 l 347 -250 l 276 -250 m 625 -285 q 567 -264 589 -285 q 544 -208 544 -243 q 567 -153 544 -174 q 625 -132 589 -132 q 683 -153 661 -132 q 706 -208 706 -174 q 683 -264 706 -243 q 625 -285 661 -285 z "},"ỳ":{"ha":833,"x_min":106,"x_max":728,"o":"m 276 -250 l 389 54 l 106 764 l 183 764 l 372 278 q 403 200 388 239 q 425 140 418 161 q 447 201 433 161 q 475 281 461 240 l 651 764 l 728 764 l 347 -250 l 276 -250 m 393 896 l 238 1090 l 322 1090 l 469 896 l 393 896 z "},"ỷ":{"ha":833,"x_min":106,"x_max":728,"o":"m 276 -250 l 389 54 l 106 764 l 183 764 l 372 278 q 403 200 388 239 q 425 140 418 161 q 447 201 433 161 q 475 281 461 240 l 651 764 l 728 764 l 347 -250 l 276 -250 m 381 896 l 458 1001 q 482 1051 482 1035 q 431 1090 482 1090 l 308 1090 l 308 1139 l 431 1139 q 508 1117 479 1139 q 538 1057 538 1094 q 511 983 538 1021 l 449 896 l 381 896 z "},"ȳ":{"ha":833,"x_min":106,"x_max":728,"o":"m 276 -250 l 389 54 l 106 764 l 183 764 l 372 278 q 403 200 388 239 q 425 140 418 161 q 447 201 433 161 q 475 281 461 240 l 651 764 l 728 764 l 347 -250 l 276 -250 m 222 950 l 222 1010 l 611 1010 l 611 950 l 222 950 z "},"ỹ":{"ha":833,"x_min":106,"x_max":728,"o":"m 276 -250 l 389 54 l 106 764 l 183 764 l 372 278 q 403 200 388 239 q 425 140 418 161 q 447 201 433 161 q 475 281 461 240 l 651 764 l 728 764 l 347 -250 l 276 -250 m 521 903 q 455 922 482 903 q 407 966 428 940 q 365 1010 386 992 q 319 1029 344 1029 q 269 1010 288 1029 q 250 958 250 990 l 250 910 l 194 910 l 194 958 q 228 1050 194 1017 q 319 1083 261 1083 q 385 1065 358 1083 q 433 1020 413 1046 q 475 976 454 994 q 521 957 496 957 q 567 976 550 957 q 583 1028 583 996 l 583 1076 l 639 1076 l 639 1028 q 608 936 639 969 q 521 903 576 903 z "},"z":{"ha":833,"x_min":143,"x_max":690,"o":"m 143 0 l 143 64 l 593 701 l 156 701 l 156 764 l 672 764 l 672 699 l 221 63 l 690 63 l 690 0 l 143 0 z "},"ź":{"ha":833,"x_min":143,"x_max":690,"o":"m 143 0 l 143 64 l 593 701 l 156 701 l 156 764 l 672 764 l 672 699 l 221 63 l 690 63 l 690 0 l 143 0 m 381 896 l 528 1090 l 610 1090 l 454 896 l 381 896 z "},"ž":{"ha":833,"x_min":143,"x_max":690,"o":"m 143 0 l 143 64 l 593 701 l 156 701 l 156 764 l 672 764 l 672 699 l 221 63 l 690 63 l 690 0 l 143 0 m 375 896 l 208 1090 l 279 1090 l 419 939 l 558 1090 l 625 1090 l 458 896 l 375 896 z "},"ż":{"ha":833,"x_min":143,"x_max":690,"o":"m 143 0 l 143 64 l 593 701 l 156 701 l 156 764 l 672 764 l 672 699 l 221 63 l 690 63 l 690 0 l 143 0 m 417 910 q 358 931 381 910 q 336 986 336 951 q 358 1042 336 1021 q 417 1063 381 1063 q 475 1042 453 1063 q 497 986 497 1021 q 475 931 497 951 q 417 910 453 910 z "},"ª":{"ha":833,"x_min":250,"x_max":576,"o":"m 381 625 q 285 657 321 625 q 250 743 250 689 q 286 828 250 796 q 382 861 322 861 l 528 861 l 528 903 q 499 963 528 940 q 424 986 471 986 q 355 967 383 986 q 319 917 326 949 l 271 917 q 322 997 281 967 q 424 1028 364 1028 q 535 994 493 1028 q 576 903 576 960 l 576 632 l 532 632 l 532 708 l 528 708 q 474 648 514 671 q 381 625 433 625 m 399 664 q 492 693 457 664 q 528 771 528 722 l 528 819 l 382 819 q 322 799 344 819 q 299 743 299 778 q 326 685 299 707 q 399 664 353 664 z "},"º":{"ha":833,"x_min":265,"x_max":568,"o":"m 417 618 q 307 654 349 618 q 265 750 265 690 l 265 896 q 307 992 265 956 q 417 1028 349 1028 q 526 992 485 1028 q 568 896 568 956 l 568 750 q 526 654 568 690 q 417 618 485 618 m 417 660 q 492 685 464 660 q 521 750 521 710 l 521 896 q 492 961 521 936 q 417 986 464 986 q 341 961 369 986 q 313 896 313 936 l 313 750 q 341 685 313 710 q 417 660 369 660 z "},"А":{"ha":833,"x_min":94,"x_max":739,"o":"m 94 0 l 374 1014 l 460 1014 l 739 0 l 667 0 l 589 292 l 242 292 l 164 0 l 94 0 m 258 354 l 572 354 l 463 764 q 431 890 443 839 q 417 956 419 940 q 401 890 414 940 q 369 764 389 839 l 258 354 z "},"Б":{"ha":833,"x_min":153,"x_max":717,"o":"m 153 0 l 153 1014 l 675 1014 l 675 951 l 222 951 l 222 563 l 425 563 q 638 487 558 563 q 717 283 717 411 q 638 77 717 154 q 425 0 558 0 l 153 0 m 222 63 l 425 63 q 588 121 529 63 q 647 282 647 179 q 588 442 647 385 q 425 500 529 500 l 222 500 l 222 63 z "},"В":{"ha":833,"x_min":153,"x_max":717,"o":"m 153 0 l 153 1014 l 414 1014 q 616 943 540 1014 q 692 753 692 872 q 650 602 692 664 q 535 522 608 540 q 668 440 619 504 q 717 278 717 375 q 636 76 717 151 q 418 0 556 0 l 153 0 m 222 553 l 414 553 q 567 606 513 553 q 622 751 622 658 q 567 897 622 844 q 414 950 511 950 l 222 950 l 222 553 m 222 64 l 418 64 q 586 121 525 64 q 647 276 647 178 q 586 433 647 375 q 418 490 525 490 l 222 490 l 222 64 z "},"Г":{"ha":833,"x_min":194,"x_max":757,"o":"m 194 0 l 194 1014 l 757 1014 l 757 951 l 264 951 l 264 0 l 194 0 z "},"Ѓ":{"ha":833,"x_min":194,"x_max":757,"o":"m 194 0 l 194 1014 l 757 1014 l 757 951 l 264 951 l 264 0 l 194 0 m 394 1125 l 542 1319 l 624 1319 l 468 1125 l 394 1125 z "},"Ґ":{"ha":833,"x_min":194,"x_max":757,"o":"m 194 0 l 194 1014 l 688 1014 l 688 1146 l 757 1146 l 757 951 l 264 951 l 264 0 l 194 0 z "},"Д":{"ha":833,"x_min":67,"x_max":764,"o":"m 67 -194 l 67 63 l 114 63 q 155 135 133 88 q 192 245 176 182 q 210 383 208 308 l 224 1014 l 664 1014 l 664 63 l 764 63 l 764 -194 l 701 -194 l 701 0 l 129 0 l 129 -194 l 67 -194 m 188 63 l 594 63 l 594 951 l 293 951 l 279 383 q 246 185 276 271 q 188 63 215 100 z "},"Е":{"ha":833,"x_min":167,"x_max":708,"o":"m 167 0 l 167 1014 l 708 1014 l 708 950 l 236 950 l 236 560 l 660 560 l 660 497 l 236 497 l 236 64 l 708 64 l 708 0 l 167 0 z "},"Ё":{"ha":833,"x_min":167,"x_max":708,"o":"m 167 0 l 167 1014 l 708 1014 l 708 950 l 236 950 l 236 560 l 660 560 l 660 497 l 236 497 l 236 64 l 708 64 l 708 0 l 167 0 m 597 1146 q 544 1167 564 1146 q 524 1222 524 1188 q 544 1278 524 1257 q 597 1299 564 1299 q 649 1278 629 1299 q 668 1222 668 1257 q 649 1167 668 1188 q 597 1146 629 1146 m 299 1146 q 247 1167 267 1146 q 226 1222 226 1188 q 247 1278 226 1257 q 299 1299 267 1299 q 351 1278 331 1299 q 371 1222 371 1257 q 351 1167 371 1188 q 299 1146 331 1146 z "},"Ж":{"ha":833,"x_min":40,"x_max":792,"o":"m 40 0 l 226 526 l 53 1014 l 125 1014 l 286 550 l 385 550 l 385 1014 l 446 1014 l 446 550 l 544 550 l 707 1014 l 778 1014 l 604 526 l 792 0 l 718 0 l 544 492 l 446 492 l 446 0 l 385 0 l 385 492 l 286 492 l 113 0 l 40 0 z "},"З":{"ha":833,"x_min":89,"x_max":717,"o":"m 403 -14 q 239 22 310 -14 q 128 122 168 58 q 89 268 89 185 l 158 268 q 226 110 158 171 q 403 49 294 49 q 579 110 511 49 q 647 268 647 171 q 579 428 647 367 q 403 490 511 490 l 299 490 l 299 553 l 396 553 q 560 610 497 553 q 622 760 622 668 q 560 909 622 851 q 396 967 497 967 q 232 909 294 967 q 169 760 169 851 l 100 760 q 138 899 100 839 q 242 994 175 960 q 396 1028 308 1028 q 550 994 483 1028 q 654 899 617 960 q 692 760 692 839 q 645 604 692 668 q 521 521 599 540 q 663 436 610 503 q 717 272 717 369 q 677 123 717 188 q 567 22 638 58 q 403 -14 496 -14 z "},"И":{"ha":833,"x_min":151,"x_max":682,"o":"m 151 0 l 151 1014 l 218 1014 l 218 236 q 217 140 218 183 q 215 76 217 96 l 585 1014 l 682 1014 l 682 0 l 615 0 l 615 778 q 616 816 615 789 q 618 876 617 843 q 621 938 619 910 l 247 0 l 151 0 z "},"Й":{"ha":833,"x_min":151,"x_max":682,"o":"m 151 0 l 151 1014 l 218 1014 l 218 236 q 217 140 218 183 q 215 76 217 96 l 585 1014 l 682 1014 l 682 0 l 615 0 l 615 778 q 616 816 615 789 q 618 876 617 843 q 621 938 619 910 l 247 0 l 151 0 m 417 1122 q 269 1176 324 1122 q 215 1319 215 1229 l 278 1319 q 315 1216 278 1254 q 415 1178 351 1178 q 518 1216 481 1178 q 556 1319 556 1254 l 618 1319 q 564 1176 618 1229 q 417 1122 510 1122 z "},"К":{"ha":833,"x_min":153,"x_max":750,"o":"m 153 0 l 153 1014 l 222 1014 l 222 557 l 435 557 l 660 1014 l 736 1014 l 497 529 l 750 0 l 668 0 l 433 494 l 222 494 l 222 0 l 153 0 z "},"Ќ":{"ha":833,"x_min":153,"x_max":750,"o":"m 153 0 l 153 1014 l 222 1014 l 222 557 l 435 557 l 660 1014 l 736 1014 l 497 529 l 750 0 l 668 0 l 433 494 l 222 494 l 222 0 l 153 0 m 367 1125 l 514 1319 l 596 1319 l 440 1125 l 367 1125 z "},"Л":{"ha":833,"x_min":35,"x_max":681,"o":"m 35 -7 l 35 63 l 76 63 q 160 108 129 63 q 193 228 192 153 l 204 1014 l 681 1014 l 681 0 l 611 0 l 611 950 l 274 950 l 263 228 q 211 57 261 121 q 76 -7 161 -7 l 35 -7 z "},"М":{"ha":833,"x_min":128,"x_max":706,"o":"m 128 0 l 128 1014 l 232 1014 l 374 625 q 398 558 385 594 q 418 499 411 522 q 438 558 425 522 q 463 625 451 594 l 603 1014 l 706 1014 l 706 0 l 638 0 l 638 611 q 639 752 638 682 q 642 882 640 822 q 644 979 643 942 l 456 451 l 379 451 l 188 979 q 192 882 190 942 q 194 752 193 822 q 196 611 196 682 l 196 0 l 128 0 z "},"Н":{"ha":833,"x_min":153,"x_max":681,"o":"m 153 0 l 153 1014 l 222 1014 l 222 558 l 611 558 l 611 1014 l 681 1014 l 681 0 l 611 0 l 611 494 l 222 494 l 222 0 l 153 0 z "},"О":{"ha":833,"x_min":146,"x_max":688,"o":"m 417 -14 q 220 62 294 -14 q 146 264 146 138 l 146 750 q 220 952 146 876 q 417 1028 294 1028 q 614 952 540 1028 q 688 750 688 876 l 688 264 q 614 62 688 138 q 417 -14 540 -14 m 417 47 q 565 104 513 47 q 618 264 618 161 l 618 750 q 565 910 618 853 q 417 967 511 967 q 269 910 322 967 q 215 750 215 853 l 215 264 q 268 104 215 161 q 417 47 321 47 z "},"П":{"ha":833,"x_min":153,"x_max":681,"o":"m 153 0 l 153 1014 l 681 1014 l 681 0 l 611 0 l 611 951 l 222 951 l 222 0 l 153 0 z "},"Р":{"ha":833,"x_min":153,"x_max":743,"o":"m 153 0 l 153 1014 l 451 1014 q 664 937 585 1014 q 743 732 743 860 q 663 527 743 604 q 451 450 583 450 l 222 450 l 222 0 l 153 0 m 222 514 l 451 514 q 613 573 553 514 q 674 732 674 632 q 614 892 674 833 q 451 950 554 950 l 222 950 l 222 514 z "},"С":{"ha":833,"x_min":146,"x_max":708,"o":"m 425 -14 q 222 62 299 -14 q 146 264 146 138 l 146 750 q 222 953 146 878 q 425 1028 299 1028 q 631 949 554 1028 q 708 736 708 869 l 639 736 q 581 904 639 843 q 425 965 524 965 q 272 908 328 965 q 215 750 215 850 l 215 264 q 272 106 215 164 q 425 49 328 49 q 582 110 525 49 q 639 278 639 172 l 708 278 q 631 65 708 144 q 425 -14 554 -14 z "},"Т":{"ha":833,"x_min":83,"x_max":750,"o":"m 383 0 l 383 951 l 83 951 l 83 1014 l 750 1014 l 750 951 l 453 951 l 453 0 l 383 0 z "},"У":{"ha":833,"x_min":94,"x_max":739,"o":"m 290 0 l 394 265 l 94 1014 l 174 1014 l 365 518 q 401 422 383 472 q 428 343 418 372 q 453 422 438 372 q 486 518 469 472 l 664 1014 l 739 1014 l 369 0 l 290 0 z "},"Ў":{"ha":833,"x_min":94,"x_max":739,"o":"m 290 0 l 394 265 l 94 1014 l 174 1014 l 365 518 q 401 422 383 472 q 428 343 418 372 q 453 422 438 372 q 486 518 469 472 l 664 1014 l 739 1014 l 369 0 l 290 0 m 417 1122 q 269 1176 324 1122 q 215 1319 215 1229 l 278 1319 q 315 1216 278 1254 q 415 1178 351 1178 q 518 1216 481 1178 q 556 1319 556 1254 l 618 1319 q 564 1176 618 1229 q 417 1122 510 1122 z "},"Ф":{"ha":833,"x_min":92,"x_max":742,"o":"m 382 -35 l 382 63 q 169 138 247 63 q 92 343 92 214 l 92 694 q 169 897 92 822 q 382 972 247 972 l 382 1069 l 451 1069 l 451 972 q 665 897 588 972 q 742 694 742 822 l 742 343 q 664 138 742 214 q 451 63 586 63 l 451 -35 l 382 -35 m 382 125 l 382 910 q 267 882 317 910 q 189 806 217 854 q 161 694 161 757 l 161 343 q 190 231 161 281 q 268 153 218 182 q 382 125 318 125 m 451 125 q 566 153 517 125 q 644 231 615 182 q 672 343 672 281 l 672 694 q 644 806 672 757 q 567 882 617 854 q 451 910 517 910 l 451 125 z "},"Х":{"ha":833,"x_min":74,"x_max":760,"o":"m 74 0 l 375 528 l 94 1014 l 172 1014 l 342 706 q 377 643 354 682 q 417 576 400 604 q 455 643 432 604 q 492 706 478 682 l 664 1014 l 739 1014 l 458 531 l 760 0 l 682 0 l 493 350 q 458 411 481 372 q 418 479 435 450 q 379 411 401 450 q 344 350 357 372 l 150 0 l 74 0 z "},"Ч":{"ha":833,"x_min":125,"x_max":681,"o":"m 611 0 l 613 433 q 521 422 575 426 q 415 417 467 417 q 125 682 125 417 l 125 1014 l 194 1014 l 194 682 q 251 528 194 576 q 429 479 307 479 q 524 483 474 479 q 611 494 575 488 l 611 1014 l 681 1014 l 681 0 l 611 0 z "},"Ц":{"ha":833,"x_min":153,"x_max":764,"o":"m 694 -194 l 694 0 l 153 0 l 153 1014 l 222 1014 l 222 63 l 588 63 l 588 1014 l 657 1014 l 657 63 l 764 63 l 764 -194 l 694 -194 z "},"Ш":{"ha":833,"x_min":106,"x_max":728,"o":"m 106 0 l 106 1014 l 172 1014 l 172 60 l 383 60 l 383 1014 l 450 1014 l 450 60 l 661 60 l 661 1014 l 728 1014 l 728 0 l 106 0 z "},"Щ":{"ha":833,"x_min":106,"x_max":785,"o":"m 715 -194 l 715 0 l 106 0 l 106 1014 l 172 1014 l 172 60 l 379 60 l 379 1014 l 446 1014 l 446 60 l 653 60 l 653 1014 l 719 1014 l 719 60 l 785 60 l 785 -194 l 715 -194 z "},"Џ":{"ha":833,"x_min":153,"x_max":681,"o":"m 379 -174 l 379 0 l 153 0 l 153 1014 l 229 1014 l 229 69 l 604 69 l 604 1014 l 681 1014 l 681 0 l 456 0 l 456 -174 l 379 -174 z "},"Ь":{"ha":833,"x_min":153,"x_max":729,"o":"m 153 0 l 153 1014 l 222 1014 l 222 583 l 431 583 q 648 504 567 583 q 729 292 729 425 q 648 79 729 158 q 431 0 567 0 l 153 0 m 222 63 l 431 63 q 597 125 535 63 q 658 292 658 188 q 597 458 658 396 q 431 521 535 521 l 222 521 l 222 63 z "},"Ъ":{"ha":833,"x_min":14,"x_max":729,"o":"m 194 0 l 194 944 l 14 944 l 14 1014 l 264 1014 l 264 583 l 431 583 q 648 504 567 583 q 729 292 729 425 q 648 79 729 158 q 431 0 567 0 l 194 0 m 264 63 l 431 63 q 597 125 535 63 q 658 292 658 188 q 597 458 658 396 q 431 521 535 521 l 264 521 l 264 63 z "},"Ы":{"ha":833,"x_min":111,"x_max":722,"o":"m 111 0 l 111 1014 l 181 1014 l 181 583 l 257 583 q 454 511 381 583 q 528 319 528 439 l 528 264 q 454 72 528 144 q 257 0 381 0 l 111 0 m 653 0 l 653 1014 l 722 1014 l 722 0 l 653 0 m 181 63 l 257 63 q 405 117 351 63 q 458 264 458 171 l 458 319 q 405 467 458 414 q 257 521 351 521 l 181 521 l 181 63 z "},"Љ":{"ha":833,"x_min":-7,"x_max":785,"o":"m -7 -7 l -7 63 l 28 63 q 99 104 74 63 q 126 219 125 146 l 139 1014 l 482 1014 l 482 583 l 576 583 q 728 527 672 583 q 785 375 785 471 l 785 208 q 728 56 785 113 q 576 0 672 0 l 413 0 l 413 951 l 208 951 l 196 219 q 149 55 194 117 q 28 -7 103 -7 l -7 -7 m 482 63 l 576 63 q 678 101 642 63 q 715 208 715 140 l 715 375 q 678 482 715 443 q 576 521 642 521 l 482 521 l 482 63 z "},"Њ":{"ha":833,"x_min":86,"x_max":785,"o":"m 86 0 l 86 1014 l 156 1014 l 156 583 l 413 583 l 413 1014 l 482 1014 l 482 583 l 569 583 q 726 527 668 583 q 785 375 785 471 l 785 208 q 726 56 785 113 q 569 0 668 0 l 413 0 l 413 521 l 156 521 l 156 0 l 86 0 m 482 63 l 569 63 q 676 101 638 63 q 715 208 715 140 l 715 375 q 676 482 715 443 q 569 521 638 521 l 482 521 l 482 63 z "},"Ѕ":{"ha":833,"x_min":118,"x_max":715,"o":"m 424 -14 q 201 60 283 -14 q 118 257 118 133 l 188 257 q 252 106 188 163 q 424 49 317 49 q 587 101 528 49 q 646 246 646 153 q 600 386 646 326 q 475 469 554 446 l 358 504 q 202 606 258 535 q 146 776 146 678 q 222 960 146 892 q 425 1028 297 1028 q 627 956 553 1028 q 701 761 701 885 l 632 761 q 575 910 632 854 q 424 965 518 965 q 271 917 326 965 q 215 782 215 868 q 258 651 215 707 q 375 571 301 594 l 492 535 q 655 426 594 503 q 715 250 715 350 q 637 58 715 129 q 424 -14 558 -14 z "},"Є":{"ha":833,"x_min":146,"x_max":708,"o":"m 425 -14 q 222 62 299 -14 q 146 264 146 138 l 146 750 q 222 953 146 878 q 425 1028 299 1028 q 631 949 554 1028 q 708 736 708 869 l 639 736 q 581 904 639 843 q 425 965 524 965 q 272 908 328 965 q 215 750 215 850 l 215 543 l 542 543 l 542 481 l 215 481 l 215 264 q 272 106 215 164 q 425 49 328 49 q 582 110 525 49 q 639 278 639 172 l 708 278 q 631 65 708 144 q 425 -14 554 -14 z "},"Э":{"ha":833,"x_min":132,"x_max":694,"o":"m 415 -14 q 209 65 286 -14 q 132 278 132 144 l 201 278 q 258 110 201 172 q 415 49 315 49 q 569 106 514 49 q 625 264 625 164 l 625 481 l 299 481 l 299 543 l 625 543 l 625 750 q 569 908 625 850 q 415 965 513 965 q 259 904 317 965 q 201 736 201 843 l 132 736 q 209 949 132 869 q 415 1028 286 1028 q 619 953 543 1028 q 694 750 694 878 l 694 264 q 619 62 694 138 q 415 -14 543 -14 z "},"І":{"ha":833,"x_min":167,"x_max":667,"o":"m 167 0 l 167 64 l 383 64 l 383 950 l 167 950 l 167 1014 l 667 1014 l 667 950 l 453 950 l 453 64 l 667 64 l 667 0 l 167 0 z "},"Ї":{"ha":833,"x_min":167,"x_max":667,"o":"m 167 0 l 167 64 l 383 64 l 383 950 l 167 950 l 167 1014 l 667 1014 l 667 950 l 453 950 l 453 64 l 667 64 l 667 0 l 167 0 m 569 1146 q 516 1167 536 1146 q 496 1222 496 1188 q 516 1278 496 1257 q 569 1299 536 1299 q 621 1278 601 1299 q 640 1222 640 1257 q 621 1167 640 1188 q 569 1146 601 1146 m 271 1146 q 219 1167 239 1146 q 199 1222 199 1188 q 219 1278 199 1257 q 271 1299 239 1299 q 323 1278 303 1299 q 343 1222 343 1257 q 323 1167 343 1188 q 271 1146 303 1146 z "},"Ј":{"ha":833,"x_min":97,"x_max":667,"o":"m 382 -14 q 173 64 249 -14 q 97 278 97 142 l 167 278 q 224 110 167 171 q 382 49 282 49 q 540 110 482 49 q 597 276 597 171 l 597 949 l 282 949 l 282 1014 l 667 1014 l 667 276 q 590 64 667 142 q 382 -14 514 -14 z "},"Ћ":{"ha":833,"x_min":0,"x_max":715,"o":"m 181 0 l 181 951 l 0 951 l 0 1014 l 424 1014 l 424 951 l 250 951 l 250 508 l 315 578 q 535 688 418 688 q 666 631 617 688 q 715 481 715 575 l 715 0 l 646 0 l 646 467 q 613 585 646 542 q 524 628 581 628 q 354 539 440 628 l 250 431 l 250 0 l 181 0 z "},"Ю":{"ha":833,"x_min":106,"x_max":747,"o":"m 536 -14 q 382 49 439 -14 q 325 222 325 111 l 325 494 l 172 494 l 172 0 l 106 0 l 106 1014 l 172 1014 l 172 550 l 325 550 l 325 792 q 382 965 325 903 q 536 1028 439 1028 q 691 965 635 1028 q 747 792 747 903 l 747 222 q 691 49 747 111 q 536 -14 635 -14 m 536 49 q 642 95 603 49 q 681 222 681 142 l 681 792 q 642 919 681 872 q 536 965 603 965 q 431 919 469 965 q 392 792 392 872 l 392 222 q 431 95 392 142 q 536 49 469 49 z "},"Я":{"ha":833,"x_min":100,"x_max":681,"o":"m 100 0 l 333 461 q 166 550 228 476 q 104 733 104 624 q 183 938 104 863 q 396 1014 261 1014 l 681 1014 l 681 0 l 611 0 l 611 458 l 408 458 l 181 0 l 100 0 m 396 521 l 611 521 l 611 951 l 396 951 q 234 893 294 951 q 174 736 174 835 q 234 580 174 639 q 396 521 294 521 z "},"Ђ":{"ha":833,"x_min":0,"x_max":715,"o":"m 371 -250 l 371 -187 l 429 -187 q 589 -132 532 -187 q 646 21 646 -76 l 646 467 q 613 585 646 542 q 524 628 581 628 q 354 539 440 628 l 250 431 l 250 0 l 181 0 l 181 951 l 0 951 l 0 1014 l 424 1014 l 424 951 l 250 951 l 250 510 l 315 579 q 533 688 417 688 q 666 631 617 688 q 715 481 715 575 l 715 21 q 638 -176 715 -103 q 429 -250 560 -250 l 371 -250 z "},"Ғ":{"ha":833,"x_min":56,"x_max":771,"o":"m 208 0 l 208 482 l 56 482 l 56 544 l 208 544 l 208 1014 l 771 1014 l 771 951 l 278 951 l 278 544 l 514 544 l 514 482 l 278 482 l 278 0 l 208 0 z "},"Қ":{"ha":833,"x_min":146,"x_max":778,"o":"m 146 0 l 146 1014 l 215 1014 l 215 557 l 428 557 l 653 1014 l 729 1014 l 490 529 l 714 63 l 778 63 l 778 -194 l 708 -194 l 708 0 l 661 0 l 426 494 l 215 494 l 215 0 l 146 0 z "},"Ң":{"ha":833,"x_min":150,"x_max":743,"o":"m 150 0 l 150 1014 l 219 1014 l 219 558 l 608 558 l 608 1014 l 678 1014 l 678 63 l 743 63 l 743 -194 l 674 -194 l 674 0 l 608 0 l 608 494 l 219 494 l 219 0 l 150 0 z "},"Ү":{"ha":833,"x_min":69,"x_max":764,"o":"m 382 0 l 382 389 l 69 1014 l 142 1014 l 371 556 q 399 499 386 525 q 418 458 413 472 q 438 498 425 471 q 465 556 450 525 l 692 1014 l 764 1014 l 451 389 l 451 0 l 382 0 z "},"Ұ":{"ha":833,"x_min":69,"x_max":764,"o":"m 188 326 l 188 389 l 382 389 l 69 1014 l 142 1014 l 371 556 q 399 499 386 525 q 418 458 413 472 q 438 498 425 471 q 465 556 450 525 l 692 1014 l 764 1014 l 451 389 l 646 389 l 646 326 l 451 326 l 451 0 l 382 0 l 382 326 l 188 326 z "},"Ҷ":{"ha":833,"x_min":111,"x_max":732,"o":"m 597 0 l 599 433 q 507 422 561 426 q 401 417 453 417 q 111 682 111 417 l 111 1014 l 181 1014 l 181 682 q 237 528 181 576 q 415 479 293 479 q 510 483 460 479 q 597 494 561 488 l 597 1014 l 667 1014 l 667 63 l 732 63 l 732 -194 l 663 -194 l 663 0 l 597 0 z "},"Һ":{"ha":833,"x_min":153,"x_max":708,"o":"m 222 1014 l 221 581 q 313 592 258 588 q 418 597 367 597 q 708 332 708 597 l 708 0 l 639 0 l 639 332 q 583 486 639 438 q 404 535 526 535 q 309 531 360 535 q 222 519 258 526 l 222 0 l 153 0 l 153 1014 l 222 1014 z "},"Ә":{"ha":833,"x_min":132,"x_max":694,"o":"m 414 -14 q 208 65 283 -14 q 132 278 132 143 l 132 543 l 625 543 l 625 750 q 569 907 625 849 q 414 965 513 965 q 259 904 317 965 q 201 736 201 843 l 132 736 q 208 949 132 871 q 414 1028 283 1028 q 619 953 543 1028 q 694 750 694 878 l 694 264 q 619 61 694 136 q 414 -14 543 -14 m 414 49 q 569 107 513 49 q 625 264 625 165 l 625 481 l 201 481 l 201 278 q 259 110 201 172 q 414 49 317 49 z "},"Ө":{"ha":833,"x_min":146,"x_max":688,"o":"m 417 -14 q 220 62 294 -14 q 146 264 146 138 l 146 750 q 220 952 146 876 q 417 1028 294 1028 q 614 952 540 1028 q 688 750 688 876 l 688 264 q 614 62 688 138 q 417 -14 540 -14 m 215 549 l 618 549 l 618 750 q 565 910 618 853 q 417 967 511 967 q 269 910 322 967 q 215 750 215 853 l 215 549 m 417 47 q 565 104 513 47 q 618 264 618 161 l 618 486 l 215 486 l 215 264 q 268 104 215 161 q 417 47 321 47 z "},"а":{"ha":833,"x_min":114,"x_max":683,"o":"m 374 -14 q 185 49 256 -14 q 114 214 114 111 q 179 372 114 313 q 351 431 244 431 l 614 431 l 614 521 q 564 663 614 613 q 422 714 514 714 q 285 673 339 714 q 221 563 231 632 l 151 563 q 240 719 165 660 q 422 778 314 778 q 612 707 540 778 q 683 521 683 636 l 683 0 l 614 0 l 614 122 q 529 23 593 60 q 374 -14 465 -14 m 393 47 q 553 99 492 47 q 614 232 614 150 l 614 369 l 350 369 q 229 328 275 369 q 183 219 183 288 q 241 95 183 143 q 393 47 299 47 z "},"б":{"ha":833,"x_min":149,"x_max":690,"o":"m 421 -14 q 219 63 290 -14 q 149 278 149 139 l 149 660 q 235 923 149 832 q 482 1014 321 1014 l 656 1014 l 656 944 l 482 944 q 285 870 356 944 q 215 660 215 796 l 215 546 l 221 546 q 290 651 235 614 q 435 688 346 688 q 624 613 558 688 q 690 396 690 538 l 690 278 q 620 63 690 139 q 421 -14 550 -14 m 421 49 q 568 110 515 49 q 621 278 621 171 l 621 396 q 568 566 621 504 q 421 628 515 628 q 271 564 324 628 q 218 396 218 500 l 218 278 q 272 110 218 171 q 421 49 326 49 z "},"в":{"ha":833,"x_min":153,"x_max":713,"o":"m 153 0 l 153 764 l 460 764 q 627 713 565 764 q 689 572 689 661 q 649 456 689 501 q 542 404 610 411 l 542 400 q 666 347 619 397 q 713 213 713 296 q 647 58 713 115 q 469 0 581 0 l 153 0 m 222 428 l 460 428 q 576 465 532 428 q 619 564 619 503 q 576 663 619 625 q 460 701 532 701 l 222 701 l 222 428 m 222 63 l 469 63 q 595 104 547 63 q 643 214 643 146 q 595 324 643 282 q 469 365 547 365 l 222 365 l 222 63 z "},"г":{"ha":833,"x_min":201,"x_max":722,"o":"m 201 0 l 201 764 l 722 764 l 722 701 l 271 701 l 271 0 l 201 0 z "},"ѓ":{"ha":833,"x_min":201,"x_max":722,"o":"m 201 0 l 201 764 l 722 764 l 722 701 l 271 701 l 271 0 l 201 0 m 422 896 l 569 1090 l 651 1090 l 496 896 l 422 896 z "},"ґ":{"ha":833,"x_min":201,"x_max":722,"o":"m 201 0 l 201 764 l 653 764 l 653 910 l 722 910 l 722 701 l 271 701 l 271 0 l 201 0 z "},"д":{"ha":833,"x_min":63,"x_max":764,"o":"m 63 -194 l 63 63 l 126 63 q 174 163 150 96 q 200 306 199 229 l 208 764 l 664 764 l 664 63 l 764 63 l 764 -194 l 701 -194 l 701 0 l 125 0 l 125 -194 l 63 -194 m 203 63 l 594 63 l 594 701 l 278 701 l 269 306 q 246 154 268 218 q 203 63 224 90 z "},"е":{"ha":833,"x_min":146,"x_max":688,"o":"m 418 -14 q 218 62 290 -14 q 146 264 146 138 l 146 500 q 219 702 146 626 q 418 778 292 778 q 616 702 544 778 q 688 500 688 626 l 688 368 l 215 368 l 215 264 q 268 106 215 164 q 418 47 321 47 q 547 85 496 47 q 617 188 597 122 l 686 188 q 595 40 665 94 q 418 -14 525 -14 m 215 428 l 618 428 l 618 500 q 566 658 618 600 q 418 717 514 717 q 268 659 321 717 q 215 500 215 601 l 215 428 z "},"ё":{"ha":833,"x_min":146,"x_max":688,"o":"m 418 -14 q 218 62 290 -14 q 146 264 146 138 l 146 500 q 219 702 146 626 q 418 778 292 778 q 616 702 544 778 q 688 500 688 626 l 688 368 l 215 368 l 215 264 q 268 106 215 164 q 418 47 321 47 q 547 85 496 47 q 617 188 597 122 l 686 188 q 595 40 665 94 q 418 -14 525 -14 m 215 428 l 618 428 l 618 500 q 566 658 618 600 q 418 717 514 717 q 268 659 321 717 q 215 500 215 601 l 215 428 m 567 910 q 513 931 533 910 q 493 986 493 951 q 513 1042 493 1021 q 567 1063 533 1063 q 618 1042 599 1063 q 638 986 638 1021 q 618 931 638 951 q 567 910 599 910 m 268 910 q 216 931 236 910 q 196 986 196 951 q 216 1042 196 1021 q 268 1063 236 1063 q 320 1042 300 1063 q 340 986 340 1021 q 320 931 340 951 q 268 910 300 910 z "},"ж":{"ha":833,"x_min":49,"x_max":785,"o":"m 49 0 l 218 392 l 60 764 l 132 764 l 278 417 l 386 417 l 386 764 l 447 764 l 447 417 l 553 417 l 701 764 l 774 764 l 615 396 l 785 0 l 711 0 l 553 361 l 447 361 l 447 0 l 386 0 l 386 361 l 278 361 l 119 0 l 49 0 z "},"з":{"ha":833,"x_min":119,"x_max":701,"o":"m 381 -14 q 201 36 265 -14 q 119 174 136 86 l 189 174 q 253 83 206 118 q 381 49 300 49 l 458 49 q 583 94 533 49 q 632 203 632 139 q 586 316 632 269 q 465 363 540 363 l 288 363 l 288 425 l 465 425 q 576 465 535 425 q 618 564 618 504 q 596 639 618 604 q 535 694 574 674 q 451 715 497 715 l 374 715 q 253 681 293 715 q 196 590 213 647 l 126 590 q 201 728 143 678 q 374 778 258 778 l 451 778 q 574 750 521 778 q 657 676 626 722 q 688 569 688 629 q 651 447 688 496 q 549 393 614 397 l 549 388 q 661 329 621 382 q 701 203 701 276 q 635 47 701 108 q 458 -14 568 -14 l 381 -14 z "},"и":{"ha":833,"x_min":153,"x_max":681,"o":"m 153 0 l 153 764 l 222 764 l 222 278 q 221 163 222 225 q 217 63 219 101 l 586 764 l 681 764 l 681 0 l 611 0 l 611 486 q 613 601 611 539 q 617 701 615 663 l 246 0 l 153 0 z "},"й":{"ha":833,"x_min":153,"x_max":681,"o":"m 153 0 l 153 764 l 222 764 l 222 278 q 221 163 222 225 q 217 63 219 101 l 586 764 l 681 764 l 681 0 l 611 0 l 611 486 q 613 601 611 539 q 617 701 615 663 l 246 0 l 153 0 m 417 893 q 269 947 324 893 q 215 1090 215 1000 l 278 1090 q 315 987 278 1025 q 415 949 351 949 q 518 987 481 949 q 556 1090 556 1025 l 618 1090 q 564 947 618 1000 q 417 893 510 893 z "},"к":{"ha":833,"x_min":157,"x_max":738,"o":"m 157 0 l 157 764 l 226 764 l 226 429 l 410 429 l 649 764 l 732 764 l 475 401 l 738 0 l 654 0 l 410 367 l 226 367 l 226 0 l 157 0 z "},"ќ":{"ha":833,"x_min":157,"x_max":738,"o":"m 157 0 l 157 764 l 226 764 l 226 429 l 410 429 l 649 764 l 732 764 l 475 401 l 738 0 l 654 0 l 410 367 l 226 367 l 226 0 l 157 0 m 381 896 l 528 1090 l 610 1090 l 454 896 l 381 896 z "},"л":{"ha":833,"x_min":49,"x_max":681,"o":"m 49 -10 l 49 60 l 83 60 q 169 108 136 60 q 204 232 203 156 l 215 764 l 681 764 l 681 0 l 611 0 l 611 701 l 285 701 l 272 232 q 219 56 269 122 q 83 -10 169 -10 l 49 -10 z "},"м":{"ha":833,"x_min":128,"x_max":706,"o":"m 128 0 l 128 764 l 232 764 l 374 403 q 399 336 386 372 q 418 276 411 300 q 438 336 425 300 q 463 403 450 372 l 603 764 l 706 764 l 706 0 l 638 0 l 638 361 q 639 502 638 432 q 642 632 640 572 q 644 729 643 692 l 454 229 l 381 229 l 188 729 q 192 632 190 692 q 194 502 193 572 q 196 361 196 432 l 196 0 l 128 0 z "},"н":{"ha":833,"x_min":153,"x_max":681,"o":"m 153 0 l 153 764 l 222 764 l 222 425 l 610 425 l 610 764 l 681 764 l 681 0 l 610 0 l 610 363 l 222 363 l 222 0 l 153 0 z "},"о":{"ha":833,"x_min":146,"x_max":688,"o":"m 417 -14 q 220 62 294 -14 q 146 264 146 138 l 146 500 q 220 702 146 626 q 417 778 294 778 q 614 702 540 778 q 688 500 688 626 l 688 264 q 614 62 688 138 q 417 -14 540 -14 m 417 47 q 565 104 513 47 q 618 264 618 161 l 618 500 q 565 660 618 603 q 417 717 511 717 q 269 660 322 717 q 215 500 215 603 l 215 264 q 268 104 215 161 q 417 47 321 47 z "},"п":{"ha":833,"x_min":153,"x_max":681,"o":"m 153 0 l 153 764 l 681 764 l 681 0 l 611 0 l 611 701 l 222 701 l 222 0 l 153 0 z "},"р":{"ha":833,"x_min":153,"x_max":688,"o":"m 153 -250 l 153 764 l 222 764 l 222 660 l 226 660 q 306 747 251 715 q 435 778 360 778 q 619 702 550 778 q 688 501 688 626 l 688 264 q 656 118 688 181 q 567 21 624 56 q 435 -14 511 -14 q 306 17 361 -14 q 226 104 251 49 l 222 104 l 222 -250 l 153 -250 m 421 46 q 566 103 514 46 q 618 264 618 161 l 618 501 q 566 661 618 604 q 421 718 514 718 q 275 661 328 718 q 222 501 222 604 l 222 264 q 275 103 222 161 q 421 46 328 46 z "},"с":{"ha":833,"x_min":146,"x_max":694,"o":"m 419 -14 q 219 62 293 -14 q 146 264 146 138 l 146 500 q 220 702 146 626 q 419 778 294 778 q 620 706 546 778 q 694 514 694 635 l 625 514 q 570 661 625 608 q 419 714 515 714 q 270 658 325 714 q 215 500 215 601 l 215 264 q 270 107 215 164 q 419 50 325 50 q 570 103 515 50 q 625 250 625 157 l 694 250 q 620 58 694 129 q 419 -14 546 -14 z "},"т":{"ha":833,"x_min":104,"x_max":729,"o":"m 382 0 l 382 694 l 104 694 l 104 764 l 729 764 l 729 694 l 451 694 l 451 0 l 382 0 z "},"у":{"ha":833,"x_min":106,"x_max":728,"o":"m 276 -250 l 389 54 l 106 764 l 183 764 l 372 278 q 403 200 388 239 q 425 140 418 161 q 447 201 433 161 q 475 281 461 240 l 651 764 l 728 764 l 347 -250 l 276 -250 z "},"ў":{"ha":833,"x_min":106,"x_max":728,"o":"m 276 -250 l 389 54 l 106 764 l 183 764 l 372 278 q 403 200 388 239 q 425 140 418 161 q 447 201 433 161 q 475 281 461 240 l 651 764 l 728 764 l 347 -250 l 276 -250 m 417 893 q 269 947 324 893 q 215 1090 215 1000 l 278 1090 q 315 987 278 1025 q 415 949 351 949 q 518 987 481 949 q 556 1090 556 1025 l 618 1090 q 564 947 618 1000 q 417 893 510 893 z "}}}
